<?xml version="1.0" ?><!DOCTYPE svg  PUBLIC '-//W3C//DTD SVG 1.1//EN'  'http://www.w3.org/Graphics/SVG/1.1/DTD/svg11.dtd'><svg enable-background="new 0 0 512 512" id="Layer_1" version="1.1" viewBox="0 0 512 512" xml:space="preserve" xmlns="http://www.w3.org/2000/svg" xmlns:xlink="http://www.w3.org/1999/xlink"><g><g><g><path d="M480.1,320.2c2.7-14.1,4.2-28.8,4.2-43.7c0-126.1-102.2-228.3-228.3-228.3S27.7,150.4,27.7,276.5     c0,18.3,2.2,36.1,6.2,53.2c32.6-0.9,117.9,2.3,215.7,51.4C306.9,346.9,404.9,299.5,480.1,320.2z" fill="#D0E5F6"/></g><g><path d="M249.7,381c26.5,13.3,54,29.9,81.5,50.8c60-3.8,99.9-23.4,119.2-35.5c14.2-23,24.4-48.7,29.7-76.1     C404.9,299.5,306.9,346.9,249.7,381z" fill="#96C8B4"/></g><g><path d="M33.9,329.7c9.4,39.6,29.2,75.2,56.3,103.8c25-10.8,73-21.7,154.6-7.1c32.3,5.8,61.2,7,86.4,5.5     C201.9,334,75.3,328.5,33.9,329.7z" fill="#96C8B4"/></g><path d="M477.5,332c1-3.9,1.9-7.8,2.6-11.8c-75.2-20.7-173.2,26.8-230.4,60.8c3.8,1.9,7.5,3.8,11.3,5.9    C318.5,354.1,407.4,314.3,477.5,332z" fill="#BAE1F7"/><path d="M314.9,432.4c5.6-0.1,11-0.3,16.3-0.6C201.9,334,75.3,328.5,33.9,329.7c1,4.2,2.1,8.3,3.4,12.4    C79.9,341.3,194.7,348.3,314.9,432.4z" fill="#BAE1F7"/><g><path d="M311.4,190.6c-0.2-35.5-28.3-64.2-62.8-64.2c-34.6,0-62.6,28.7-62.8,64.2H311.4z" fill="#F59B80"/></g><g><path d="M248.6,140.1c30,0,55.1,21.6,61.3,50.5h1.5c-0.2-35.5-28.3-64.2-62.8-64.2c-34.6,0-62.6,28.7-62.8,64.2     h1.5C193.5,161.7,218.6,140.1,248.6,140.1z" fill="#F4B7A5"/></g><g><path d="M335,353.2c-12.6-28.6-30.9-82.9-35.2-162.4H197.4c-4.3,79.4-22.6,133.8-35.2,162.4H335z" fill="#E1DAD3"/></g><g><polygon fill="#D9CFC2" points="343.5,434.3 153.7,434.3 174.5,353.2 322.7,353.2    "/></g><g><circle cx="248.6" cy="159.9" fill="#9FACB8" r="12.8"/></g><g><rect fill="#F4F5F5" height="129.2" transform="matrix(0.7971 0.6039 -0.6039 0.7971 118.6668 -190.5033)" width="55.3" x="315.1" y="16.7"/></g><g><rect fill="#D1DBDE" height="129.2" transform="matrix(0.7971 0.6039 -0.6039 0.7971 128.5843 -197.2632)" width="17.6" x="349" y="28.1"/></g><g><rect fill="#F4F5F5" height="129.2" transform="matrix(0.6039 -0.7971 0.7971 0.6039 15.0164 161.5511)" width="55.3" x="142.4" y="1"/></g><g><rect fill="#D1DBDE" height="129.2" transform="matrix(0.6039 -0.7971 0.7971 0.6039 31.8793 164.7443)" width="16.7" x="173.3" y="-14.3"/></g><g><path d="M322.7,353.2L322.7,353.2l12.2,0c-12.6-28.6-30.9-82.9-35.2-162.4h-50.1v162.4H322.7z" fill="#D9CFC2"/></g><g><path d="M300.5,202.2c-0.3-3.7-0.5-7.5-0.7-11.4H197.4c-0.2,3.9-0.5,7.6-0.7,11.4H300.5z" fill="#D9CFC2"/></g><g><path d="M300.5,202.2c-0.3-3.7-0.5-7.5-0.7-11.4h-50.1v11.4H300.5z" fill="#C4BAAE"/></g><g><polygon fill="#BEAE9C" points="322.7,353.2 249.7,353.2 249.7,434.3 343.5,434.3    "/></g><g><polygon fill="#BEAE9C" points="326,366 322.7,353.2 174.5,353.2 171.2,366    "/></g><g><polygon fill="#A29080" points="326,366 322.7,353.2 249.7,353.2 249.7,366    "/></g><g><rect fill="#BEAE9C" height="73" width="0" x="286.2" y="316.6"/></g><g><rect fill="#BEAE9C" height="0" width="75.2" x="174.5" y="353.2"/></g><g><path d="M248.6,386.8c-9.4,0-17,7.6-17,17v30.5h34v-30.5C265.6,394.4,258,386.8,248.6,386.8z" fill="#7FCEF2"/></g><g><circle cx="248.6" cy="302.8" fill="#BEAE9C" r="21.5"/></g><g><circle cx="248.6" cy="293.6" fill="#7FCEF2" r="21.5"/></g><g><path d="M244.8,426.4c-81.6-14.7-129.5-3.7-154.6,7.1c41.6,43.9,100.5,71.4,165.8,71.4     c82.1,0,154.1-43.4,194.4-108.5C423,413.4,353.9,446,244.8,426.4z" fill="#96C8B4"/></g><path d="M98.9,442.1c26.8-9.4,72.9-16.8,145.9-3.7c94,16.9,158.3-4.9,191.8-22.2c4.9-6.4,9.6-13,13.8-19.9    c-27.4,17.1-96.5,49.7-205.6,30c-81.6-14.7-129.5-3.7-154.6,7.1C93,436.4,95.9,439.3,98.9,442.1z" fill="#BAE1F7"/><g><rect fill="#F4F5F5" height="129.2" transform="matrix(-0.7971 -0.6039 0.6039 -0.7971 133.4725 521.6968)" width="55.3" x="126.7" y="173.8"/></g><g><rect fill="#D3DAE2" height="129.2" transform="matrix(-0.7971 -0.6039 0.6039 -0.7971 111.6552 489.6884)" width="14.4" x="130.9" y="161.5"/></g><g><rect fill="#F4F5F5" height="129.2" transform="matrix(-0.6039 0.7971 -0.7971 -0.6039 727.2164 146.7457)" width="55.3" x="299.5" y="189.5"/></g><g><rect fill="#D1DBDE" height="129.2" transform="matrix(-0.6039 0.7971 -0.7971 -0.6039 720.2323 183.6306)" width="13.4" x="307.8" y="206.2"/></g><g><g><path d="M311.4,193.2H200c-1.4,0-2.6-1.2-2.6-2.6s1.2-2.6,2.6-2.6h108.7c-1.5-32.7-28-59-60.2-59      c-29.8,0-54.8,22-59.5,52.2c-0.2,1.4-1.5,2.4-3,2.2c-1.4-0.2-2.4-1.5-2.2-3c5-32.8,32.2-56.6,64.6-56.6      c35.8,0,65.2,29.9,65.4,66.7c0,0.7-0.3,1.4-0.8,1.8C312.8,192.9,312.1,193.2,311.4,193.2z" fill="#244964"/></g><g><path d="M335,355.8H162.2c-0.9,0-1.7-0.4-2.2-1.2c-0.5-0.7-0.6-1.7-0.2-2.5c10.1-22.9,23.7-61.9,31-117.5      c0.2-1.4,1.5-2.4,2.9-2.2c1.4,0.2,2.4,1.5,2.2,2.9c-6.9,53.3-19.7,91.6-29.8,115.2H331c-6.7-15.7-15.5-40.2-22.6-73      c-0.3-1.4,0.6-2.8,2-3.1c1.4-0.3,2.8,0.6,3.1,2c7.5,35.1,17.1,60.5,23.8,75.7c0.4,0.8,0.3,1.7-0.2,2.5      C336.7,355.3,335.8,355.8,335,355.8z" fill="#244964"/></g><g><path d="M300.2,201.6c-1.4,0-2.5-1.1-2.6-2.4c-0.2-2.7-0.3-5.5-0.5-8.2c-0.1-1.4,1-2.7,2.5-2.7      c1.5-0.1,2.7,1,2.7,2.5c0.1,2.8,0.3,5.5,0.5,8.2c0.1,1.4-1,2.7-2.4,2.8C300.4,201.6,300.3,201.6,300.2,201.6z" fill="#244964"/></g><g><path d="M342.1,431.4c-1.2,0-2.2-0.8-2.5-2l-18.9-73.7H176.5L160,420.2c-0.4,1.4-1.8,2.2-3.2,1.9      c-1.4-0.4-2.2-1.8-1.9-3.2l17-66.4c0.3-1.2,1.3-2,2.5-2h148.2c1.2,0,2.2,0.8,2.5,2l19.4,75.7c0.4,1.4-0.5,2.8-1.9,3.2      C342.5,431.4,342.3,431.4,342.1,431.4z" fill="#244964"/></g><g><path d="M265.6,430.1c-0.7,0-1.3-0.6-1.3-1.3v-25.1c0-8.7-7-15.7-15.7-15.7c-8.7,0-15.7,7-15.7,15.7v20.4      c0,0.7-0.6,1.3-1.3,1.3s-1.3-0.6-1.3-1.3v-20.4c0-10.1,8.2-18.3,18.3-18.3s18.3,8.2,18.3,18.3v25.1      C266.9,429.5,266.3,430.1,265.6,430.1z" fill="#244964"/></g><g><path d="M248.6,316.4c-12.6,0-22.8-10.2-22.8-22.8c0-12.6,10.2-22.8,22.8-22.8c12.6,0,22.8,10.2,22.8,22.8      C271.4,306.2,261.2,316.4,248.6,316.4z M248.6,273.5c-11.1,0-20.2,9.1-20.2,20.2c0,11.1,9.1,20.2,20.2,20.2      c11.1,0,20.2-9.1,20.2-20.2C268.8,282.5,259.7,273.5,248.6,273.5z" fill="#244964"/></g><g><path d="M248.6,175.3c-8.5,0-15.4-6.9-15.4-15.4c0-8.5,6.9-15.4,15.4-15.4s15.4,6.9,15.4,15.4      C264,168.4,257.1,175.3,248.6,175.3z M248.6,149.7c-5.6,0-10.2,4.6-10.2,10.2c0,5.6,4.6,10.2,10.2,10.2      c5.6,0,10.2-4.6,10.2-10.2C258.8,154.3,254.2,149.7,248.6,149.7z" fill="#244964"/></g><g><path d="M256.2,152.5c-0.5,0-1.1-0.2-1.6-0.5c-1.1-0.9-1.4-2.5-0.5-3.6L357.7,11.5c0.9-1.1,2.5-1.4,3.6-0.5      c1.1,0.9,1.4,2.5,0.5,3.6L258.3,151.4C257.7,152.1,257,152.5,256.2,152.5z" fill="#244964"/></g><g><path d="M325.8,152.1c-0.6,0-1.1-0.2-1.6-0.5l-44.1-33.4c-1.1-0.9-1.4-2.5-0.5-3.6l78-103c0.4-0.5,1-0.9,1.7-1      c0.7-0.1,1.4,0.1,1.9,0.5l44.1,33.4c1.1,0.9,1.4,2.5,0.5,3.6l-78,103c-0.4,0.5-1,0.9-1.7,1C326.1,152.1,325.9,152.1,325.8,152.1      z M285.4,115.6l39.9,30.3L400.2,47l-39.9-30.3L285.4,115.6z" fill="#244964"/></g><g><path d="M385,72.8c-0.3,0-0.5-0.1-0.8-0.3l-44.1-33.4c-0.6-0.4-0.7-1.2-0.3-1.8c0.4-0.6,1.2-0.7,1.8-0.3      l44.1,33.4c0.6,0.4,0.7,1.2,0.3,1.8C385.8,72.6,385.4,72.8,385,72.8z" fill="#244964"/></g><g><path d="M364.8,99.3c-0.3,0-0.5-0.1-0.8-0.3L320,65.7c-0.6-0.4-0.7-1.2-0.3-1.8c0.4-0.6,1.2-0.7,1.8-0.3      L365.6,97c0.6,0.4,0.7,1.2,0.3,1.8C365.6,99.1,365.2,99.3,364.8,99.3z" fill="#244964"/></g><g><path d="M344.7,125.9c-0.3,0-0.5-0.1-0.8-0.3l-44.1-33.4c-0.6-0.4-0.7-1.2-0.3-1.8c0.4-0.6,1.2-0.7,1.8-0.3      l44.1,33.4c0.6,0.4,0.7,1.2,0.3,1.8C345.5,125.7,345.1,125.9,344.7,125.9z" fill="#244964"/></g><g><path d="M303.8,134.1c-0.3,0-0.5-0.1-0.8-0.3c-0.6-0.4-0.7-1.2-0.3-1.8l78-103c0.4-0.6,1.2-0.7,1.8-0.3      c0.6,0.4,0.7,1.2,0.3,1.8l-78,103C304.6,134,304.2,134.1,303.8,134.1z" fill="#244964"/></g><g><path d="M137.4,309.2c-0.5,0-1.1-0.2-1.6-0.5c-1.1-0.9-1.4-2.5-0.5-3.6l103.6-136.7c0.9-1.1,2.5-1.4,3.6-0.5      c1.1,0.9,1.4,2.5,0.5,3.6L139.5,308.2C139,308.9,138.2,309.2,137.4,309.2z" fill="#244964"/></g><g><path d="M137.4,309.2c-0.5,0-1.1-0.2-1.6-0.5l-44.1-33.4c-0.5-0.4-0.9-1-1-1.7c-0.1-0.7,0.1-1.4,0.5-1.9l78-103      c0.9-1.1,2.5-1.4,3.6-0.5l44.1,33.4c0.5,0.4,0.9,1,1,1.7c0.1,0.7-0.1,1.4-0.5,1.9l-78,103C139,308.9,138.2,309.2,137.4,309.2z       M97,272.7l39.9,30.3l74.9-98.9l-39.9-30.3L97,272.7z" fill="#244964"/></g><g><path d="M156.3,283c-0.3,0-0.5-0.1-0.8-0.3l-44.1-33.4c-0.6-0.4-0.7-1.2-0.3-1.8c0.4-0.6,1.2-0.7,1.8-0.3      l44.1,33.4c0.6,0.4,0.7,1.2,0.3,1.8C157.1,282.8,156.7,283,156.3,283z" fill="#244964"/></g><g><path d="M176.4,256.4c-0.3,0-0.5-0.1-0.8-0.3l-44.1-33.4c-0.6-0.4-0.7-1.2-0.3-1.8c0.4-0.6,1.2-0.7,1.8-0.3      l44.1,33.4c0.6,0.4,0.7,1.2,0.3,1.8C177.2,256.2,176.8,256.4,176.4,256.4z" fill="#244964"/></g><g><path d="M196.6,229.9c-0.3,0-0.5-0.1-0.8-0.3l-44.1-33.4c-0.6-0.4-0.7-1.2-0.3-1.8c0.4-0.6,1.2-0.7,1.8-0.3      l44.1,33.4c0.6,0.4,0.7,1.2,0.3,1.8C197.3,229.7,197,229.9,196.6,229.9z" fill="#244964"/></g><g><path d="M115.4,291.2c-0.3,0-0.5-0.1-0.8-0.3c-0.6-0.4-0.7-1.2-0.3-1.8l78-103c0.4-0.6,1.2-0.7,1.8-0.3      c0.6,0.4,0.7,1.2,0.3,1.8l-78,103C116.1,291.1,115.8,291.2,115.4,291.2z" fill="#244964"/></g><g><path d="M395.4,273.7c-0.5,0-1.1-0.2-1.6-0.5L257,169.5c-1.1-0.9-1.4-2.5-0.5-3.6c0.9-1.1,2.5-1.4,3.6-0.5      L396.9,269c1.1,0.9,1.4,2.5,0.5,3.6C396.9,273.3,396.1,273.7,395.4,273.7z" fill="#244964"/></g><g><path d="M362,317.7c-0.6,0-1.1-0.2-1.6-0.5l-103-78c-1.1-0.9-1.4-2.5-0.5-3.6l33.4-44.1c0.4-0.5,1-0.9,1.7-1      c0.7-0.1,1.4,0.1,1.9,0.5l103,78c1.1,0.9,1.4,2.5,0.5,3.6L364,316.7c-0.4,0.5-1,0.9-1.7,1C362.2,317.7,362.1,317.7,362,317.7z       M262.6,236.6l98.9,74.9l30.3-39.9l-98.9-74.9L262.6,236.6z" fill="#244964"/></g><g><g><path d="M337,297.6c-0.3,0-0.5-0.1-0.8-0.3c-0.6-0.4-0.7-1.2-0.3-1.8l33.4-44.1c0.4-0.6,1.2-0.7,1.8-0.3       c0.6,0.4,0.7,1.2,0.3,1.8L338.1,297C337.8,297.4,337.4,297.6,337,297.6z" fill="#244964"/></g><g><path d="M310.4,277.4c-0.3,0-0.5-0.1-0.8-0.3c-0.6-0.4-0.7-1.2-0.3-1.8l33.4-44.1c0.4-0.6,1.2-0.7,1.8-0.3       c0.6,0.4,0.7,1.2,0.3,1.8l-33.4,44.1C311.2,277.2,310.8,277.4,310.4,277.4z" fill="#244964"/></g><g><path d="M283.9,257.3c-0.3,0-0.5-0.1-0.8-0.3c-0.6-0.4-0.7-1.2-0.3-1.8l33.4-44.1c0.4-0.6,1.2-0.7,1.8-0.3       c0.6,0.4,0.7,1.2,0.3,1.8l-33.4,44.1C284.7,257.1,284.3,257.3,283.9,257.3z" fill="#244964"/></g></g><g><path d="M378.7,294.4c-0.3,0-0.5-0.1-0.8-0.3l-103-78c-0.6-0.4-0.7-1.2-0.3-1.8c0.4-0.6,1.2-0.7,1.8-0.3l103,78      c0.6,0.4,0.7,1.2,0.3,1.8C379.4,294.2,379,294.4,378.7,294.4z" fill="#244964"/></g><g><path d="M238.6,154.9c-0.5,0-1.1-0.2-1.6-0.5L100.3,50.8c-1.1-0.9-1.4-2.5-0.5-3.6c0.9-1.1,2.5-1.4,3.6-0.5      l136.7,103.6c1.1,0.9,1.4,2.5,0.5,3.6C240.1,154.5,239.4,154.9,238.6,154.9z" fill="#244964"/></g><g><path d="M204.9,129.3c-0.6,0-1.1-0.2-1.6-0.5l-103-78c-1.1-0.9-1.4-2.5-0.5-3.6L133.2,3c0.4-0.5,1-0.9,1.7-1      c0.7-0.1,1.4,0.1,1.9,0.5l103,78c1.1,0.9,1.4,2.5,0.5,3.6l-33.4,44.1c-0.4,0.5-1,0.9-1.7,1C205.1,129.3,205,129.3,204.9,129.3z       M105.5,48.2l98.9,74.9l30.3-39.9L135.7,8.2L105.5,48.2z" fill="#244964"/></g><g><path d="M126.8,68.9c-0.3,0-0.5-0.1-0.8-0.3c-0.6-0.4-0.7-1.2-0.3-1.8l33.4-44.1c0.4-0.6,1.2-0.7,1.8-0.3      c0.6,0.4,0.7,1.2,0.3,1.8l-33.4,44.1C127.6,68.7,127.2,68.9,126.8,68.9z" fill="#244964"/></g><g><path d="M153.3,89c-0.3,0-0.5-0.1-0.8-0.3c-0.6-0.4-0.7-1.2-0.3-1.8l33.4-44.1c0.4-0.6,1.2-0.7,1.8-0.3      c0.6,0.4,0.7,1.2,0.3,1.8l-33.4,44.1C154.1,88.8,153.7,89,153.3,89z" fill="#244964"/></g><g><path d="M179.9,109.1c-0.3,0-0.5-0.1-0.8-0.3c-0.6-0.4-0.7-1.2-0.3-1.8L212.3,63c0.4-0.6,1.2-0.7,1.8-0.3      c0.6,0.4,0.7,1.2,0.3,1.8l-33.4,44.1C180.7,109,180.3,109.1,179.9,109.1z" fill="#244964"/></g><g><path d="M221.6,106c-0.3,0-0.5-0.1-0.8-0.3l-103-78c-0.6-0.4-0.7-1.2-0.3-1.8c0.4-0.6,1.2-0.7,1.8-0.3l103,78      c0.6,0.4,0.7,1.2,0.3,1.8C222.3,105.8,221.9,106,221.6,106z" fill="#244964"/></g><g><path d="M331.2,342.6c-1,0-2-0.6-2.4-1.6c-0.5-1.3,0.1-2.8,1.4-3.4c59.8-24.2,110.5-30.9,150.6-19.9      c1.4,0.4,2.2,1.8,1.8,3.2c-0.4,1.4-1.8,2.2-3.2,1.8c-39-10.7-88.5-4.1-147.3,19.7C331.8,342.5,331.5,342.6,331.2,342.6z" fill="#244964"/></g><g><path d="M164.6,350.3c-0.2,0-0.5,0-0.7-0.1C104.5,333,57,331.6,34,332.3c-1.4,0-2.6-1.1-2.7-2.5      c0-1.4,1.1-2.6,2.5-2.7c23.3-0.7,71.4,0.8,131.5,18.1c1.4,0.4,2.2,1.8,1.8,3.2C166.8,349.5,165.7,350.3,164.6,350.3z" fill="#244964"/></g><g><g><path d="M208.3,58.5c15.4-3.4,31.3-5.1,47.7-5.1c22.2,0,43.7,3.3,64,9.4c2.3-3.4,5.5-6.1,9.1-8.1       C306,47.1,281.5,43,256,43c-20.7,0-40.7,2.7-59.8,7.8C201,52,205.2,54.8,208.3,58.5z" fill="#244964"/></g><g><path d="M379.9,78.6c-1.8,3-4.4,5.7-7.4,7.7c63.9,39.3,106.6,109.8,106.6,190.1c0,123-100.1,223.1-223.1,223.1       c-123,0-223.1-100.1-223.1-223.1c0-82.3,44.8-154.2,111.2-192.9c-2.9-2.1-5.2-4.8-6.9-8C68.6,116.3,22.5,191.1,22.5,276.5       C22.5,405.2,127.2,510,256,510c128.8,0,233.5-104.8,233.5-233.5C489.5,193.2,445.7,120,379.9,78.6z" fill="#244964"/></g></g><g><path d="M90.2,436c-1,0-2-0.6-2.4-1.6c-0.6-1.3,0-2.8,1.4-3.4c26.3-11.4,74.8-21.8,156.1-7.3      c109.3,19.6,178.6-14,203.3-29.4c1.2-0.8,2.8-0.4,3.6,0.8c0.8,1.2,0.4,2.8-0.8,3.6c-14.4,8.9-38.7,21.2-73.1,29      c-41.3,9.3-86.3,9.7-133.9,1.1c-80-14.4-127.4-4.2-153.1,6.9C90.9,436,90.5,436,90.2,436z" fill="#244964"/></g></g><path d="M229.5,257.3h-28.7c-0.7,0-1.3-0.6-1.3-1.3s0.6-1.3,1.3-1.3h28.7c0.7,0,1.3,0.6,1.3,1.3    S230.2,257.3,229.5,257.3z" fill="#244A64"/><path d="M219,257.3c-0.7,0-1.3-0.6-1.3-1.3v-11.1c0-0.7,0.6-1.3,1.3-1.3s1.3,0.6,1.3,1.3V256    C220.3,256.7,219.7,257.3,219,257.3z" fill="#244A64"/><path d="M241,245.7h-25.9c-0.7,0-1.3-0.6-1.3-1.3s0.6-1.3,1.3-1.3H241c0.7,0,1.3,0.6,1.3,1.3    S241.7,245.7,241,245.7z" fill="#244A64"/><path d="M206,274.9h-10.6c-0.7,0-1.3-0.6-1.3-1.3c0-0.7,0.6-1.3,1.3-1.3H206c0.7,0,1.3,0.6,1.3,1.3    C207.3,274.3,206.8,274.9,206,274.9z" fill="#244A64"/><path d="M221.2,305.7H207c-0.7,0-1.3-0.6-1.3-1.3s0.6-1.3,1.3-1.3h14.2c0.7,0,1.3,0.6,1.3,1.3    S222,305.7,221.2,305.7z" fill="#244A64"/><path d="M210,314.6c-0.7,0-1.3-0.6-1.3-1.3v-8.9c0-0.7,0.6-1.3,1.3-1.3s1.3,0.6,1.3,1.3v8.9    C211.3,314,210.8,314.6,210,314.6z" fill="#244A64"/><path d="M214.1,315.4H187c-0.7,0-1.3-0.6-1.3-1.3c0-0.7,0.6-1.3,1.3-1.3h27.1c0.7,0,1.3,0.6,1.3,1.3    C215.4,314.8,214.8,315.4,214.1,315.4z" fill="#244A64"/><path d="M193.4,322.4c-0.7,0-1.3-0.6-1.3-1.3v-7c0-0.7,0.6-1.3,1.3-1.3s1.3,0.6,1.3,1.3v7    C194.7,321.8,194.1,322.4,193.4,322.4z" fill="#244A64"/><path d="M228.1,324.5h-24.5c-0.7,0-1.3-0.6-1.3-1.3c0-0.7,0.6-1.3,1.3-1.3h24.5c0.7,0,1.3,0.6,1.3,1.3    C229.4,323.9,228.8,324.5,228.1,324.5z" fill="#244A64"/><path d="M200.6,338.6h-20.2c-0.7,0-1.3-0.6-1.3-1.3c0-0.7,0.6-1.3,1.3-1.3h20.2c0.7,0,1.3,0.6,1.3,1.3    C201.9,338,201.3,338.6,200.6,338.6z" fill="#244A64"/><path d="M224.5,382.8H187c-0.7,0-1.3-0.6-1.3-1.3s0.6-1.3,1.3-1.3h37.5c0.7,0,1.3,0.6,1.3,1.3    S225.2,382.8,224.5,382.8z" fill="#244A64"/><path d="M196.6,395c-0.7,0-1.3-0.6-1.3-1.3v-12.2c0-0.7,0.6-1.3,1.3-1.3s1.3,0.6,1.3,1.3v12.2    C197.9,394.4,197.3,395,196.6,395z" fill="#244A64"/><path d="M205.8,395h-29.3c-0.7,0-1.3-0.6-1.3-1.3s0.6-1.3,1.3-1.3h29.3c0.7,0,1.3,0.6,1.3,1.3S206.5,395,205.8,395    z" fill="#244A64"/></g><path d="M104.8,309.2H64.3c-1.4,0-2.6-1.2-2.6-2.6s1.2-2.6,2.6-2.6h40.5c1.4,0,2.6,1.2,2.6,2.6   S106.2,309.2,104.8,309.2z" fill="#FFFFFF"/><path d="M289,75.4h-40.5c-1.4,0-2.6-1.2-2.6-2.6c0-1.4,1.2-2.6,2.6-2.6H289c1.4,0,2.6,1.2,2.6,2.6   C291.6,74.2,290.5,75.4,289,75.4z" fill="#FFFFFF"/><path d="M104.8,213.2H64.3c-1.4,0-2.6-1.2-2.6-2.6s1.2-2.6,2.6-2.6h40.5c1.4,0,2.6,1.2,2.6,2.6   S106.2,213.2,104.8,213.2z" fill="#FFFFFF"/><path d="M449.6,253.1h-40.5c-1.4,0-2.6-1.2-2.6-2.6s1.2-2.6,2.6-2.6h40.5c1.4,0,2.6,1.2,2.6,2.6   S451,253.1,449.6,253.1z" fill="#FFFFFF"/><path d="M439,196.8c-1.2-3.4-4.4-5.8-8.2-5.8c-0.7,0-1.3,0.1-2,0.2c0-0.1,0-0.2,0-0.2c0-11.1-9-20.2-20.2-20.2   c-3,0-5.9,0.7-8.5,1.9c-4.4-5.6-11.1-9.2-18.8-9.2c-12,0-21.9,8.9-23.5,20.5c0,0,0,0,0,0c-7.2,0-13.1,5.7-13.5,12.8H439z" fill="#FFFFFF"/><path d="M162.2,158c-0.6-15.4-13.3-27.8-28.9-27.8c-11,0-20.5,6.1-25.5,15.1c-2.2-1.2-4.8-1.9-7.6-1.9   c-8.3,0-15.1,6.4-15.7,14.6H162.2z" fill="#FFFFFF"/></g></svg>