<?xml version="1.0" ?><!DOCTYPE svg  PUBLIC '-//W3C//DTD SVG 1.1//EN'  'http://www.w3.org/Graphics/SVG/1.1/DTD/svg11.dtd'><svg enable-background="new 0 0 512 512" id="Layer_1" version="1.1" viewBox="0 0 512 512" xml:space="preserve" xmlns="http://www.w3.org/2000/svg" xmlns:xlink="http://www.w3.org/1999/xlink"><g><g><g><circle cx="256" cy="300.4" fill="#D0E5F6" r="205"/></g></g><g><path d="M394.3,235.8c4.1-4.4,6.6-10.2,6.6-16.7c0-13.4-10.9-24.3-24.3-24.3s-24.3,10.9-24.3,24.3    c0,6.5,2.5,12.3,6.6,16.7H394.3z" fill="#FFFFFF"/><path d="M429.4,235.8c0.9-2.3,1.3-4.7,1.3-7.3c0-11.3-9.2-20.5-20.5-20.5c-11.3,0-20.5,9.2-20.5,20.5    c0,2.6,0.5,5,1.3,7.3H429.4z" fill="#FFFFFF"/><path d="M367.3,235.8c0.1-0.8,0.2-1.6,0.2-2.4c0-7.9-6.4-14.2-14.2-14.2c-7.9,0-14.2,6.4-14.2,14.2    c0,0.8,0.1,1.6,0.2,2.4H367.3z" fill="#FFFFFF"/></g><g><path d="M81.5,191.4c-3.5,14.3-9.6,28.3-17.2,40.9h33.6c4.1-4.4,6.6-10.2,6.6-16.7    C104.6,202.7,94.3,192.1,81.5,191.4z" fill="#FFFFFF"/><path d="M133.1,232.4c0.9-2.3,1.3-4.7,1.3-7.3c0-11.3-9.2-20.5-20.5-20.5c-11.3,0-20.5,9.2-20.5,20.5    c0,2.6,0.5,5,1.3,7.3H133.1z" fill="#FFFFFF"/><path d="M64.3,232.4H71c0.1-0.8,0.2-1.6,0.2-2.4c0-2.5-0.6-4.8-1.7-6.8C67.8,226.3,66.1,229.4,64.3,232.4z" fill="#FFFFFF"/></g><g><path d="M206,288.7c2.8-2.9,4.5-6.9,4.5-11.2c0-9-7.3-16.3-16.3-16.3c-9,0-16.3,7.3-16.3,16.3    c0,4.3,1.7,8.3,4.5,11.2H206z" fill="#FFFFFF"/><path d="M229.6,288.7c0.6-1.5,0.9-3.2,0.9-4.9c0-7.6-6.2-13.8-13.8-13.8c-7.6,0-13.8,6.2-13.8,13.8    c0,1.7,0.3,3.4,0.9,4.9H229.6z" fill="#FFFFFF"/><path d="M187.9,288.7c0.1-0.5,0.1-1.1,0.1-1.6c0-5.3-4.3-9.6-9.6-9.6s-9.6,4.3-9.6,9.6c0,0.6,0.1,1.1,0.1,1.6    H187.9z" fill="#FFFFFF"/></g><g><path d="M54.9,321.5v28.6c1,3.2,2,6.4,3.1,9.6h28v-38.2H54.9z" fill="#AAD2E3"/><g><path d="M90.4,417.1c1,1.4,2.1,2.8,3.1,4.2c0.1,0.2,0.3,0.3,0.4,0.5c4.1,5.1,8.3,10.1,12.7,14.9     c4.2,4.6,8.6,9,13.1,13.3v-49H85.9v9.8C87.4,412.8,88.9,415,90.4,417.1z" fill="#AAD2E3"/><path d="M136.1,464.1c0.7,0.5,1.4,1,2.1,1.5c1.3,0.9,2.6,1.9,3.9,2.8c2.1,1.4,4.2,2.9,6.3,4.2     c4,2.6,8.2,5.1,12.4,7.4V335.3h-40.9v114.7C125,454.9,130.4,459.7,136.1,464.1z" fill="#AAD2E3"/><path d="M163,481.3c3,1.6,6.1,3.2,9.3,4.7c1.4,0.7,2.9,1.3,4.3,2c0.3,0.1,1,0.4,1.4,0.6c4.9,2,9.8,3.8,14.8,5.4     c2.9,0.9,5.9,1.8,8.8,2.6v-114h-40.9v97.4C161.4,480.5,162.2,480.9,163,481.3z" fill="#AAD2E3"/><path d="M216.6,500.2l43.4,5.1l15-5.1V340.6h-73.4v156C206.5,498,211.5,499.2,216.6,500.2z" fill="#AAD2E3"/><path d="M314,497c1.6-0.5,3.1-0.9,4.7-1.4v-85.4h-43.7v90.1h26.3C305.5,499.2,309.8,498.2,314,497z" fill="#AAD2E3"/><path d="M329.4,491.9c2.3-0.8,4.5-1.8,6.7-2.6c0.1-0.1,0.3-0.1,0.4-0.2c1-0.5,2-0.9,2.9-1.3     c6.9-3.2,13.6-6.7,20.1-10.5V335.3h-40.9v160.2C322.3,494.4,325.8,493.2,329.4,491.9z" fill="#AAD2E3"/><path d="M366.4,473c4.3-2.8,8.6-5.7,12.7-8.7c0.8-0.6,1.7-1.3,2.5-1.9c0.1-0.1,0.3-0.2,0.5-0.4     c1.9-1.5,3.8-3.1,5.7-4.7c4.9-4.2,9.6-8.6,14.2-13.2V301.7h-42.3v175.5C361.9,475.9,364.2,474.5,366.4,473z" fill="#AAD2E3"/><path d="M409.5,436.3c3.7-4.1,7.3-8.3,10.7-12.6c0.1-0.1,0.2-0.2,0.2-0.3c0.7-1,1.4-1.9,2.2-2.9     c1.5-2,2.9-4.1,4.4-6.1c6.1-8.8,11.6-18,16.5-27.5c1.3-2.5,2.6-5.1,3.8-7.6c0.5-1,1-2.1,1.5-3.1c0.1-0.3,0.3-0.5,0.4-0.8     c0-0.1,0.1-0.3,0.2-0.4c2-5.4,4-10.7,5.5-16.2c1.7-5.9,3.1-11.9,4.2-17.9c0.5-2.8,1-5.7,1.4-8.6c0-0.2,0.5-4.5,0.6-5.4     c1.2-12.4,1.4-24.8,0.6-37.2c-0.2-3.2-0.5-6.4-0.8-9.6c0,0.1-0.2-1.5-0.3-2.6c-0.1-1-0.5-3.5-0.5-3.3c-0.6-4.1-1.4-8.1-2.3-12.1     h-55.8v182.2C404.5,441.6,407,439,409.5,436.3z" fill="#AAD2E3"/><path d="M58,359.7c0.9,2.7,1.8,5.3,2.8,7.9c0.3,0.7,0.6,1.4,0.8,2.2c7,13.4,14.5,26.5,23,39     c1.9,2.8,3.8,5.5,5.8,8.2c1,1.4,2.1,2.8,3.1,4.2c0.1,0.2,0.3,0.3,0.4,0.5c0.6,0.8,1.2,1.5,1.8,2.3v-64.3H58z" fill="#AAD2E3"/></g></g><g><g><g><path d="M294.4,320.6h-28c3.4,15.7,8.7,37.6,17.1,68.8h-55c8.4-31.2,13.7-53.2,17.1-68.8h-28      c-5.8,22.7-13.2,45.9-22.5,68.8h121.7C307.5,366.6,300.2,343.3,294.4,320.6z" fill="#F5F7F9"/></g><g><path d="M239.6,346.5c2.5-10.1,4.4-18.7,6-25.9h-28c-1,4-2.1,8-3.2,12C219.9,333.3,231.6,335.9,239.6,346.5z" fill="#D3DAE2"/></g><g><path d="M303.5,352.4c-3.4-10.7-6.4-21.3-9.1-31.8h-28c1,4.7,2.2,10,3.6,15.9C276.2,337,293.2,339.5,303.5,352.4      z" fill="#D3DAE2"/></g><g><path d="M163,481.3c3,1.6,6.1,3.2,9.3,4.7c1.4,0.7,2.9,1.3,4.3,2c0.3,0.1,1,0.4,1.4,0.6c0.5,0.2,1,0.4,1.5,0.6      c14.9-29,43.6-48.7,76.5-48.7c33.4,0,62.5,20.2,77.2,49.9c1-0.4,2-0.8,2.9-1.2c0.1-0.1,0.3-0.1,0.4-0.2c1-0.5,2-0.9,2.9-1.3      c8.4-3.8,16.5-8.2,24.3-13.1c-13.2-17.8-24.5-36.9-34.2-56.7H182.4c-9.4,19.2-20.4,37.9-33.2,55.3      C153.7,476.1,158.3,478.8,163,481.3z" fill="#F5F7F9"/></g><g><path d="M222,302.4H290c-19.8-87.5-17.6-161.3-17.6-161.3h-32.8C239.6,141.1,241.8,215,222,302.4z" fill="#F5F7F9"/></g><g><path d="M233.9,128.7v8.4c0,2.2,1.7,3.9,3.8,3.9h36.6c2.1,0,3.8-1.7,3.8-3.9v-8.4H233.9z" fill="#F5F7F9"/></g><g><path d="M274.3,87.2h-36.6c-2.1,0-3.8,1.7-3.8,3.9v8.4h44.2v-8.4C278.1,89,276.4,87.2,274.3,87.2z" fill="#F5F7F9"/></g><g><path d="M262.9,74.9h-13.8c-2.1,0-3.8,1.7-3.8,3.9v8.4h21.4v-8.4C266.7,76.6,265,74.9,262.9,74.9z" fill="#F5F7F9"/></g><g><path d="M262.9,74.9h-13.8c-1.6,0-3,1-3.5,2.5h14.9v9.9h6.2v-8.4C266.7,76.6,265,74.9,262.9,74.9z" fill="#D3DAE2"/></g><g><path d="M283.8,99.6h-55.5c-1.9,0-3.5,1.6-3.5,3.6v21.9c0,2,1.6,3.6,3.5,3.6h55.5c1.9,0,3.5-1.6,3.5-3.6v-21.9      C287.3,101.2,285.7,99.6,283.8,99.6z" fill="#F4B7A5"/></g><g><path d="M329.7,389.5H182.3c-2.5,0-4.6,2.1-4.6,4.7v19.1c0,2.6,2,4.7,4.6,4.7h147.3c2.5,0,4.6-2.1,4.6-4.7v-19.1      C334.2,391.6,332.2,389.5,329.7,389.5z" fill="#F4B7A5"/></g><g><path d="M319.3,377.7H192.7c-2.4,0-4.4,2-4.4,4.5v7.2h135.4v-7.2C323.7,379.8,321.7,377.7,319.3,377.7z" fill="#F4B7A5"/></g><g><path d="M297.3,302.4h-82.5c-1.8,0-3.3,1.5-3.3,3.4v11.4c0,1.9,1.5,3.4,3.3,3.4h82.5c1.8,0,3.3-1.5,3.3-3.4      v-11.4C300.6,304,299.1,302.4,297.3,302.4z" fill="#F4B7A5"/></g><g><path d="M222.2,332.4l67.6,0c2.4,0,4.4-2,4.4-4.5v-7.2l-76.4,0v7.2C217.8,330.3,219.8,332.4,222.2,332.4z" fill="#F5F7F9"/></g><g opacity="0.5"><path d="M273.3,181.9c-1.4-25.3-0.9-40.9-0.9-40.9h-32.8c0,0,0.1,2,0.1,5.8C246.8,148.7,264.3,155.6,273.3,181.9      z" fill="#D3DAE2"/></g><g><path d="M278.1,137.2v-8.4h-44.2v2.5c8.4,0,33.5,0.7,42.7,9C277.5,139.5,278.1,138.4,278.1,137.2z" fill="#BDC4CE"/></g><g><path d="M286.7,127.2c0.4-0.6,0.6-1.3,0.6-2.1v-21.9c0-2-1.6-3.6-3.5-3.6h-55.5c-1.9,0-3.5,1.6-3.5,3.6v3.4      C235.5,105,275.4,101.1,286.7,127.2z" fill="#F59B80"/></g><g><path d="M278.1,91.1c0-2.2-1.7-3.9-3.8-3.9h-36.6c-1.6,0-3,1-3.5,2.5c8.1,0.4,29.5,2,41.5,9.9h2.4V91.1z" fill="#D3DAE2"/></g><g><path d="M300.6,317.2v-11.4c0-1.9-1.5-3.4-3.3-3.4h-82.5c-1.7,0-3.2,1.4-3.3,3.1c15.2-0.9,62.8-2,83.8,15.1h2.1      C299.1,320.6,300.6,319.1,300.6,317.2z" fill="#F59B80"/></g><g><path d="M286.3,332.4h3.5c2.4,0,4.4-2,4.4-4.5v-7.2h-76.4v3.5C228.7,324.1,264.1,324.4,286.3,332.4z" fill="#D3DAE2"/></g><g><path d="M323.7,382.3c0-2.5-2-4.5-4.4-4.5H192.7c-1.8,0-3.3,1.1-4,2.7c16.9-0.8,86.8-3.2,122.1,9h13V382.3z" fill="#F59B80"/></g><g><path d="M334.2,413.3v-19.1c0-2.6-2-4.7-4.6-4.7H182.3c-2.5,0-4.6,2.1-4.6,4.7v1c16.6-0.9,108.2-4.2,149.8,22.8      h2.1C332.2,418,334.2,415.9,334.2,413.3z" fill="#F59B80"/></g><g><path d="M363.6,474.8c0.1,0,0.1-0.1,0.2-0.1c-13.2-17.8-24.5-36.9-34.2-56.7H182.4c-0.6,1.1-1.1,2.3-1.7,3.4      C204.7,419.5,294.4,416.7,363.6,474.8z" fill="#D3DAE2"/></g></g><g><g><path d="M307.2,455.4c-15.1-11.2-32.8-17.2-51.2-17.2s-36.1,5.9-51.2,17.2c-11.5,8.6-20.9,19.9-27.6,32.9      c0.2,0.1,0.5,0.2,0.6,0.3c1.2,0.5,2.5,1,3.7,1.5c14.8-29,42.9-47.2,74.4-47.2c31.9,0,60.3,18.7,75,48.4c1.5-0.6,2.9-1.1,4.3-1.7      C328.7,476,319.1,464.3,307.2,455.4z" fill="#244964"/><path d="M148.3,472.7c1,0.6,1.9,1.2,2.9,1.8c12-16.4,22.9-34.5,32.7-54.2h144.3c10,20.2,21.3,38.8,33.6,55.6      c1.3-0.8,2.7-1.6,4-2.5c-12.6-16.9-24-35.8-34.1-56.5l-0.6-1.3H181l-0.6,1.3c-9.8,20-20.9,38.4-33,55      C147.6,472.2,148,472.5,148.3,472.7z" fill="#244964"/></g><g><path d="M292.9,304.8h-73.8l0.6-2.9c19.5-86.2,17.5-160,17.5-160.8l-0.1-2.4h37.6l-0.1,2.4      c0,0.7-2,74.6,17.5,160.8L292.9,304.8z M225,300.1H287c-17-76.8-17.2-143.4-17-156.7h-28C242.1,156.7,242,223.3,225,300.1z" fill="#244964"/></g><g><rect fill="#244964" height="76.7" transform="matrix(0.8738 0.4863 -0.4863 0.8738 244.8718 -40.458)" width="4.7" x="198" y="413.2"/></g><g><rect fill="#244964" height="4.7" transform="matrix(0.4863 0.8738 -0.8738 0.4863 554.4604 -40.0839)" width="76.7" x="273" y="449.2"/></g><g><path d="M274.3,143.4h-36.6c-3.4,0-6.1-2.8-6.1-6.2v-10.8h48.9v10.8C280.4,140.6,277.7,143.4,274.3,143.4z       M236.2,131.1v6.1c0,0.9,0.7,1.6,1.5,1.6h36.6c0.8,0,1.5-0.7,1.5-1.6v-6.1H236.2z" fill="#244964"/></g><g><path d="M280.4,101.9h-48.9V91.1c0-3.4,2.7-6.2,6.1-6.2h36.6c3.4,0,6.1,2.8,6.1,6.2V101.9z M236.2,97.2h39.5      v-6.1c0-0.9-0.7-1.6-1.5-1.6h-36.6c-0.8,0-1.5,0.7-1.5,1.6V97.2z" fill="#244964"/></g><g><path d="M269,89.5h-26V78.8c0-3.4,2.7-6.2,6.1-6.2h13.8c3.4,0,6.1,2.8,6.1,6.2V89.5z M247.7,84.9h16.7v-6.1      c0-0.9-0.7-1.6-1.5-1.6h-13.8c-0.8,0-1.5,0.7-1.5,1.6V84.9z" fill="#244964"/></g><g><path d="M283.8,131.1h-55.5c-3.2,0-5.8-2.7-5.8-5.9v-21.9c0-3.3,2.6-5.9,5.8-5.9h55.5c3.2,0,5.8,2.7,5.8,5.9      v21.9C289.6,128.4,287,131.1,283.8,131.1z M228.2,101.9c-0.6,0-1.2,0.6-1.2,1.3v21.9c0,0.7,0.5,1.3,1.2,1.3h55.5      c0.6,0,1.2-0.6,1.2-1.3v-21.9c0-0.7-0.5-1.3-1.2-1.3H228.2z" fill="#244964"/></g><g><rect fill="#244964" height="72.9" width="4.7" x="253.7" y="2"/></g><g><path d="M329.7,420.3H182.3c-3.8,0-6.9-3.2-6.9-7v-19.1c0-3.9,3.1-7,6.9-7h147.3c3.8,0,6.9,3.2,6.9,7v19.1      C336.6,417.2,333.5,420.3,329.7,420.3z M182.3,391.8c-1.2,0-2.2,1.1-2.2,2.4v19.1c0,1.3,1,2.4,2.2,2.4h147.3      c1.2,0,2.2-1.1,2.2-2.4v-19.1c0-1.3-1-2.4-2.2-2.4H182.3z" fill="#244964"/></g><g><path d="M326,391.8H186v-9.5c0-3.8,3-6.9,6.7-6.9h126.6c3.7,0,6.7,3.1,6.7,6.9V391.8z M190.6,387.1h130.7v-4.9      c0-1.2-0.9-2.2-2-2.2H192.7c-1.1,0-2.1,1-2.1,2.2V387.1z" fill="#244964"/></g><g><path d="M297.3,323h-82.5c-3.1,0-5.7-2.6-5.7-5.8v-11.4c0-3.2,2.5-5.8,5.7-5.8h82.5c3.1,0,5.7,2.6,5.7,5.8v11.4      C302.9,320.4,300.4,323,297.3,323z M214.7,304.8c-0.5,0-1,0.5-1,1.1v11.4c0,0.6,0.4,1.1,1,1.1h82.5c0.5,0,1-0.5,1-1.1v-11.4      c0-0.6-0.4-1.1-1-1.1H214.7z" fill="#244964"/></g><g><path d="M220.7,316.5c-0.6,0-1.2-0.5-1.2-1.2v-7.5c0-0.6,0.5-1.2,1.2-1.2c0.6,0,1.2,0.5,1.2,1.2v7.5      C221.9,315.9,221.4,316.5,220.7,316.5z" fill="#244964"/></g><g><path d="M232.5,316.5c-0.6,0-1.2-0.5-1.2-1.2v-7.5c0-0.6,0.5-1.2,1.2-1.2c0.6,0,1.2,0.5,1.2,1.2v7.5      C233.7,315.9,233.1,316.5,232.5,316.5z" fill="#244964"/></g><g><path d="M244.2,316.5c-0.6,0-1.2-0.5-1.2-1.2v-7.5c0-0.6,0.5-1.2,1.2-1.2c0.6,0,1.2,0.5,1.2,1.2v7.5      C245.4,315.9,244.9,316.5,244.2,316.5z" fill="#244964"/></g><g><path d="M256,316.5c-0.6,0-1.2-0.5-1.2-1.2v-7.5c0-0.6,0.5-1.2,1.2-1.2c0.6,0,1.2,0.5,1.2,1.2v7.5      C257.2,315.9,256.6,316.5,256,316.5z" fill="#244964"/></g><g><path d="M267.8,316.5c-0.6,0-1.2-0.5-1.2-1.2v-7.5c0-0.6,0.5-1.2,1.2-1.2c0.6,0,1.2,0.5,1.2,1.2v7.5      C268.9,315.9,268.4,316.5,267.8,316.5z" fill="#244964"/></g><g><path d="M279.5,316.5c-0.6,0-1.2-0.5-1.2-1.2v-7.5c0-0.6,0.5-1.2,1.2-1.2c0.6,0,1.2,0.5,1.2,1.2v7.5      C280.7,315.9,280.2,316.5,279.5,316.5z" fill="#244964"/></g><g><path d="M291.3,316.5c-0.6,0-1.2-0.5-1.2-1.2v-7.5c0-0.6,0.5-1.2,1.2-1.2c0.6,0,1.2,0.5,1.2,1.2v7.5      C292.4,315.9,291.9,316.5,291.3,316.5z" fill="#244964"/></g><g><path d="M233.9,119.1c-0.6,0-1.2-0.5-1.2-1.2v-7.5c0-0.6,0.5-1.2,1.2-1.2c0.6,0,1.2,0.5,1.2,1.2v7.5      C235.1,118.6,234.5,119.1,233.9,119.1z" fill="#244964"/></g><g><path d="M244.9,119.1c-0.6,0-1.2-0.5-1.2-1.2v-7.5c0-0.6,0.5-1.2,1.2-1.2c0.6,0,1.2,0.5,1.2,1.2v7.5      C246.1,118.6,245.6,119.1,244.9,119.1z" fill="#244964"/></g><g><path d="M256,119.1c-0.6,0-1.2-0.5-1.2-1.2v-7.5c0-0.6,0.5-1.2,1.2-1.2c0.6,0,1.2,0.5,1.2,1.2v7.5      C257.2,118.6,256.6,119.1,256,119.1z" fill="#244964"/></g><g><path d="M267.1,119.1c-0.6,0-1.2-0.5-1.2-1.2v-7.5c0-0.6,0.5-1.2,1.2-1.2c0.6,0,1.2,0.5,1.2,1.2v7.5      C268.2,118.6,267.7,119.1,267.1,119.1z" fill="#244964"/></g><g><path d="M278.1,119.1c-0.6,0-1.2-0.5-1.2-1.2v-7.5c0-0.6,0.5-1.2,1.2-1.2c0.6,0,1.2,0.5,1.2,1.2v7.5      C279.3,118.6,278.8,119.1,278.1,119.1z" fill="#244964"/></g><g><path d="M189.6,411.5c-0.6,0-1.2-0.5-1.2-1.2v-13.2c0-0.6,0.5-1.2,1.2-1.2s1.2,0.5,1.2,1.2v13.2      C190.8,411,190.2,411.5,189.6,411.5z" fill="#244964"/></g><g><path d="M201.7,411.5c-0.6,0-1.2-0.5-1.2-1.2v-13.2c0-0.6,0.5-1.2,1.2-1.2c0.6,0,1.2,0.5,1.2,1.2v13.2      C202.8,411,202.3,411.5,201.7,411.5z" fill="#244964"/></g><g><path d="M213.7,411.5c-0.6,0-1.2-0.5-1.2-1.2v-13.2c0-0.6,0.5-1.2,1.2-1.2c0.6,0,1.2,0.5,1.2,1.2v13.2      C214.9,411,214.4,411.5,213.7,411.5z" fill="#244964"/></g><g><path d="M225.8,411.5c-0.6,0-1.2-0.5-1.2-1.2v-13.2c0-0.6,0.5-1.2,1.2-1.2c0.6,0,1.2,0.5,1.2,1.2v13.2      C227,411,226.5,411.5,225.8,411.5z" fill="#244964"/></g><g><path d="M237.9,411.5c-0.6,0-1.2-0.5-1.2-1.2v-13.2c0-0.6,0.5-1.2,1.2-1.2s1.2,0.5,1.2,1.2v13.2      C239.1,411,238.5,411.5,237.9,411.5z" fill="#244964"/></g><g><path d="M250,411.5c-0.6,0-1.2-0.5-1.2-1.2v-13.2c0-0.6,0.5-1.2,1.2-1.2c0.6,0,1.2,0.5,1.2,1.2v13.2      C251.1,411,250.6,411.5,250,411.5z" fill="#244964"/></g><g><path d="M262,411.5c-0.6,0-1.2-0.5-1.2-1.2v-13.2c0-0.6,0.5-1.2,1.2-1.2c0.6,0,1.2,0.5,1.2,1.2v13.2      C263.2,411,262.7,411.5,262,411.5z" fill="#244964"/></g><g><path d="M274.1,411.5c-0.6,0-1.2-0.5-1.2-1.2v-13.2c0-0.6,0.5-1.2,1.2-1.2c0.6,0,1.2,0.5,1.2,1.2v13.2      C275.3,411,274.8,411.5,274.1,411.5z" fill="#244964"/></g><g><path d="M286.2,411.5c-0.6,0-1.2-0.5-1.2-1.2v-13.2c0-0.6,0.5-1.2,1.2-1.2c0.6,0,1.2,0.5,1.2,1.2v13.2      C287.3,411,286.8,411.5,286.2,411.5z" fill="#244964"/></g><g><path d="M298.3,411.5c-0.6,0-1.2-0.5-1.2-1.2v-13.2c0-0.6,0.5-1.2,1.2-1.2c0.6,0,1.2,0.5,1.2,1.2v13.2      C299.4,411,298.9,411.5,298.3,411.5z" fill="#244964"/></g><g><path d="M310.3,411.5c-0.6,0-1.2-0.5-1.2-1.2v-13.2c0-0.6,0.5-1.2,1.2-1.2c0.6,0,1.2,0.5,1.2,1.2v13.2      C311.5,411,311,411.5,310.3,411.5z" fill="#244964"/></g><g><path d="M322.4,411.5c-0.6,0-1.2-0.5-1.2-1.2v-13.2c0-0.6,0.5-1.2,1.2-1.2c0.6,0,1.2,0.5,1.2,1.2v13.2      C323.6,411,323,411.5,322.4,411.5z" fill="#244964"/></g><g><path d="M289.8,334.7h-67.6c-3.7,0-6.7-3.1-6.7-6.9v-9.5h81v9.5C296.5,331.6,293.5,334.7,289.8,334.7z       M220.1,323v4.9c0,1.2,0.9,2.2,2.1,2.2h67.6c1.1,0,2.1-1,2.1-2.2V323H220.1z" fill="#244964"/></g><g><rect fill="#244964" height="4.7" width="27.8" x="217.8" y="318.3"/></g><g><path d="M233.4,380.1h-37.1l1.2-3.2c6.8-18,12.8-37.1,17.8-56.9l0.5-1.8h4.3v9.5c0,1.2,0.9,2.2,2.1,2.2h23.7      l-0.7,2.9c-3.1,13.3-6.9,28.6-11.3,45.4L233.4,380.1z M203.1,375.4h26.8c3.9-15,7.4-28.6,10.2-40.7h-17.8c-2.1,0-4-1-5.2-2.5      C212.8,347.1,208.2,361.6,203.1,375.4z" fill="#244964"/></g><g><path d="M315.6,380.1h-37.1l-0.5-1.7c-4.5-16.9-8.3-32.2-11.3-45.4l-0.7-2.9h23.7c1.1,0,2.1-1,2.1-2.2V323h-25.5      v-4.7h30.1v1.4l0.1,0.4c5.1,19.8,11.1,38.9,17.8,56.9L315.6,380.1z M282.2,375.4h26.8c-5.1-13.8-9.8-28.3-13.9-43.2      c-1.2,1.5-3.1,2.5-5.2,2.5H272C274.8,346.8,278.2,360.5,282.2,375.4z" fill="#244964"/></g></g></g><g><g><g><path d="M278.6,91.9v6.9c2.6-0.3,5.4-0.2,7.5,1.3c0.8,0.6,1.4,1.5,1.5,2.5c95.5,15.2,168.8,98.1,168.8,197.8      c0,110.4-89.9,200.3-200.3,200.3c-110.4,0-200.3-89.9-200.3-200.3c0-100.2,73.9-183.3,170-198c0.1-1.3,0.9-2.7,2.2-2.9      c2-0.3,4-0.6,6-0.7v-7C128.7,103,46.4,192.2,46.4,300.4C46.4,416,140.4,510,256,510c115.6,0,209.6-94,209.6-209.6      C465.6,192.4,383.6,103.2,278.6,91.9z" fill="#244964"/></g></g></g></g></svg>