<?xml version="1.0" ?><!DOCTYPE svg  PUBLIC '-//W3C//DTD SVG 1.1//EN'  'http://www.w3.org/Graphics/SVG/1.1/DTD/svg11.dtd'><svg enable-background="new 0 0 180 180" id="Layer_1" version="1.1" viewBox="0 0 180 180" xml:space="preserve" xmlns="http://www.w3.org/2000/svg" xmlns:xlink="http://www.w3.org/1999/xlink"><g><circle cx="90" cy="90" fill="#A5D9EB" r="64"/><path d="M154,90c0,2.3-0.1,4.5-0.4,6.7c-0.3,3-0.8,5.9-1.5,8.7c-0.1,0.4-0.2,0.8-0.3,1.2c0,0,0,0.1,0,0.1   c-0.1,0.3-0.1,0.5-0.2,0.7c-0.4,1.4-0.8,2.8-1.3,4.1c-0.2,0.7-0.5,1.3-0.8,2c-0.6,1.5-1.2,2.9-1.9,4.3c-0.3,0.7-0.7,1.3-1,2   c-0.7,1.4-1.5,2.7-2.3,4c-0.4,0.6-0.8,1.3-1.3,1.9c-1.5,2.3-3.2,4.4-5,6.5c-0.4,0.4-0.7,0.8-1.1,1.2c-2,2.1-4.1,4.1-6.3,6   c-0.8,0.7-1.7,1.4-2.6,2c-2.6,1.9-5.4,3.7-8.3,5.2c-1.3,0.7-2.7,1.4-4.1,2c-7.9,3.5-16.6,5.4-25.7,5.4c-14.3,0-27.5-4.7-38.1-12.6   c-0.9-0.6-1.7-1.3-2.6-2c-4.8-3.9-8.9-8.5-12.4-13.7c-0.4-0.7-0.9-1.3-1.3-2c-0.8-1.3-1.6-2.6-2.3-3.9c-0.3-0.7-0.7-1.3-1-2   c-0.7-1.4-1.3-2.8-1.9-4.3c-0.3-0.7-0.5-1.3-0.8-2c-0.5-1.4-0.9-2.7-1.3-4.1c-0.1-0.2-0.1-0.5-0.2-0.7c-0.1-0.4-0.2-0.8-0.3-1.2   c0,0,0-0.1,0-0.1c-1.2-4.9-1.9-9.9-1.9-15.2V90c0-15.2,5.3-29.1,14.1-40.1c0.4-0.5,0.8-1,1.2-1.4c0.2-0.3,0.5-0.6,0.8-0.9   c0.6-0.6,1.2-1.3,1.8-1.9c0.3-0.3,0.5-0.6,0.8-0.9c0,0,0,0,0.1-0.1c0.3-0.3,0.6-0.6,0.9-0.9c0.6-0.6,1.2-1.1,1.8-1.7   c0.3-0.3,0.6-0.5,0.9-0.8c0.3-0.3,0.6-0.5,1-0.8C60.3,31.5,74.5,26,90,26c15.5,0,29.7,5.5,40.8,14.6c0.3,0.3,0.6,0.5,1,0.8   c0.3,0.3,0.6,0.5,0.9,0.8c0.6,0.5,1.2,1.1,1.8,1.7c0.3,0.3,0.6,0.6,0.9,0.9c0,0,0.1,0.1,0.1,0.1c0.3,0.3,0.6,0.6,0.8,0.9   c0.6,0.6,1.2,1.3,1.8,1.9c0.3,0.3,0.5,0.6,0.8,0.9c0.4,0.5,0.8,0.9,1.2,1.4C148.7,60.9,154,74.8,154,90z" fill="#A5D9EB"/><path d="M90,23c-36.9,0-67,30.1-67,67c0,3.6,0.3,7.2,0.8,10.6c0,0.1,0,0.2,0,0.3l0,0.1l0.1,0.3l0.1,0.4   c0,0.2,0.1,0.3,0.1,0.5l0.2,1c1.2,6.2,3.3,12.2,6.3,17.8l0.2,0.5l0.2,0.2c0,0,0.2,0.3,0.2,0.4l0.1,0.3l0.2,0.2   c0.1,0.3,0.3,0.5,0.4,0.7C43.7,144.1,66,157,90,157c24,0,46.3-12.9,58.1-33.7c0.2-0.3,0.3-0.5,0.5-0.8l0.2-0.2l0.1-0.3   c0.1-0.1,0.3-0.5,0.3-0.5l0.2-0.2l0.1-0.4c1.2-2.3,2.3-4.8,3.3-7.4c0.2-0.7,0.5-1.4,0.7-2c0-0.1,0.2-0.5,0.2-0.5   c0.1-0.3,0.2-0.7,0.3-1l0.2-0.5c0.1-0.3,0.2-0.6,0.3-0.9l0.1-0.4l0-0.1l0.1-0.5c0-0.1,0.1-0.2,0.1-0.3c0-0.1,0.1-0.2,0.1-0.4   c1.4-5.5,2.2-11.2,2.2-17C157,53.1,126.9,23,90,23z M151.9,106.3c0,0.1,0,0.2-0.1,0.3c0,0.1,0,0.1-0.1,0.2   c-0.1,0.2-0.1,0.3-0.1,0.5c0,0.1-0.1,0.2-0.1,0.3c-0.1,0.3-0.2,0.7-0.3,1c-0.1,0.2-0.1,0.4-0.2,0.6c-0.1,0.3-0.2,0.7-0.3,1   c0,0.1-0.1,0.2-0.1,0.3c-0.2,0.7-0.5,1.3-0.7,2c-0.9,2.5-2,4.9-3.3,7.2c0,0,0,0,0,0c-0.1,0.2-0.2,0.3-0.2,0.5   c-0.1,0.2-0.2,0.3-0.3,0.5c0,0,0,0,0,0c-0.2,0.3-0.4,0.7-0.6,1C134.5,141,113.8,154,90,154s-44.5-13-55.5-32.2   c-0.2-0.3-0.4-0.7-0.6-1c0,0,0,0,0,0c-0.1-0.2-0.2-0.3-0.3-0.5c-0.1-0.2-0.2-0.3-0.3-0.5c0,0,0,0,0,0c-2.8-5.3-4.9-11.1-6.1-17.1   c-0.1-0.3-0.1-0.7-0.2-1c0-0.2-0.1-0.3-0.1-0.4c0-0.2-0.1-0.3-0.1-0.5c0,0,0,0,0-0.1c0-0.2,0-0.3-0.1-0.4C26.3,96.9,26,93.5,26,90   c0-35.3,28.6-64,64-64c35.3,0,64,28.7,64,64C154,95.6,153.3,101.1,151.9,106.3z" fill="#244964"/><path d="M89.9,34.9c0.2,0,0.4,0,0.5,0.1c0,0,0,0,0-0.1c0-1.7,1.4-3.1,3.1-3.1c0.7,0,1.3,0.2,1.8,0.6   c0.6-1.6,2.2-2.7,3.9-2.7c2.3,0,4.2,1.9,4.2,4.2c0,0.4-0.1,0.8-0.2,1.2c0.3-0.1,0.7-0.2,1-0.2c1.7,0,3.1,1.4,3.1,3.1   c0,1.7-1.4,3.1-3.1,3.1H89.9c-1.7,0-3.1-1.4-3.1-3.1C86.8,36.3,88.2,34.9,89.9,34.9z" fill="#FFFFFF"/><path d="M85.8,78.6c-0.1,0-0.2,0-0.3,0c0,0,0,0,0,0c0-1-0.8-1.9-1.9-1.9c-0.4,0-0.8,0.1-1.1,0.4   c-0.4-0.9-1.3-1.6-2.4-1.6c-1.4,0-2.6,1.1-2.6,2.6c0,0.2,0,0.5,0.1,0.7c-0.2-0.1-0.4-0.1-0.6-0.1c-1,0-1.9,0.8-1.9,1.9   c0,1,0.8,1.9,1.9,1.9h8.7c1,0,1.9-0.8,1.9-1.9C87.7,79.4,86.9,78.6,85.8,78.6z" fill="#FFFFFF"/><path d="M146.2,76.5c-0.1,0-0.2,0-0.3,0c0,0,0,0,0,0c0-1-0.8-1.9-1.9-1.9c-0.4,0-0.8,0.1-1.1,0.4   c-0.4-0.9-1.3-1.6-2.4-1.6c-1.4,0-2.6,1.1-2.6,2.6c0,0.2,0,0.5,0.1,0.7c-0.2-0.1-0.4-0.1-0.6-0.1c-1,0-1.9,0.8-1.9,1.9   c0,1,0.8,1.9,1.9,1.9h8.7c1,0,1.9-0.8,1.9-1.9C148.1,77.3,147.3,76.5,146.2,76.5z" fill="#FFFFFF"/><path d="M153.6,96.7c-0.3,3-0.8,5.9-1.5,8.7c-0.1,0.4-0.2,0.8-0.3,1.2l-123.9-1.1c0,0,0-0.1,0-0.1   c-1.2-4.9-1.9-9.9-1.9-15.2l24.4-11.1l27.2,14.2l29.3-16.5L153.6,96.7z" fill="#9BC0C6"/><path d="M146.6,119.8c-0.7,1.4-1.5,2.7-2.3,4c-0.4,0.6-0.8,1.3-1.3,1.9c-1.5,2.3-3.2,4.4-5,6.5   c-0.4,0.4-0.7,0.8-1.1,1.2c-2,2.1-4.1,4.1-6.3,6c-0.8,0.7-1.7,1.4-2.6,2c-2.6,1.9-5.4,3.7-8.3,5.2c-1.3,0.7-2.7,1.4-4.1,2   c-7.9,3.5-16.6,5.4-25.7,5.4c-14.3,0-27.5-4.7-38.1-12.6c-0.9-0.6-1.7-1.3-2.6-2c-4.8-3.9-8.9-8.5-12.4-13.7   c-0.4-0.7-0.9-1.3-1.3-2c-0.8-1.3-1.6-2.6-2.3-3.9c-0.3-0.7-0.7-1.3-1-2c-0.7-1.4-1.3-2.8-1.9-4.3c-0.3-0.7-0.5-1.3-0.8-2   c-0.5-1.4-0.9-2.7-1.3-4.1c-0.1-0.2-0.1-0.5-0.2-0.7h123.6c-0.1,0.3-0.1,0.5-0.2,0.7c-0.4,1.4-0.8,2.8-1.3,4.1   c-0.2,0.7-0.5,1.3-0.8,2c-0.6,1.5-1.2,2.9-1.9,4.3C147.3,118.5,147,119.1,146.6,119.8z" fill="#389DC1"/><rect fill="#96D0E0" height="2" width="37.3" x="55.8" y="117.8"/><rect fill="#96D0E0" height="2" width="5.6" x="97.2" y="117.8"/><rect fill="#96D0E0" height="2" width="11.6" x="107" y="117.8"/><rect fill="#96D0E0" height="2" width="6.9" x="123.2" y="117.8"/><path d="M147.7,117.8c-0.3,0.7-0.7,1.3-1,2H137v-2H147.7z" fill="#96D0E0"/><rect fill="#96D0E0" height="2" width="5" x="45.4" y="117.8"/><path d="M41,117.8v2h-7.6c-0.3-0.7-0.7-1.3-1-2H41z" fill="#96D0E0"/><rect fill="#96D0E0" height="2" width="37.3" x="96.6" y="123.7"/><rect fill="#96D0E0" height="2" width="5.6" x="87" y="123.7"/><rect fill="#96D0E0" height="2" width="11.6" x="71.1" y="123.7"/><rect fill="#96D0E0" height="2" width="6.9" x="59.7" y="123.7"/><path d="M52.8,123.7v2H36.9c-0.4-0.7-0.9-1.3-1.3-2H52.8z" fill="#96D0E0"/><path d="M144.3,123.7L144.3,123.7c-0.4,0.7-0.8,1.4-1.3,2h-3.7v-2H144.3z" fill="#96D0E0"/><path d="M134.6,63.8l0,9c-4.4,0.1-8.8,0.1-13.2,0.2c-2.5,0-5,0.1-7.5,0.1c-15.9,0.1-31.8,0.1-47.6,0   c-2.5,0-5,0-7.5-0.1c-4.4,0-8.8-0.1-13.2-0.2c0-3,0-6,0-9c4.4,0.8,8.8,1.4,13.2,2c2.5,0.3,5,0.6,7.5,0.8c6.6,0.6,13.2,1,19.8,1.1   v2.5h8.1v-2.5c6.6-0.1,13.2-0.5,19.8-1.1c2.5-0.2,5-0.5,7.5-0.8C125.8,65.2,130.2,64.5,134.6,63.8z" fill="#C12D25"/><path d="M94.4,67.6c14.4-0.2,28.8-1.7,42.9-4.4L94.4,67.6z" fill="#C12D25"/><path d="M42.7,63.3c14.2,2.7,28.5,4.1,42.9,4.4L42.7,63.3z" fill="#C12D25"/><path d="M75.2,130H49.6c0,0,5.4-5.9,5.4-12.6v-15.6c0-1.2,0.1-2.3,0.3-3.5l2.4-12.3h1.4v24l-1.3,19.3H67l-1.3-19.3   v-24h1.4l2.4,12.3c0.2,1.1,0.3,2.3,0.3,3.5v15.6C69.8,124.1,75.2,130,75.2,130z" fill="#B2221F"/><path d="M66.2,60.9v5.7c-2.5-0.2-5-0.5-7.5-0.8v-5.4C61.2,60.6,63.7,60.7,66.2,60.9z" fill="#C12D25"/><path d="M66.2,80.7l-3.8-1.8l-3.8,1.8c0-0.4,0-0.8,0-1.2v-6.5c2.5,0,5,0.1,7.5,0.1v6.4   C66.2,79.9,66.2,80.3,66.2,80.7z" fill="#B2221F"/><polygon fill="#C12D25" points="67,129.5 57.8,129.5 59.1,110.1 59.1,86.1 65.7,86.1 65.7,110.1  "/><rect fill="#C12D25" height="3.7" width="12.1" x="56.4" y="82.3"/><polygon fill="#3A3232" points="69.8,82.3 55,82.3 58.6,80.7 62.4,78.9 66.2,80.7  "/><path d="M130.4,130h-25.6c0,0,5.4-5.9,5.4-12.6v-15.6c0-1.2,0.1-2.3,0.3-3.5l2.4-12.3h1.4v24l-1.3,19.3h9.2   l-1.3-19.3v-24h1.4l2.4,12.3c0.2,1.1,0.3,2.3,0.3,3.5v15.6C125,124.1,130.4,130,130.4,130z" fill="#B2221F"/><path d="M121.4,80.7l-3.8-1.8l-3.8,1.8c0-0.4,0-0.8,0-1.2V73c2.5,0,5,0,7.5-0.1v6.5   C121.4,79.9,121.4,80.3,121.4,80.7z" fill="#B2221F"/><path d="M121.4,60.4v5.4c-2.5,0.3-5,0.6-7.5,0.8v-5.7C116.3,60.7,118.8,60.6,121.4,60.4z" fill="#C12D25"/><polygon fill="#C12D25" points="122.2,129.5 113,129.5 114.3,110.1 114.3,86.1 120.9,86.1 120.9,110.1  "/><rect fill="#C12D25" height="3.7" width="12.1" x="111.5" y="82.3"/><polygon fill="#3A3232" points="125,82.3 110.2,82.3 113.8,80.7 117.6,78.9 121.4,80.7  "/><path d="M136.5,53.9c0.2,1.7,0.4,3.3,0.6,5c-5.3,0.6-10.5,1.1-15.8,1.5c-2.5,0.2-5,0.4-7.5,0.5   c-6.6,0.4-13.2,0.6-19.8,0.7v-3.1h-8.1v3.1c-6.6-0.1-13.2-0.3-19.8-0.7c-2.5-0.1-5-0.3-7.5-0.5c-5.3-0.4-10.5-0.9-15.8-1.5   c0.2-1.7,0.4-3.3,0.6-5c-1-0.2-1.9-0.3-2.8-0.5c0.2-1.6,0.4-3.3,0.7-4.9c3.5,0.7,7,1.3,10.5,1.8c0.9,0.1,1.7,0.3,2.6,0.4   c7.7,1.1,15.4,1.7,23.1,2.1c0,0.6,0,1.2-0.1,1.9c8.4,0.3,16.8,0.3,25.2,0c0-0.6,0-1.2-0.1-1.9c6.9-0.3,13.7-0.9,20.6-1.7   c0.8-0.1,1.7-0.2,2.6-0.3c0.8-0.1,1.7-0.2,2.6-0.4c0.8-0.1,1.7-0.3,2.6-0.4c0.8-0.1,1.7-0.3,2.6-0.4c1.8-0.3,3.6-0.6,5.3-1   c0.2,1.6,0.4,3.3,0.7,4.9C138.4,53.6,137.5,53.8,136.5,53.9z" fill="#C12D25"/><path d="M149.9,41.2c-39.4,11.2-80.3,11.2-119.7,0c0.2-1.5,0.5-2.9,0.7-4.4c38.9,12.3,79.4,12.3,118.3,0   C149.4,38.3,149.6,39.7,149.9,41.2z" fill="#60BC5B"/><path d="M142.9,43.2c0.2,1.4,0.4,2.8,0.6,4.3c-13.6,3.2-27.3,4.7-41,5.3c0,0.6,0,1.2,0.1,1.9   c-8.4,0.3-16.8,0.3-25.2,0c0-0.6,0-1.2,0.1-1.9c-13.7-0.6-27.5-2.2-41-5.3c0.2-1.4,0.4-2.9,0.6-4.3C72,51.7,108,51.7,142.9,43.2z" fill="#328430"/><rect fill="#3A3232" height="11.8" width="8.1" x="85.9" y="58.4"/><rect fill="#96D0E0" height="2" width="37.3" x="55.8" y="132.2"/><rect fill="#96D0E0" height="2" width="5.6" x="97.2" y="132.2"/><rect fill="#96D0E0" height="2" width="11.6" x="107" y="132.2"/><rect fill="#96D0E0" height="2" width="6.9" x="123.2" y="132.2"/><path d="M138.1,132.2c-0.4,0.4-0.7,0.8-1.1,1.2v-1.2H138.1z" fill="#96D0E0"/><rect fill="#96D0E0" height="2" width="5" x="45.4" y="132.2"/><rect fill="#96D0E0" height="2" width="37.3" x="71.4" y="139.4"/><rect fill="#96D0E0" height="2" width="5.6" x="61.8" y="139.4"/><path d="M57.6,139.4v2h-5.7c-0.9-0.6-1.7-1.3-2.6-2H57.6z" fill="#96D0E0"/><rect fill="#96D0E0" height="2" width="5" x="114.2" y="139.4"/><path d="M130.7,139.4c-0.8,0.7-1.7,1.4-2.6,2h-4.5v-2H130.7z" fill="#96D0E0"/><path d="M119.9,146.6c-1.3,0.7-2.7,1.4-4.1,2h-12.7v-2H119.9z" fill="#96D0E0"/><rect fill="#96D0E0" height="2" width="5.6" x="93.5" y="146.6"/><rect fill="#96D0E0" height="2" width="11.6" x="77.6" y="146.6"/><rect fill="#96D0E0" height="2" width="6.9" x="66.2" y="146.6"/><path d="M131.1,129.3c0,0-1.3-1.4-2.6-3.6c-0.4-0.6-0.7-1.3-1-2c-0.6-1.2-1-2.5-1.3-3.9c-0.1-0.6-0.2-1.3-0.2-2   c0-0.1,0-0.3,0-0.4v-3.9h-2v3.9c0,0.1,0,0.3,0,0.4c0,0.7,0.1,1.4,0.2,2c0.2,1.4,0.6,2.7,1.1,3.9c0.3,0.7,0.6,1.4,1,2   c0.7,1.3,1.4,2.4,2,3.3h-5.1l-0.2-3.3l-0.1-2h-2l0.1,2l0.2,2.7h-7.1l0.2-2.7l0.1-2l0.3-3.9h-2l-0.3,3.9l-0.1,2L112,129h-5.1   c0.6-0.8,1.4-1.9,2-3.3c0.3-0.6,0.6-1.3,1-2c0.5-1.2,0.9-2.5,1.1-3.9c0.1-0.6,0.2-1.3,0.2-2c0-0.1,0-0.3,0-0.4v-3.9h-2v3.9   c0,0.1,0,0.3,0,0.4c0,0.7-0.1,1.4-0.2,2c-0.3,1.4-0.8,2.7-1.3,3.9c-0.3,0.7-0.7,1.4-1.1,2c-1.3,2.2-2.5,3.6-2.6,3.6l-1.5,1.7h30.2   L131.1,129.3z M73.4,125.7c-0.4-0.6-0.7-1.3-1-2c-0.6-1.2-1-2.5-1.3-3.9c-0.1-0.6-0.2-1.3-0.2-2c0-0.1,0-0.3,0-0.4v-3.9h-2v3.9   c0,0.1,0,0.3,0,0.4h1c0,0.7,0.1,1.4,0.2,2c0.3,1.4,0.7,2.7,1.2,3.9c0.3,0.7,0.6,1.4,1,2c1.4,2.6,3,4.3,3,4.3H49.6   c0,0,1.5-1.7,3-4.3h-1.2c-1.3,2.2-2.5,3.6-2.6,3.6l-1.5,1.7h30.2l-1.5-1.7C75.9,129.3,74.7,127.9,73.4,125.7z M112.6,119.8   l-0.3,3.9h2l0.3-3.9H112.6z M58.9,113.5l-0.3,4.3h1l0.3-4.3H58.9z M126,105.4v-3.5c0-1.2-0.1-2.5-0.4-3.7l-2.1-11.1h1.1v-3.7h4.8   l-7.1-3.3c0-0.2,0-0.4,0-0.6v-5.5c3.9,0,7.8-0.1,11.8-0.2l1.5,0l0-9.1c0.6-0.1,1.3-0.2,1.9-0.4l-0.2-1l-0.2-1   c-1.5,0.3-2.9,0.5-4.4,0.8c-0.4,0.1-0.9,0.2-1.3,0.2c-1.4,0.2-2.9,0.5-4.3,0.7c-0.5,0.1-0.9,0.1-1.3,0.2c-1.1,0.2-2.3,0.3-3.4,0.5   v-3.3c4.9-0.4,9.9-0.8,14.9-1.4l1-0.1l-0.1-1c-0.2-1.4-0.3-2.7-0.5-4c0.6-0.1,1.3-0.2,1.9-0.3l0.9-0.2l-0.6-4.3l-0.1-0.6   c1.3-0.3,2.7-0.6,4-0.9l0.9-0.2l-0.6-4.4c2-0.5,4.1-1.1,6.1-1.6l0.9-0.2l-1-6.4l-1.1,0.4c-6,1.9-12,3.5-18.1,4.8   c-26.9,5.8-54.6,5.8-81.5,0c-6.1-1.3-12.1-2.9-18.1-4.8L30,35.5l-1,6.4l0.9,0.2c2,0.6,4.1,1.1,6.1,1.6l-0.6,4.4l0.9,0.2   c1.3,0.3,2.6,0.6,4,0.9c0,0.2-0.1,0.4-0.1,0.6c-0.1,1-0.3,1.9-0.4,2.9l-0.2,1.4l1,0.2c0.6,0.1,1.3,0.2,1.9,0.3   c-0.2,1.3-0.3,2.7-0.5,4l-0.1,1l1,0.1c4.8,0.5,9.8,1,14.9,1.4v3.3c-1.1-0.1-2.3-0.3-3.4-0.5c-0.5-0.1-0.9-0.1-1.4-0.2   c-1.4-0.2-2.8-0.4-4.2-0.7c-0.5-0.1-1.1-0.2-1.6-0.3c-1.4-0.2-2.8-0.5-4.2-0.8l-0.2,1l-0.2,1c0.6,0.1,1.3,0.2,1.9,0.4   c0,2.6,0,5.2,0,7.8l0,1.4l1.5,0c3.9,0.1,7.8,0.1,11.8,0.2v5.5c0,0.2,0,0.4,0,0.6l-7.1,3.3h4.8v3.7h1.1l-2.1,11.1   c-0.2,1.2-0.3,2.5-0.3,3.7v3.5H27.9c0.1,0.4,0.2,0.9,0.3,1.3c0.1,0.3,0.1,0.5,0.2,0.7H54v10c0,2.3-0.7,4.5-1.5,6.3   c-0.3,0.7-0.7,1.4-1.1,2c-1.3,2.2-2.5,3.6-2.6,3.6l-1.5,1.7h30.2l-1.5-1.7c0,0-1.3-1.4-2.6-3.6c-0.4-0.6-0.7-1.3-1-2   c-0.6-1.2-1-2.5-1.3-3.9c-0.1-0.6-0.2-1.3-0.2-2c0-0.1,0-0.3,0-0.4v-10h38.4v10c0,0.1,0,0.3,0,0.4c0,0.7-0.1,1.4-0.2,2   c-0.3,1.4-0.8,2.7-1.3,3.9c-0.3,0.7-0.7,1.4-1.1,2c-1.3,2.2-2.5,3.6-2.6,3.6l-1.5,1.7h30.2l-1.5-1.7c0,0-1.3-1.4-2.6-3.6   c-0.4-0.6-0.7-1.3-1-2c-0.6-1.2-1-2.5-1.3-3.9c-0.1-0.6-0.2-1.3-0.2-2c0-0.1,0-0.3,0-0.4v-10h25.6c0.1-0.2,0.1-0.5,0.2-0.7   c0.1-0.4,0.2-0.8,0.3-1.3H126z M124,117.4c0,0.1,0,0.3,0,0.4c0,0.7,0.1,1.4,0.2,2c0.2,1.4,0.6,2.7,1.1,3.9c0.3,0.7,0.6,1.4,1,2   c0.7,1.3,1.4,2.4,2,3.3h-5.1l-0.2-3.3l-0.1-2l-0.7-10.2l-0.1-2l-0.1-1.4v-21l1.8,9.4c0.2,1.1,0.3,2.2,0.3,3.3V117.4z M109.9,123.7   c0.5-1.2,0.9-2.5,1.1-3.9c0.1-0.6,0.2-1.3,0.2-2c0-0.1,0-0.3,0-0.4v-15.6c0-1.1,0.1-2.2,0.3-3.3l1.8-9.4V110l-0.1,1.5l-0.1,2   l-0.3,4.3l-0.1,2l-0.3,3.9l-0.1,2L112,129h-5.1c0.6-0.8,1.4-1.9,2-3.3C109.3,125.1,109.6,124.5,109.9,123.7z M68.8,117.4   c0,0.1,0,0.3,0,0.4c0,0.7,0.1,1.4,0.2,2c0.6,3.9,2.7,7.3,4.1,9.2H68l-0.6-9.2l-0.1-2l-0.3-4.3l-0.1-2l-0.1-1.4v-21l1.8,9.4   c0.2,1.1,0.3,2.2,0.3,3.3V117.4z M55.8,119.8L55.8,119.8c0.1-0.7,0.2-1.3,0.2-2c0-0.1,0-0.3,0-0.4v-15.6c0-1.1,0.1-2.2,0.3-3.3   l1.8-9.4V110l-0.1,1.5l-0.1,2l-0.3,4.3l-0.1,2l-0.6,9.2h-5.2C53.1,127.1,55.2,123.7,55.8,119.8z M31.7,38.1   c5.2,1.6,10.4,3,15.7,4.2c28.1,6.3,57.1,6.3,85.3,0c5.3-1.2,10.5-2.6,15.7-4.2l0.4,2.4c-4.7,1.3-9.5,2.5-14.3,3.5   c-29.3,6.1-59.6,6.1-88.9,0c-4.8-1-9.6-2.1-14.3-3.5L31.7,38.1z M37.9,44.4c2,0.5,3.9,0.9,5.9,1.3c30.7,6.5,61.7,6.5,92.4,0   c2-0.4,3.9-0.8,5.9-1.3l0.3,2.3c-1.5,0.3-2.9,0.6-4.4,1c-1.5,0.3-3,0.6-4.6,0.9c-0.1,0-0.2,0-0.2,0l-0.2,0c-0.1,0-0.2,0-0.4,0.1   c-1,0.2-2.1,0.4-3.1,0.5c-0.5,0.1-0.9,0.2-1.4,0.2c-0.2,0-0.5,0.1-0.7,0.1c-1.1,0.2-2.2,0.3-3.3,0.5c-0.3,0-0.5,0.1-0.8,0.1   c-1,0.1-1.9,0.2-2.9,0.3c-0.7,0.1-1.4,0.2-2.1,0.2c-1.5,0.2-3,0.3-4.6,0.4c-0.2,0-0.3,0-0.5,0c-3.5,0.3-7.1,0.5-10.7,0.7l-1,0v0h0   l0,1c0,0.1,0,0.2,0,0.3l0,0.6c-7.7,0.3-15.4,0.3-23.1,0l0-0.4l0.1-1.4l-1,0c-1.8-0.1-3.6-0.2-5.3-0.3c-0.1,0-0.1,0-0.2,0   c-1.7-0.1-3.3-0.2-4.9-0.4c-0.2,0-0.4,0-0.6,0c-1.5-0.1-3-0.3-4.5-0.4c-0.3,0-0.6-0.1-1-0.1c-1.4-0.1-2.7-0.3-4-0.5   c-0.5-0.1-1-0.1-1.5-0.2c-0.9-0.1-1.9-0.3-2.8-0.4c-0.3,0-0.5-0.1-0.8-0.1c-1.3-0.2-2.6-0.4-3.8-0.6c-1.8-0.3-3.5-0.6-5.3-1   c-0.2,0-0.5-0.1-0.7-0.1c0,0,0,0-0.1,0c-1.5-0.3-3-0.6-4.5-1L37.9,44.4z M65.2,61.8v3.6c-0.1,0-0.2,0-0.2,0c-0.4,0-0.9-0.1-1.3-0.1   c-1.3-0.1-2.6-0.3-4-0.4v-3.4c0.1,0,0.2,0,0.2,0c1.8,0.1,3.4,0.2,5,0.3C65,61.8,65.1,61.8,65.2,61.8z M42.8,52.8   c-0.4-0.1-0.7-0.1-1.1-0.2c0.1-1,0.3-1.9,0.4-2.9c0.9,0.2,1.8,0.4,2.8,0.5c0.3,0.1,0.6,0.1,0.9,0.2c1,0.2,2,0.3,3,0.5   c0.8,0.1,1.7,0.3,2.6,0.4c0.1,0,0.2,0,0.3,0c0.9,0.1,1.7,0.3,2.6,0.4c0.1,0,0.2,0,0.3,0c0.5,0.1,1.1,0.1,1.7,0.2   c1.3,0.2,2.5,0.3,3.8,0.5c0.3,0,0.7,0.1,1,0.1c1.5,0.1,3,0.3,4.5,0.4c0.2,0,0.3,0,0.5,0c1.7,0.2,3.3,0.3,5,0.4c0,0,0.1,0,0.1,0   c1.8,0.1,3.6,0.2,5.4,0.3l-0.1,1.9l1,0c8.4,0.3,16.9,0.3,25.3,0l1,0l0-1.3c0-0.2,0-0.4,0-0.5c1.9-0.1,3.7-0.2,5.4-0.3   c0.2,0,0.4,0,0.6-0.1c1.5-0.1,3-0.2,4.5-0.4c0.5,0,1-0.1,1.5-0.1c1.1-0.1,2.3-0.2,3.4-0.3c0.7-0.1,1.4-0.2,2.1-0.2s1.4-0.2,2-0.2   c0.3,0,0.6-0.1,0.8-0.1c0.4-0.1,0.9-0.1,1.3-0.2c0.1,0,0.3,0,0.4-0.1c0.9-0.1,1.7-0.2,2.6-0.4c0.1,0,0.2,0,0.3,0   c0.6-0.1,1.3-0.2,1.9-0.3c0.1,0,0.3,0,0.4-0.1c0.8-0.1,1.6-0.3,2.4-0.4l0.2,0c0.2,0,0.4-0.1,0.6-0.1c0.2,0,0.4-0.1,0.6-0.1   c1.1-0.2,2.2-0.4,3.2-0.6l0.4,2.9c-0.6,0.1-1.2,0.2-1.8,0.3l-1,0.2l0.2,1.5c0.2,1.2,0.3,2.3,0.4,3.5c-5,0.5-9.9,1-14.8,1.4   c-0.7,0-1.3,0.1-2,0.1c-1.9,0.1-3.8,0.3-5.5,0.4c-6.4,0.4-12.7,0.6-18.7,0.6v-3.1H84.9v3.1c-6-0.1-12.3-0.3-18.7-0.6   c-2.4-0.1-4.8-0.3-7.5-0.5C53.7,59,48.7,58.5,44,58c0.2-1.3,0.3-2.6,0.5-4l0.1-1L42.8,52.8z M112.8,65.6c-0.1,0-0.3,0-0.4,0   c-1,0.1-2,0.2-3.1,0.3c-0.6,0-1.2,0.1-1.8,0.1c-1.1,0.1-2.2,0.1-3.3,0.2c-0.6,0-1.1,0.1-1.7,0.1c-1.1,0-2.3,0.1-3.4,0.1   c-0.5,0-1,0-1.5,0c-0.9,0-1.7,0.1-2.6,0.1v-4.1c5.7-0.1,11.7-0.3,17.8-0.6V65.6z M93.1,59.4v9.8h-6.1v-9.8H93.1z M84.9,62.5v4.1   c-0.8,0-1.7,0-2.6-0.1c-0.5,0-1,0-1.5,0c-1.1,0-2.3-0.1-3.4-0.1c-0.6,0-1.1-0.1-1.7-0.1c-1.1-0.1-2.2-0.1-3.3-0.2   c-0.6,0-1.2-0.1-1.8-0.1c-1-0.1-2-0.2-3-0.3c-0.1,0-0.3,0-0.4,0v-3.7C73.3,62.3,79.2,62.5,84.9,62.5z M120.3,64.9   C120.3,64.9,120.3,64.9,120.3,64.9c-1.3,0.2-2.6,0.3-3.9,0.4c-0.5,0-0.9,0.1-1.4,0.1c-0.1,0-0.1,0-0.2,0v-3.6c0.1,0,0.2,0,0.3,0   c1.6-0.1,3.2-0.2,5-0.3c0.1,0,0.2,0,0.3,0V64.9z M47.1,65.1c0.5,0.1,1,0.2,1.5,0.3c1.4,0.2,2.8,0.5,4.2,0.7c0.3,0,0.7,0.1,1,0.1   c1.3,0.2,2.5,0.4,3.8,0.5l0.2,0c0.5,0.1,1.1,0.1,1.6,0.2c1.3,0.2,2.6,0.3,3.9,0.4c0.5,0.1,0.9,0.1,1.4,0.1c0.4,0,0.9,0.1,1.3,0.1   c0,0,0,0,0,0l1.1,0.1v0c0.1,0,0.3,0,0.4,0c0.9,0.1,1.8,0.2,2.8,0.2c0.6,0.1,1.3,0.1,1.9,0.1c1.1,0.1,2.1,0.1,3.2,0.2   c0.4,0,0.9,0,1.3,0.1c2.6,0.1,5.2,0.2,7.8,0.3c0.1,0,0.3,0,0.4,0v2.5h10.1v-2.5c0.1,0,0.3,0,0.4,0c2.6-0.1,5.2-0.2,7.8-0.3   c0.4,0,0.8,0,1.3-0.1c1.1-0.1,2.1-0.1,3.2-0.2c0.6,0,1.3-0.1,1.9-0.1c0.9-0.1,1.9-0.1,2.8-0.2c0.1,0,0.3,0,0.4,0v0l1.1-0.1   c1.3-0.1,2.6-0.3,3.9-0.4h0c1.1-0.1,2.1-0.3,3.1-0.4c0.4-0.1,0.9-0.1,1.3-0.2l0.1,0c1.6-0.2,3.3-0.4,4.9-0.7   c0.4-0.1,0.8-0.1,1.3-0.2c1.5-0.2,3-0.5,4.6-0.7c0.2,0,0.3-0.1,0.5-0.1l0,6.8c-3.7,0.1-7.5,0.1-11.2,0.1v0l-1,0   c-2.5,0-5,0.1-7.5,0.1C98,72.2,82,72.2,66.2,72c-2.5,0-5,0-7.5-0.1l-1,0v0c-3.7,0-7.5-0.1-11.2-0.1c0-2.3,0-4.6,0-6.8   C46.6,65,46.9,65,47.1,65.1z M70.4,98.2l-2.1-11.1h1.1v-3.7h4.8L67.2,80c0-0.2,0-0.4,0-0.6V74c7.6,0.1,15.2,0.1,22.8,0.1   c7.6,0,15.3,0,22.8-0.1v5.4c0,0.2,0,0.4,0,0.6l-7.1,3.3h4.8v3.7h1.1l-2.1,11.1c-0.2,1.2-0.3,2.5-0.3,3.7v3.5H70.8v-3.5   C70.8,100.6,70.7,99.4,70.4,98.2z M117.6,80l2.9,1.4h-5.8L117.6,80z M114.8,79.1V74c1.9,0,3.7,0,5.5-0.1v5.1l-2.8-1.3L114.8,79.1z    M59.6,73.9c1.9,0,3.7,0,5.5,0.1v5.1l-2.8-1.3l-2.8,1.3V73.9z M62.4,80l2.9,1.4h-5.8L62.4,80z M57.4,83.3h10.1v1.7H57.4V83.3z    M64.7,110.2l0.5,7.6l0.1,2l0.3,3.9l0.1,2l0.2,2.7h-7.1l0.6-8.6l0.1-2l0.3-4.3l0.1-2l0.1-1.4v-23h4.5V110.2z M119.9,110.2l0.1,1.3   l0.1,2l0.7,10.2l0.1,2l0.2,2.7h-7.1l0.2-2.7l0.1-2l0.3-3.9l0.1-2l0.3-4.3l0.1-2l0.1-1.4v-23h4.6V110.2z M122.6,85.1h-10.1v-1.7   h10.1V85.1z" fill="#244964"/></g></svg>