<?xml version="1.0" ?><!DOCTYPE svg  PUBLIC '-//W3C//DTD SVG 1.1//EN'  'http://www.w3.org/Graphics/SVG/1.1/DTD/svg11.dtd'><svg enable-background="new 0 0 512 512" id="Layer_1" version="1.1" viewBox="0 0 512 512" xml:space="preserve" xmlns="http://www.w3.org/2000/svg" xmlns:xlink="http://www.w3.org/1999/xlink"><g><circle cx="256" cy="303.9" fill="#D0E5F6" r="200.9"/><path d="M358.5,177.6h-35.8c-1.3,0-2.3-1-2.3-2.3c0-1.3,1-2.3,2.3-2.3h35.8c1.3,0,2.3,1,2.3,2.3   C360.8,176.6,359.8,177.6,358.5,177.6z" fill="#FFFFFF"/><path d="M458,309h-35.8c-1.3,0-2.3-1-2.3-2.3s1-2.3,2.3-2.3H458c1.3,0,2.3,1,2.3,2.3S459.3,309,458,309z" fill="#FFFFFF"/><path d="M398.8,351.1h-35.8c-1.3,0-2.3-1-2.3-2.3s1-2.3,2.3-2.3h35.8c1.3,0,2.3,1,2.3,2.3S400.1,351.1,398.8,351.1z   " fill="#FFFFFF"/><path d="M166.7,247.3H131c-1.3,0-2.3-1-2.3-2.3c0-1.3,1-2.3,2.3-2.3h35.8c1.3,0,2.3,1,2.3,2.3   C169,246.3,168,247.3,166.7,247.3z" fill="#FFFFFF"/><path d="M125.5,198.7H89.7c-1.3,0-2.3-1-2.3-2.3c0-1.3,1-2.3,2.3-2.3h35.8c1.3,0,2.3,1,2.3,2.3   C127.7,197.7,126.7,198.7,125.5,198.7z" fill="#FFFFFF"/><path d="M99.4,269.4H63.6c-1.3,0-2.3-1-2.3-2.3c0-1.3,1-2.3,2.3-2.3h35.8c1.3,0,2.3,1,2.3,2.3   C101.7,268.4,100.7,269.4,99.4,269.4z" fill="#FFFFFF"/><path d="M237.2,132.2h-35.8c-1.3,0-2.3-1-2.3-2.3c0-1.3,1-2.3,2.3-2.3h35.8c1.3,0,2.3,1,2.3,2.3   C239.5,131.1,238.5,132.2,237.2,132.2z" fill="#FFFFFF"/><path d="M366.9,139.6h-35.8c-1.3,0-2.3-1-2.3-2.3c0-1.3,1-2.3,2.3-2.3h35.8c1.3,0,2.3,1,2.3,2.3   C369.2,138.6,368.2,139.6,366.9,139.6z" fill="#FFFFFF"/><path d="M213.2,211.1c-1.1-3-3.9-5.1-7.2-5.1c-0.6,0-1.2,0.1-1.7,0.2c0-0.1,0-0.1,0-0.2c0-9.8-8-17.8-17.8-17.8   c-2.7,0-5.2,0.6-7.5,1.7c-3.8-4.9-9.8-8.1-16.6-8.1c-10.6,0-19.3,7.9-20.8,18.1c0,0,0,0,0,0c-6.4,0-11.6,5-11.9,11.3H213.2z" fill="#FFFFFF"/><path d="M419.9,257.4c-1.1-3-3.9-5.1-7.2-5.1c-0.6,0-1.2,0.1-1.7,0.2c0-0.1,0-0.1,0-0.2c0-9.8-8-17.8-17.8-17.8   c-2.7,0-5.2,0.6-7.5,1.7c-3.8-4.9-9.8-8.1-16.6-8.1c-10.6,0-19.3,7.9-20.8,18.1c0,0,0,0,0,0c-6.4,0-11.6,5-11.9,11.3H419.9z" fill="#FFFFFF"/><path d="M128.4,328c-0.3-8.3-7.1-14.9-15.5-14.9c-5.9,0-11,3.3-13.7,8.1c-1.2-0.7-2.6-1-4.1-1   c-4.5,0-8.1,3.4-8.4,7.8H128.4z" fill="#FFFFFF"/><g><g><g><path d="M148.9,473.4h25.6l81.6-28.8l81.6,28.8h28.9c2.5-1.6,4.9-3.1,7.4-4.8L256,427.1L140,468      C143,469.7,145.9,471.5,148.9,473.4z" fill="#DAE0E6"/></g><g><polygon fill="#F2F4F8" points="256,427.1 365.3,465.6 365.3,414.1 146.7,414.1 146.7,465.6     "/></g><g><path d="M175.2,487.8c0.4,0.2,0.8,0.4,1.1,0.5c0.1,0,0.2,0.1,0.4,0.1c0.9,0.3,1.8,0.7,2.7,1      c9,3.5,18,6.9,27.3,9.5c2.7,0.8,5.5,1.5,8.2,2.1c1,0.2,2.1,0.4,3.1,0.6c0,0,0.6,0.1,1.1,0.2c0.8,0.1,2.5,0.3,2.7,0.3      c1.1,0.1,2.1,0.2,3.2,0.2c2.2,0.1,4.3,0.1,6.5,0.1c10.3,0.1,20.6,0.9,30.9,1.3c5.1,0.2,10.2,0.2,15.3-0.1      c2.2-0.1,4.3-0.3,6.5-0.5c1.1-0.1,2.2-0.2,3.3-0.4c0.1,0,0.3-0.1,0.5-0.1c18-4.3,35.8-9.2,53-15.9c0.8-0.3,2.3-1,2.5-1.1      c0.6-0.3,1.1-0.5,1.7-0.8c2.1-1,4.2-2,6.3-3.1c3.9-2,7.7-4.1,11.5-6.3c1.2-0.7,2.3-1.5,3.5-2.2H148.9c2.2,1.4,4.5,2.9,6.8,4.3      c4.2,2.5,8.6,4.7,13,6.9C170.8,485.7,173,486.7,175.2,487.8z" fill="#F4F6F8"/></g><g><rect fill="#F4F6F8" height="84.2" width="218.7" x="146.7" y="306.7"/></g><g><rect fill="#DAE0E6" height="9" width="218.7" x="146.7" y="306.7"/></g><g><polygon fill="#DAE0E6" points="365.3,287.4 146.7,287.4 154.7,264.9 357.3,264.9     "/></g><g><polygon fill="#F4F6F8" points="359.8,271.7 357.3,264.9 154.7,264.9 152.2,271.7     "/></g><g><rect fill="#F4F6F8" height="23.3" width="227.7" x="142.1" y="390.9"/></g><g><rect fill="#FFFFFF" height="7.8" width="227.7" x="142.1" y="390.9"/></g><g><rect fill="#DAE0E6" height="9.2" width="218.7" x="146.7" y="414.1"/></g><g><polygon fill="#FFFFFF" points="174.4,473.4 337.6,473.4 256,444.7     "/></g><g><path d="M256.7,164.4h-1.5c-55.5,0-100.4,45-100.4,100.4v0h202.3v0C357.2,209.4,312.2,164.4,256.7,164.4z" fill="#BADACF"/></g><g><path d="M256.2,164.4h-0.9c-55.5,0-100.4,45-100.4,100.4v0h101.4V164.4z" fill="#7EB19A"/></g><g><path d="M256.3,164.4h-0.7c-24.7,0-44.7,45-44.7,100.4v0h90.2v0C301.1,209.4,281,164.4,256.3,164.4z" fill="#96C8B4"/></g><g><rect fill="#F4F6F8" height="55.7" width="50.6" x="230.7" y="91.7"/></g><g><rect fill="#E8E8E9" height="7.3" width="50.6" x="230.7" y="91.7"/></g><g><rect fill="#DAE0E6" height="15.1" width="64.2" x="223.9" y="76.7"/></g><g><rect fill="#F4F6F8" height="6.9" width="64.2" x="223.9" y="76.7"/></g><g><path d="M256,51.4L256,51.4c-14,0-25.3,11.3-25.3,25.3h50.6C281.3,62.7,270,51.4,256,51.4z" fill="#96C8B4"/></g><g><path d="M256,63.4L256,63.4c9.6,0,18,5.4,22.3,13.2h3.1c0-14-11.3-25.3-25.3-25.3h0c-14,0-25.3,11.3-25.3,25.3      h3.1C238,68.8,246.4,63.4,256,63.4z" fill="#BADACF"/></g><g><g><circle cx="167.8" cy="276.1" fill="#3F5A71" r="4.8"/></g><g><circle cx="197.2" cy="276.1" fill="#3F5A71" r="4.8"/></g><g><circle cx="226.6" cy="276.1" fill="#3F5A71" r="4.8"/></g><g><circle cx="256" cy="276.1" fill="#3F5A71" r="4.8"/></g><g><circle cx="285.4" cy="276.1" fill="#3F5A71" r="4.8"/></g><g><circle cx="314.8" cy="276.1" fill="#3F5A71" r="4.8"/></g><g><circle cx="344.2" cy="276.1" fill="#3F5A71" r="4.8"/></g></g><g><g><path d="M167.8,332.7L167.8,332.7c-4,0-7.3,3.2-7.3,7.3v35.5H175v-35.5C175,335.9,171.8,332.7,167.8,332.7z" fill="#3F5A71"/></g><g><path d="M197.2,332.7L197.2,332.7c-4,0-7.3,3.2-7.3,7.3v35.5h14.5v-35.5C204.4,335.9,201.2,332.7,197.2,332.7z" fill="#3F5A71"/></g><g><path d="M226.6,332.7L226.6,332.7c-4,0-7.3,3.2-7.3,7.3v35.5h14.5v-35.5C233.8,335.9,230.6,332.7,226.6,332.7z" fill="#3F5A71"/></g><g><path d="M256,332.7L256,332.7c-4,0-7.3,3.2-7.3,7.3v35.5h14.5v-35.5C263.3,335.9,260,332.7,256,332.7z" fill="#3F5A71"/></g><g><path d="M285.4,332.7L285.4,332.7c-4,0-7.3,3.2-7.3,7.3v35.5h14.5v-35.5C292.7,335.9,289.4,332.7,285.4,332.7z" fill="#3F5A71"/></g><g><path d="M314.8,332.7L314.8,332.7c-4,0-7.3,3.2-7.3,7.3v35.5h14.5v-35.5C322.1,335.9,318.8,332.7,314.8,332.7z" fill="#3F5A71"/></g><g><path d="M344.2,332.7L344.2,332.7c-4,0-7.3,3.2-7.3,7.3v35.5h14.5v-35.5C351.5,335.9,348.3,332.7,344.2,332.7z" fill="#3F5A71"/></g></g><g><path d="M255.3,164.4h1.5c14.5,0,28.3,3.1,40.7,8.6v-25.6h-82.9V173C227,167.5,240.8,164.4,255.3,164.4z" fill="#F4F6F8"/></g><g><rect fill="#FFFFFF" height="9.3" width="82.9" x="214.5" y="147.4"/></g><g><path d="M366.2,287.4H145.8c-5.3,0-9.6,4.3-9.6,9.6v0c0,5.3,4.3,9.6,9.6,9.6h220.4c5.3,0,9.6-4.3,9.6-9.6v0      C375.9,291.7,371.5,287.4,366.2,287.4z" fill="#F4F6F8"/></g><g><path d="M375.5,294.6c-1.1-4.1-4.8-7.2-9.3-7.2H145.8c-4.5,0-8.2,3-9.3,7.2H375.5z" fill="#FFFFFF"/></g><g><polygon fill="#BCC3CD" points="256,427.1 365.3,444.7 365.3,465.6     "/></g></g><g><g><path d="M366.2,309H145.8c-6.6,0-11.9-5.4-11.9-11.9c0-6.6,5.4-11.9,11.9-11.9h220.4c6.6,0,11.9,5.4,11.9,11.9      C378.2,303.6,372.8,309,366.2,309z M145.8,289.7c-4,0-7.3,3.3-7.3,7.3c0,4,3.3,7.3,7.3,7.3h220.4c4,0,7.3-3.3,7.3-7.3      c0-4-3.3-7.3-7.3-7.3H145.8z" fill="#244964"/></g><g><path d="M365.3,393.2H146.7c-1.3,0-2.3-1-2.3-2.3v-84.2c0-1.3,1-2.3,2.3-2.3h218.7c1.3,0,2.3,1,2.3,2.3v84.2      C367.6,392.1,366.6,393.2,365.3,393.2z M149,388.6H363V309H149V388.6z" fill="#244964"/></g><g><path d="M365.3,289.7H146.7c-0.7,0-1.4-0.4-1.9-1c-0.4-0.6-0.5-1.4-0.3-2.1l8-22.5c0.3-0.9,1.2-1.5,2.2-1.5      h202.7c1,0,1.8,0.6,2.2,1.5l8,22.5c0.2,0.7,0.1,1.5-0.3,2.1C366.8,289.3,366.1,289.7,365.3,289.7z M149.9,285.1h212.2l-6.4-17.9      H156.3L149.9,285.1z" fill="#244964"/></g><g><path d="M369.9,416.4H142.1c-1.3,0-2.3-1-2.3-2.3v-23.3c0-1.3,1-2.3,2.3-2.3h227.7c1.3,0,2.3,1,2.3,2.3v23.3      C372.1,415.4,371.1,416.4,369.9,416.4z M144.4,411.8h223.1v-18.7H144.4V411.8z" fill="#244964"/></g><g><path d="M362.9,475.6c2.4-1.4,4.8-2.9,7.1-4.5H145.3c2.4,1.5,4.7,3.1,7.2,4.6h210.3      C362.8,475.7,362.9,475.7,362.9,475.6z" fill="#244964"/><path d="M142.6,469.5l113.4-40l115.4,40.7c1.1-0.7,2.2-1.5,3.3-2.2c0.5-0.3,0.9-0.7,1.4-1l-119.4-42.1      c-0.5-0.2-1-0.2-1.5,0l-118.1,41.7C139,467.5,140.8,468.5,142.6,469.5z" fill="#244964"/></g><g><path d="M175.2,475.6l80.8-28.5l80.8,28.5c0.2,0.1,0.5,0.1,0.8,0.1h25.2c0.1,0,0.1-0.1,0.2-0.1      c2.4-1.4,4.8-2.9,7.1-4.5H338l-81.2-28.6c-0.5-0.2-1-0.2-1.5,0L174,471.1h-28.8c2.4,1.5,4.7,3.1,7.2,4.6h22      C174.7,475.7,174.9,475.7,175.2,475.6z" fill="#244964"/><path d="M142.6,469.5l113.4-40l115.4,40.7c1.1-0.7,2.2-1.5,3.3-2.2c0.5-0.3,0.9-0.7,1.4-1l-119.4-42.1      c-0.5-0.2-1-0.2-1.5,0l-118.1,41.7C139,467.5,140.8,468.5,142.6,469.5z" fill="#244964"/></g><g><path d="M365.3,467.9c-0.3,0-0.5,0-0.8-0.1L256,429.5l-108.6,38.3c-0.7,0.3-1.5,0.1-2.1-0.3s-1-1.1-1-1.9v-51.5      c0-1.3,1-2.3,2.3-2.3h218.7c1.3,0,2.3,1,2.3,2.3v51.5c0,0.7-0.4,1.4-1,1.9C366.3,467.8,365.8,467.9,365.3,467.9z M256,424.8      c0.3,0,0.5,0,0.8,0.1L363,462.4v-46H149v46l106.3-37.5C255.5,424.8,255.7,424.8,256,424.8z" fill="#244964"/></g><g><path d="M337.6,475.7H174.4c-1.1,0-2.1-0.8-2.3-1.9c-0.2-1.1,0.4-2.2,1.5-2.6l81.6-28.8c0.5-0.2,1-0.2,1.5,0      l81.6,28.8c1.1,0.4,1.7,1.4,1.5,2.6C339.6,474.9,338.7,475.7,337.6,475.7z M187.8,471.1h136.3l-68.2-24L187.8,471.1z" fill="#244964"/></g><g><path d="M357.2,267.1H154.8c-1.3,0-2.3-1-2.3-2.3c0-56.6,46.1-102.7,102.7-102.7h1.5      c56.6,0,102.7,46.1,102.7,102.7C359.5,266.1,358.4,267.1,357.2,267.1z M157.1,262.6h197.7c-1.2-53.1-44.8-95.8-98.1-95.8h-1.5      C201.9,166.7,158.4,209.5,157.1,262.6z" fill="#244964"/></g><g><path d="M329.5,266H182.5c-0.6,0-1.1-0.5-1.1-1.1c0-56,33.3-101.6,74.1-101.6h1.1c40.9,0,74.1,45.6,74.1,101.6      C330.7,265.5,330.2,266,329.5,266z M183.6,263.7h144.8c-0.4-54.2-32.5-98.1-71.8-98.1h-1.1C216.1,165.6,184.1,209.5,183.6,263.7      z" fill="#244964"/></g><g><path d="M301.9,266h-91.9c-0.6,0-1.1-0.5-1.1-1.1c0-56,21-101.6,46.7-101.6h0.7c25.8,0,46.7,45.6,46.7,101.6      C303.1,265.5,302.6,266,301.9,266z M211.2,263.7h89.6c-0.3-54.2-20.1-98.1-44.4-98.1h-0.7C231.3,165.6,211.5,209.5,211.2,263.7z      " fill="#244964"/></g><g><path d="M271.7,266h-31.4c-0.6,0-1.1-0.5-1.1-1.1c0-49.2,5.9-101.6,16.7-101.6h0.2c10.9,0,16.7,52.3,16.7,101.6      C272.9,265.5,272.4,266,271.7,266z M241.4,263.7h29.1c0-26.3-1.7-51-4.6-69.7c-3.3-21-7.2-28.4-9.9-28.4h-0.2      c-2.6,0-6.6,7.5-9.9,28.4C243.1,212.7,241.5,237.4,241.4,263.7z" fill="#244964"/></g><g><path d="M281.3,149.7h-50.6c-1.3,0-2.3-1-2.3-2.3V91.7c0-1.3,1-2.3,2.3-2.3h50.6c1.3,0,2.3,1,2.3,2.3v55.7      C283.6,148.7,282.6,149.7,281.3,149.7z M233,145.1h46V94h-46V145.1z" fill="#244964"/></g><g><path d="M288.1,94h-64.2c-1.3,0-2.3-1-2.3-2.3V76.7c0-1.3,1-2.3,2.3-2.3h64.2c1.3,0,2.3,1,2.3,2.3v15.1      C290.4,93,289.4,94,288.1,94z M226.2,89.5h59.7V79h-59.7V89.5z" fill="#244964"/></g><g><path d="M281.3,79h-50.6c-1.3,0-2.3-1-2.3-2.3c0-15.2,12.4-27.6,27.6-27.6c15.2,0,27.6,12.4,27.6,27.6      C283.6,77.9,282.6,79,281.3,79z M233.1,74.4h45.8c-1.2-11.6-11-20.7-22.9-20.7C244.1,53.7,234.2,62.8,233.1,74.4z" fill="#244964"/></g><g><path d="M256,53.7c-1.3,0-2.3-1-2.3-2.3V4.3c0-1.3,1-2.3,2.3-2.3s2.3,1,2.3,2.3v47.1      C258.3,52.6,257.3,53.7,256,53.7z" fill="#244964"/></g><g><g><path d="M241.9,137.3c-1.3,0-2.3-1-2.3-2.3v-24.5c0-1.3,1-2.3,2.3-2.3c1.3,0,2.3,1,2.3,2.3V135       C244.2,136.3,243.1,137.3,241.9,137.3z" fill="#244964"/></g><g><path d="M256,137.3c-1.3,0-2.3-1-2.3-2.3v-24.5c0-1.3,1-2.3,2.3-2.3s2.3,1,2.3,2.3V135       C258.3,136.3,257.3,137.3,256,137.3z" fill="#244964"/></g><g><path d="M270.1,137.3c-1.3,0-2.3-1-2.3-2.3v-24.5c0-1.3,1-2.3,2.3-2.3s2.3,1,2.3,2.3V135       C272.4,136.3,271.4,137.3,270.1,137.3z" fill="#244964"/></g></g><g><g><path d="M167.8,282.1c-3.3,0-5.9-2.7-5.9-5.9s2.7-5.9,5.9-5.9s5.9,2.7,5.9,5.9S171,282.1,167.8,282.1z        M167.8,272.5c-2,0-3.6,1.6-3.6,3.6s1.6,3.6,3.6,3.6c2,0,3.6-1.6,3.6-3.6S169.8,272.5,167.8,272.5z" fill="#244964"/></g><g><path d="M197.2,282.1c-3.3,0-5.9-2.7-5.9-5.9s2.7-5.9,5.9-5.9s5.9,2.7,5.9,5.9S200.4,282.1,197.2,282.1z        M197.2,272.5c-2,0-3.6,1.6-3.6,3.6s1.6,3.6,3.6,3.6c2,0,3.6-1.6,3.6-3.6S199.2,272.5,197.2,272.5z" fill="#244964"/></g><g><path d="M226.6,282.1c-3.3,0-5.9-2.7-5.9-5.9s2.7-5.9,5.9-5.9s5.9,2.7,5.9,5.9S229.9,282.1,226.6,282.1z        M226.6,272.5c-2,0-3.6,1.6-3.6,3.6s1.6,3.6,3.6,3.6c2,0,3.6-1.6,3.6-3.6S228.6,272.5,226.6,272.5z" fill="#244964"/></g><g><path d="M256,282.1c-3.3,0-5.9-2.7-5.9-5.9s2.7-5.9,5.9-5.9c3.3,0,5.9,2.7,5.9,5.9S259.3,282.1,256,282.1z        M256,272.5c-2,0-3.6,1.6-3.6,3.6s1.6,3.6,3.6,3.6c2,0,3.6-1.6,3.6-3.6S258,272.5,256,272.5z" fill="#244964"/></g><g><path d="M285.4,282.1c-3.3,0-5.9-2.7-5.9-5.9s2.7-5.9,5.9-5.9c3.3,0,5.9,2.7,5.9,5.9S288.7,282.1,285.4,282.1z        M285.4,272.5c-2,0-3.6,1.6-3.6,3.6s1.6,3.6,3.6,3.6s3.6-1.6,3.6-3.6S287.4,272.5,285.4,272.5z" fill="#244964"/></g><g><path d="M314.8,282.1c-3.3,0-5.9-2.7-5.9-5.9s2.7-5.9,5.9-5.9c3.3,0,5.9,2.7,5.9,5.9S318.1,282.1,314.8,282.1z        M314.8,272.5c-2,0-3.6,1.6-3.6,3.6s1.6,3.6,3.6,3.6c2,0,3.6-1.6,3.6-3.6S316.8,272.5,314.8,272.5z" fill="#244964"/></g><g><path d="M344.2,282.1c-3.3,0-5.9-2.7-5.9-5.9s2.7-5.9,5.9-5.9c3.3,0,5.9,2.7,5.9,5.9S347.5,282.1,344.2,282.1z        M344.2,272.5c-2,0-3.6,1.6-3.6,3.6s1.6,3.6,3.6,3.6c2,0,3.6-1.6,3.6-3.6S346.3,272.5,344.2,272.5z" fill="#244964"/></g></g><g><g><path d="M175,376.6h-14.5c-0.6,0-1.1-0.5-1.1-1.1v-35.5c0-4.6,3.8-8.4,8.4-8.4s8.4,3.8,8.4,8.4v35.5       C176.2,376.1,175.6,376.6,175,376.6z M161.6,374.3h12.2v-34.4c0-3.4-2.7-6.1-6.1-6.1c-3.4,0-6.1,2.7-6.1,6.1V374.3z" fill="#244964"/></g><g><path d="M204.4,376.6h-14.5c-0.6,0-1.1-0.5-1.1-1.1v-35.5c0-4.6,3.8-8.4,8.4-8.4s8.4,3.8,8.4,8.4v35.5       C205.6,376.1,205.1,376.6,204.4,376.6z M191.1,374.3h12.2v-34.4c0-3.4-2.7-6.1-6.1-6.1c-3.4,0-6.1,2.7-6.1,6.1V374.3z" fill="#244964"/></g><g><path d="M233.8,376.6h-14.5c-0.6,0-1.1-0.5-1.1-1.1v-35.5c0-4.6,3.8-8.4,8.4-8.4h0c4.6,0,8.4,3.8,8.4,8.4v35.5       C235,376.1,234.5,376.6,233.8,376.6z M220.5,374.3h12.2v-34.4c0-3.4-2.7-6.1-6.1-6.1c-3.4,0-6.1,2.7-6.1,6.1V374.3z" fill="#244964"/></g><g><path d="M263.3,376.6h-14.5c-0.6,0-1.1-0.5-1.1-1.1v-35.5c0-4.6,3.8-8.4,8.4-8.4c4.6,0,8.4,3.8,8.4,8.4v35.5       C264.4,376.1,263.9,376.6,263.3,376.6z M249.9,374.3h12.2v-34.4c0-3.4-2.7-6.1-6.1-6.1c-3.4,0-6.1,2.7-6.1,6.1V374.3z" fill="#244964"/></g><g><path d="M292.7,376.6h-14.5c-0.6,0-1.1-0.5-1.1-1.1v-35.5c0-4.6,3.8-8.4,8.4-8.4c4.6,0,8.4,3.8,8.4,8.4v35.5       C293.8,376.1,293.3,376.6,292.7,376.6z M279.3,374.3h12.2v-34.4c0-3.4-2.7-6.1-6.1-6.1s-6.1,2.7-6.1,6.1V374.3z" fill="#244964"/></g><g><path d="M322.1,376.6h-14.5c-0.6,0-1.1-0.5-1.1-1.1v-35.5c0-4.6,3.8-8.4,8.4-8.4c4.6,0,8.4,3.8,8.4,8.4v35.5       C323.2,376.1,322.7,376.6,322.1,376.6z M308.7,374.3h12.2v-34.4c0-3.4-2.7-6.1-6.1-6.1c-3.4,0-6.1,2.7-6.1,6.1V374.3z" fill="#244964"/></g><g><path d="M351.5,376.6H337c-0.6,0-1.1-0.5-1.1-1.1v-35.5c0-4.6,3.8-8.4,8.4-8.4c4.6,0,8.4,3.8,8.4,8.4v35.5       C352.6,376.1,352.1,376.6,351.5,376.6z M338.1,374.3h12.2v-34.4c0-3.4-2.7-6.1-6.1-6.1c-3.4,0-6.1,2.7-6.1,6.1V374.3z" fill="#244964"/></g></g><g><path d="M365.3,323.5H146.7c-0.6,0-1.1-0.5-1.1-1.1c0-0.6,0.5-1.1,1.1-1.1h218.7c0.6,0,1.1,0.5,1.1,1.1      C366.5,323,366,323.5,365.3,323.5z" fill="#244964"/></g><g><path d="M152.4,475.7h210.3c0.1,0,0.1-0.1,0.2-0.1c2.4-1.4,4.8-2.9,7.1-4.5H145.3      C147.7,472.6,150,474.2,152.4,475.7z" fill="#244964"/><path d="M262.4,503.8c5.1,0.2,10.2,0.2,15.3-0.1c2.2-0.1,4.3-0.3,6.5-0.5c1.1-0.1,2.2-0.2,3.3-0.4      c0.1,0,0.3-0.1,0.5-0.1c0.4-0.1,0.9-0.2,1.3-0.3h-64c2.1,0.1,4.2,0.1,6.2,0.1C241.8,502.7,252.1,503.5,262.4,503.8z" fill="#244964"/></g><g><path d="M297.5,175.3c-0.3,0-0.6-0.1-0.9-0.2c-12.6-5.6-25.9-8.4-39.8-8.4h-1.5c-13.8,0-27.2,2.8-39.8,8.4      c-0.7,0.3-1.5,0.3-2.2-0.2c-0.7-0.4-1-1.1-1-1.9v-25.6c0-1.3,1-2.3,2.3-2.3h82.9c1.3,0,2.3,1,2.3,2.3V173c0,0.8-0.4,1.5-1,1.9      C298.3,175.2,297.9,175.3,297.5,175.3z M216.8,149.7v19.8c12.2-4.9,25.1-7.4,38.4-7.4h1.5c13.3,0,26.2,2.5,38.4,7.4v-19.8H216.8      z" fill="#244964"/></g></g></g><g><path d="M281.8,99.4v9.3c96.5,12.7,171.2,95.4,171.2,195.3c0,108.6-88.3,196.9-196.9,196.9    c-108.6,0-196.9-88.3-196.9-196.9c0-99.8,74.7-182.5,171.1-195.2v-9.3C128.6,112.2,49.9,199,49.9,303.9    C49.9,417.5,142.3,510,256,510c113.7,0,206.1-92.5,206.1-206.1C462.1,198.9,383.3,112.1,281.8,99.4z" fill="#244964"/></g></g></svg>