<?xml version="1.0" ?><!DOCTYPE svg  PUBLIC '-//W3C//DTD SVG 1.1//EN'  'http://www.w3.org/Graphics/SVG/1.1/DTD/svg11.dtd'><svg height="42.3332mm" style="shape-rendering:geometricPrecision; text-rendering:geometricPrecision; image-rendering:optimizeQuality; fill-rule:evenodd; clip-rule:evenodd" version="1.1" viewBox="0 0 4233 4233" width="42.3332mm" xml:space="preserve" xmlns="http://www.w3.org/2000/svg" xmlns:xlink="http://www.w3.org/1999/xlink"><defs><style type="text/css">
   <![CDATA[
    .str0 {stroke:#2980B9;stroke-width:7.62}
    .fil0 {fill:none}
    .fil2 {fill:#2980B9}
    .fil14 {fill:#2C3E50}
    .fil15 {fill:#34495E}
    .fil8 {fill:#7F8C8D}
    .fil10 {fill:#929CA3}
    .fil12 {fill:#95A5A6}
    .fil9 {fill:#B2B9BD}
    .fil11 {fill:#BDC3C7}
    .fil13 {fill:#D5DADC}
    .fil4 {fill:#ECF0F1}
    .fil5 {fill:#F1C40F}
    .fil7 {fill:#F39C12}
    .fil1 {fill:white;fill-opacity:0}
    .fil6 {fill:#F39C12;fill-opacity:0.501961}
    .fil3 {fill:url(#id3)}
   ]]>
  </style><clipPath id="id0"><path d="M4 4l4225 0 0 4225 -4225 0 0 -4225z"/></clipPath><clipPath id="id1"><path d="M2117 388c954,0 1728,774 1728,1729 0,954 -774,1728 -1728,1728 -955,0 -1729,-774 -1729,-1728 0,-955 774,-1729 1729,-1729z"/></clipPath><clipPath id="id2"><path d="M4 4l4225 0 0 4225 -4225 0 0 -4225z"/></clipPath><linearGradient gradientUnits="userSpaceOnUse" id="id3" x1="2116.67" x2="2116.67" y1="388.22" y2="3845.1"><stop offset="0" style="stop-opacity:1; stop-color:#3498DB"/><stop offset="1" style="stop-opacity:1; stop-color:#4AB7FF"/></linearGradient></defs><g id="Layer_x0020_1"><rect class="fil0" height="4233" width="4233"/><polygon class="fil1" points="4,4 4229,4 4229,4229 4,4229 "/><g style="clip-path:url(#id0)"><g id="_557265920"><circle class="fil2" cx="2117" cy="2117" r="1846"/><path class="fil3" d="M2117 388c954,0 1728,774 1728,1729 0,954 -774,1728 -1728,1728 -955,0 -1729,-774 -1729,-1728 0,-955 774,-1729 1729,-1729z"/></g><g style="clip-path:url(#id1)"><g><g><g><rect class="fil2" height="1207" width="201" x="1496" y="2852"/><rect class="fil2" height="1006" width="101" x="1733" y="3053"/><rect class="fil2" height="2032" transform="matrix(-0.593947 0.529584 -0 0.593947 1459.58 2852.18)" width="339"/><rect class="fil2" height="2032" transform="matrix(0.296965 0.220317 -0 0.494955 1127.39 2847.32)" width="339"/><rect class="fil2" height="1094" width="220" x="1872" y="2965"/><rect class="fil2" height="1207" width="201" x="757" y="2847"/><rect class="fil2" height="1006" width="101" x="993" y="3176"/><rect class="fil2" height="2032" transform="matrix(-0.593947 0.529584 -0 0.593947 720.412 2974.55)" width="339"/><rect class="fil2" height="2032" transform="matrix(0.296965 0.220317 -0 0.494955 388.224 2969.69)" width="339"/><rect class="fil2" height="681" width="1703" x="390" y="3168"/></g><g><rect class="fil2" height="1207" width="201" x="3249" y="2852"/><rect class="fil2" height="1006" width="101" x="3485" y="3053"/><rect class="fil2" height="2032" transform="matrix(-0.593947 0.529584 -0 0.593947 3212.15 2852.18)" width="339"/><rect class="fil2" height="2032" transform="matrix(0.296965 0.220317 -0 0.494955 2879.96 2847.32)" width="339"/><rect class="fil2" height="1094" width="220" x="3625" y="2965"/><rect class="fil2" height="1207" width="201" x="2510" y="2847"/><rect class="fil2" height="1006" width="101" x="2746" y="3176"/><rect class="fil2" height="2032" transform="matrix(-0.593947 0.529584 -0 0.593947 2472.98 2974.55)" width="339"/><rect class="fil2" height="2032" transform="matrix(0.296965 0.220317 -0 0.494955 2140.79 2969.69)" width="339"/><rect class="fil2" height="1361" width="1881" x="1964" y="3161"/></g></g><rect class="fil2" height="731" width="4337" x="173" y="4124"/><path class="fil4" d="M1932 998c-25,0 -48,12 -64,29 1,-6 1,-12 1,-18 0,-88 -71,-159 -159,-159 -76,0 -139,52 -155,123 -11,-4 -22,-6 -34,-6 -56,0 -101,45 -101,101 0,5 1,11 1,16l596 0c0,-47 -38,-86 -85,-86z"/><path class="fil4" d="M1053 2244c25,0 48,11 64,29 -1,-6 -1,-12 -1,-18 0,-88 71,-159 159,-159 76,0 139,52 156,123 10,-4 21,-6 33,-6 56,0 101,45 101,101 0,5 -1,10 -1,16l-596 0c0,-48 38,-86 85,-86z"/><g><circle class="fil5" cx="2638" cy="1609" r="296"/><path class="fil6" d="M2638 1344c146,0 265,119 265,265 0,147 -119,266 -265,266 -147,0 -266,-119 -266,-266 0,-146 119,-265 266,-265z"/><circle class="fil7" cx="2638" cy="1609" r="232"/></g><path class="fil4" d="M3038 1462c162,0 294,131 297,293 8,-2 17,-3 27,-3 84,0 152,68 152,152 0,16 -3,31 -7,45l-1103 0c0,-59 48,-107 107,-107 12,0 23,1 33,5 6,-105 93,-188 199,-188 5,0 10,0 15,0 41,-115 150,-197 280,-197z"/><g><path class="fil8" d="M2117 1918c-304,0 -431,150 -431,150l431 0 431 0c0,0 -128,-150 -431,-150z"/><g><path class="fil9" d="M1972 1916c23,0 38,6 47,21 10,15 -89,71 -91,59 -2,-13 6,-6 4,-28 -2,-22 0,-50 40,-52z"/><rect class="fil10" height="21.4171" width="18.0865" x="1963" y="1900"/><rect class="fil11" height="42.5968" rx="16" ry="21" width="34.744" x="1955" y="1863"/><path class="fil8" d="M1995 1874c-9,-3 -21,-11 -29,-3 -8,8 -2,19 -11,17 -9,-2 -11,-24 0,-31 10,-7 30,-4 35,6 5,11 17,2 15,6 -3,5 -10,5 -10,5z"/><path class="fil10" d="M2052 1970c5,-4 37,-55 37,-55l-22 16 36 -43 -49 36 10 -19c0,0 -86,62 -91,64 -4,2 17,-36 17,-36l-54 54 12 -34 -59 55 13 -25 -41 52 191 -65z"/></g><g><path class="fil9" d="M2259 1916c-22,0 -37,6 -47,21 -9,15 90,71 92,59 2,-13 -6,-6 -4,-28 2,-22 0,-50 -41,-52z"/><rect class="fil10" height="21.4171" width="18.0865" x="2250" y="1900"/><rect class="fil11" height="42.5968" rx="16" ry="21" width="34.744" x="2242" y="1863"/><path class="fil8" d="M2237 1874c9,-3 20,-11 29,-3 8,8 2,19 11,17 9,-2 10,-24 0,-31 -10,-7 -30,-4 -35,6 -5,11 -17,2 -15,6 2,5 10,5 10,5z"/><path class="fil10" d="M2180 1970c-6,-4 -38,-55 -38,-55l22 16 -35 -43 49 36 -10 -19c0,0 86,62 90,64 5,2 -16,-36 -16,-36l54 54 -12 -34 59 55 -13 -25 41 52 -191 -65z"/></g><g><g><rect class="fil11" height="107.379" width="33.9591" x="781" y="2249"/><rect class="fil9" height="905" width="1364" x="752" y="2397"/><rect class="fil11" height="93.201" width="1364.33" x="752" y="2564"/><rect class="fil12" height="11.902" width="1364.33" x="752" y="2605"/><rect class="fil0" height="41.751" width="1364.33" x="752" y="2564"/><path class="fil12" d="M1252 3302l366 0 0 -430c0,-100 -82,-183 -183,-183l0 0c-101,0 -183,83 -183,183l0 430z"/><rect class="fil10" height="905" width="111" x="742" y="2397"/><rect class="fil4" height="904.891" width="89.9476" x="752" y="2397"/><polygon class="fil11" points="732,3302 863,3302 863,3202 842,3181 752,3181 732,3202 "/><polygon class="fil13" points="863,3202 842,3181 752,3181 732,3202 "/><rect class="fil10" height="19.4914" width="131.069" x="732" y="3282"/><rect class="fil13" height="19.2757" width="114.993" x="740" y="2619"/><rect class="fil9" height="7.70883" width="105.354" x="745" y="2638"/><rect class="fil10" height="22.4883" rx="11" ry="11" width="132.981" x="731" y="2646"/><rect class="fil13" height="156" width="204" x="895" y="2677"/><rect class="fil9" height="128" width="172" x="911" y="2691"/><rect class="fil4" height="95.0974" rx="35" ry="31" width="140.076" x="927" y="2707"/><rect class="fil10" height="905" width="111" x="1141" y="2397"/><rect class="fil4" height="904.891" width="89.9476" x="1152" y="2397"/><polygon class="fil11" points="1131,3302 1262,3302 1262,3202 1242,3181 1152,3181 1131,3202 "/><polygon class="fil13" points="1262,3202 1242,3181 1152,3181 1131,3202 "/><rect class="fil10" height="19.4914" width="131.069" x="1131" y="3282"/><rect class="fil13" height="19.2757" width="114.993" x="1139" y="2619"/><rect class="fil9" height="7.70883" width="105.354" x="1144" y="2638"/><rect class="fil10" height="22.4883" rx="11" ry="11" width="132.981" x="1130" y="2646"/><rect class="fil13" height="56.5392" width="288.801" x="853" y="2857"/><rect class="fil10" height="14.1341" width="288.801" x="853" y="2857"/><rect class="fil14" height="364" width="189" x="902" y="2938"/><rect class="fil10" height="674" width="111" x="1618" y="2628"/><rect class="fil4" height="673.54" width="89.9476" x="1628" y="2628"/><polygon class="fil11" points="1608,3302 1739,3302 1739,3202 1718,3181 1628,3181 1608,3202 "/><polygon class="fil13" points="1739,3202 1718,3181 1628,3181 1608,3202 "/><rect class="fil10" height="19.4914" width="131.069" x="1608" y="3282"/><rect class="fil13" height="19.2757" width="114.993" x="1616" y="2619"/><rect class="fil9" height="7.70883" width="105.354" x="1621" y="2638"/><rect class="fil10" height="22.4883" rx="11" ry="11" width="132.981" x="1607" y="2646"/><path class="fil14" d="M1276 3302l318 0 0 -423c0,-88 -72,-159 -159,-159l0 0c-88,0 -159,71 -159,159l0 423z"/><rect class="fil10" height="64.251" width="31.7445" x="1419" y="2656"/><circle class="fil13" cx="1435" cy="2645" r="41"/><circle class="fil4" cx="1423" cy="2632" r="16"/><rect class="fil8" height="19.2743" width="1374.61" x="742" y="2564"/><rect class="fil12" height="46.2647" width="1374.61" x="742" y="2527"/><polygon class="fil10" points="2117,2447 693,2447 693,2467 709,2487 2117,2487 "/><polygon class="fil11" points="2117,2447 693,2447 693,2467 2117,2467 "/><polygon class="fil9" points="2117,2487 732,2487 742,2527 2117,2527 "/><polygon class="fil13" points="736,2500 739,2514 2117,2514 2117,2500 "/><polygon class="fil4" points="742,2397 698,2328 757,2352 754,2291 797,2326 841,2291 837,2352 897,2328 853,2397 797,2397 "/><circle class="fil13" cx="798" cy="2247" r="34"/><rect class="fil11" height="107.379" width="33.9591" x="1181" y="2249"/><polygon class="fil4" points="1141,2397 1097,2328 1157,2352 1153,2291 1197,2326 1240,2291 1237,2352 1296,2328 1252,2397 1197,2397 "/><polygon class="fil13" points="1154,2397 1120,2347 1166,2364 1163,2319 1197,2345 1230,2319 1228,2364 1274,2347 1240,2397 1197,2397 "/><circle class="fil11" cx="1197" cy="2369" r="28"/><circle class="fil13" cx="1198" cy="2247" r="34"/><polygon class="fil13" points="759,2397 728,2351 769,2367 767,2326 797,2350 828,2326 825,2367 867,2351 836,2397 797,2397 "/><path class="fil13" d="M1274 2679l0 66c24,-30 55,-53 91,-66l-91 0z"/><path class="fil13" d="M1596 2679l0 66c-24,-30 -55,-53 -91,-66l91 0z"/></g><g><rect class="fil11" height="107.379" width="33.9591" x="3418" y="2249"/><rect class="fil9" height="905" width="1364" x="2117" y="2397"/><rect class="fil11" height="93.201" width="1364.33" x="2117" y="2564"/><rect class="fil12" height="11.902" width="1364.33" x="2117" y="2605"/><rect class="fil0" height="41.751" width="1364.33" x="2117" y="2564"/><path class="fil12" d="M2981 3302l-366 0 0 -430c0,-100 83,-183 183,-183l0 0c101,0 183,83 183,183l0 430z"/><rect class="fil10" height="905" width="111" x="3381" y="2397"/><rect class="fil4" height="904.891" width="89.9476" x="3391" y="2397"/><polygon class="fil11" points="3502,3302 3370,3302 3370,3202 3391,3181 3481,3181 3502,3202 "/><polygon class="fil13" points="3370,3202 3391,3181 3481,3181 3502,3202 "/><rect class="fil10" height="19.4914" width="131.069" x="3370" y="3282"/><rect class="fil13" height="19.2757" width="114.993" x="3379" y="2619"/><rect class="fil9" height="7.70883" width="105.354" x="3383" y="2638"/><rect class="fil10" height="22.4883" rx="11" ry="11" width="132.981" x="3370" y="2646"/><rect class="fil13" height="156" width="204" x="3135" y="2677"/><rect class="fil9" height="128" width="172" x="3150" y="2691"/><rect class="fil4" height="95.0974" rx="35" ry="31" width="140.076" x="3166" y="2707"/><rect class="fil10" height="905" width="111" x="2981" y="2397"/><rect class="fil4" height="904.891" width="89.9476" x="2992" y="2397"/><polygon class="fil11" points="3102,3302 2971,3302 2971,3202 2992,3181 3082,3181 3102,3202 "/><polygon class="fil13" points="2971,3202 2992,3181 3082,3181 3102,3202 "/><rect class="fil10" height="19.4914" width="131.069" x="2971" y="3282"/><rect class="fil13" height="19.2757" width="114.993" x="2979" y="2619"/><rect class="fil9" height="7.70883" width="105.354" x="2984" y="2638"/><rect class="fil10" height="22.4883" rx="11" ry="11" width="132.981" x="2970" y="2646"/><rect class="fil13" height="56.5392" width="288.801" x="3092" y="2857"/><rect class="fil10" height="14.1341" width="288.801" x="3092" y="2857"/><rect class="fil14" height="364" width="189" x="3142" y="2938"/><rect class="fil10" height="674" width="111" x="2505" y="2628"/><rect class="fil4" height="673.54" width="89.9476" x="2515" y="2628"/><polygon class="fil11" points="2626,3302 2495,3302 2495,3202 2515,3181 2605,3181 2626,3202 "/><polygon class="fil13" points="2495,3202 2515,3181 2605,3181 2626,3202 "/><rect class="fil10" height="19.4914" width="131.069" x="2495" y="3282"/><rect class="fil13" height="19.2757" width="114.993" x="2503" y="2619"/><rect class="fil9" height="7.70883" width="105.354" x="2507" y="2638"/><rect class="fil10" height="22.4883" rx="11" ry="11" width="132.981" x="2494" y="2646"/><path class="fil14" d="M2957 3302l-318 0 0 -423c0,-88 72,-159 159,-159l0 0c88,0 159,71 159,159l0 423z"/><rect class="fil10" height="64.251" width="31.7445" x="2783" y="2656"/><circle class="fil13" cx="2798" cy="2645" r="41"/><circle class="fil4" cx="2810" cy="2632" r="16"/><rect class="fil8" height="19.2743" width="1374.61" x="2117" y="2564"/><rect class="fil12" height="46.2647" width="1374.61" x="2117" y="2527"/><polygon class="fil10" points="2117,2447 3540,2447 3540,2467 3524,2487 2117,2487 "/><polygon class="fil11" points="2117,2447 3540,2447 3540,2467 2117,2467 "/><polygon class="fil9" points="2117,2487 3501,2487 3491,2527 2117,2527 "/><polygon class="fil13" points="3498,2500 3494,2514 2117,2514 2117,2500 "/><polygon class="fil4" points="3491,2397 3535,2328 3476,2352 3479,2291 3436,2326 3393,2291 3396,2352 3337,2328 3381,2397 3436,2397 "/><circle class="fil13" cx="3435" cy="2247" r="34"/><rect class="fil11" height="107.379" width="33.9591" x="3019" y="2249"/><polygon class="fil4" points="3092,2397 3136,2328 3077,2352 3080,2291 3037,2326 2993,2291 2997,2352 2937,2328 2981,2397 3037,2397 "/><polygon class="fil13" points="3080,2397 3114,2347 3068,2364 3070,2319 3037,2345 3003,2319 3006,2364 2960,2347 2994,2397 3037,2397 "/><circle class="fil11" cx="3037" cy="2369" r="28"/><circle class="fil13" cx="3036" cy="2247" r="34"/><polygon class="fil13" points="3475,2397 3506,2351 3464,2367 3466,2326 3436,2350 3406,2326 3408,2367 3366,2351 3397,2397 3436,2397 "/><path class="fil13" d="M2959 2679l0 66c-23,-30 -55,-53 -90,-66l90 0z"/><path class="fil13" d="M2638 2679l0 66c23,-30 55,-53 90,-66l-90 0z"/></g></g><polygon class="fil10" points="1686,2099 2548,2099 2526,2129 1707,2129 "/><rect class="fil10" height="917" width="838" x="1698" y="2385"/><rect class="fil9" height="917" width="765" x="1734" y="2385"/><rect class="fil11" height="32.0644" width="923.874" x="1655" y="2385"/><rect class="fil9" height="42.3765" width="874.183" x="1680" y="2417"/><rect class="fil10" height="10.8065" width="874.183" x="1680" y="2417"/><rect class="fil8" height="10.8065" width="874.183" x="1680" y="2536"/><rect class="fil9" height="256" width="781" x="1726" y="2129"/><polygon class="fil13" points="2365,2385 2434,2385 2434,2129 2365,2129 "/><polygon class="fil13" points="1799,2385 1869,2385 1869,2129 1799,2129 "/><polygon class="fil4" points="1786,2385 1882,2385 1882,2337 1867,2322 1801,2322 1786,2337 "/><polygon class="fil4" points="2351,2385 2447,2385 2447,2337 2432,2322 2367,2322 2351,2337 "/><rect class="fil4" height="82.2387" width="31.4822" x="1818" y="2207"/><rect class="fil4" height="82.2387" width="31.4822" x="2384" y="2207"/><g><rect class="fil4" height="30.1053" width="8.28725" x="2395" y="2145"/><rect class="fil4" height="30.1053" width="8.28725" x="2379" y="2145"/><rect class="fil4" height="30.1053" width="8.28725" x="2411" y="2145"/></g><g><rect class="fil4" height="30.1053" width="8.28725" x="1830" y="2145"/><rect class="fil4" height="30.1053" width="8.28725" x="1814" y="2145"/><rect class="fil4" height="30.1053" width="8.28725" x="1846" y="2145"/></g><rect class="fil13" height="103" width="291" x="1971" y="2164"/><polygon class="fil8" points="1786,2099 1882,2099 1882,2110 1867,2129 1801,2129 1786,2110 "/><polygon class="fil8" points="2351,2099 2447,2099 2447,2110 2432,2129 2367,2129 2351,2110 "/><polygon class="fil13" points="1686,2068 2548,2068 2548,2099 1786,2099 1686,2099 "/><polygon class="fil9" points="2120,1918 1786,2068 2447,2068 "/><rect class="fil10" height="30.3429" width="95.7507" x="1786" y="2068"/><rect class="fil10" height="30.3429" width="95.7507" x="2351" y="2068"/><polygon class="fil12" points="2119,1961 1882,2068 2351,2068 "/><rect class="fil13" height="725.513" width="93.8027" x="1805" y="2576"/><rect class="fil4" height="725.513" width="38.5485" x="1833" y="2576"/><polygon class="fil9" points="1787,3302 1918,3302 1918,3236 1897,3215 1807,3215 1787,3236 "/><polygon class="fil11" points="1918,3236 1897,3215 1807,3215 1787,3236 "/><rect class="fil11" height="24.3348" rx="12" ry="12" width="143.899" x="1780" y="2576"/><rect class="fil10" height="8.34178" width="114.004" x="1795" y="2568"/><rect class="fil12" height="20.8584" width="124.435" x="1790" y="2547"/><rect class="fil13" height="725.513" width="93.8027" x="2334" y="2576"/><rect class="fil4" height="725.513" width="38.5485" x="2362" y="2576"/><polygon class="fil9" points="2316,3302 2447,3302 2447,3236 2426,3215 2336,3215 2316,3236 "/><polygon class="fil11" points="2447,3236 2426,3215 2336,3215 2316,3236 "/><rect class="fil11" height="24.3348" rx="12" ry="12" width="143.899" x="2309" y="2576"/><rect class="fil10" height="8.34178" width="114.004" x="2324" y="2568"/><rect class="fil12" height="20.8584" width="124.435" x="2319" y="2547"/><path class="fil8" d="M1921 3302l391 0 0 -458c0,-107 -88,-195 -195,-195l0 0c-108,0 -196,88 -196,195l0 458z"/><path class="fil14" d="M1947 3302l339 0 0 -451c0,-93 -76,-170 -169,-170l0 0c-94,0 -170,77 -170,170l0 451z"/><rect class="fil10" height="68.5172" width="33.8523" x="2100" y="2613"/><circle class="fil10" cx="2117" cy="2602" r="44"/><circle class="fil11" cx="2117" cy="2587" r="17"/><g><path class="fil4" d="M1945 2638l0 70c25,-32 59,-56 97,-70l-97 0z"/><path class="fil4" d="M2288 2638l0 70c-25,-32 -58,-56 -96,-70l96 0z"/></g></g><rect class="fil15" height="543" width="4337" x="-52" y="3302"/></g></g><g style="clip-path:url(#id2)"><path class="fil0 str0" d="M2117 388c954,0 1728,774 1728,1729 0,954 -774,1728 -1728,1728 -955,0 -1729,-774 -1729,-1728 0,-955 774,-1729 1729,-1729z"/></g></g><polygon class="fil0" points="4,4 4229,4 4229,4229 4,4229 "/></g></svg>