<?xml version="1.0" ?><!DOCTYPE svg  PUBLIC '-//W3C//DTD SVG 1.1//EN'  'http://www.w3.org/Graphics/SVG/1.1/DTD/svg11.dtd'><svg height="42.3332mm" style="shape-rendering:geometricPrecision; text-rendering:geometricPrecision; image-rendering:optimizeQuality; fill-rule:evenodd; clip-rule:evenodd" version="1.1" viewBox="0 0 4233 4233" width="42.3332mm" xml:space="preserve" xmlns="http://www.w3.org/2000/svg" xmlns:xlink="http://www.w3.org/1999/xlink"><defs><style type="text/css">
   <![CDATA[
    .str1 {stroke:#2980B9;stroke-width:7.62}
    .str0 {stroke:#332C2B;stroke-width:141.11;stroke-linecap:round}
    .fil0 {fill:none}
    .fil2 {fill:#2980B9}
    .fil8 {fill:#34495E}
    .fil13 {fill:#929CA3}
    .fil14 {fill:#BDC3C7}
    .fil4 {fill:#ECF0F1}
    .fil5 {fill:#F1C40F}
    .fil7 {fill:#F39C12}
    .fil1 {fill:white;fill-opacity:0}
    .fil11 {fill:#929CA3;fill-rule:nonzero}
    .fil12 {fill:#AFBCC3;fill-rule:nonzero}
    .fil10 {fill:#BDC3C7;fill-rule:nonzero}
    .fil9 {fill:#ECF0F1;fill-rule:nonzero}
    .fil6 {fill:#F39C12;fill-opacity:0.501961}
    .fil3 {fill:url(#id3)}
   ]]>
  </style><clipPath id="id0"><path d="M4 4l4225 0 0 4225 -4225 0 0 -4225z"/></clipPath><clipPath id="id1"><path d="M2117 388c954,0 1728,774 1728,1729 0,954 -774,1728 -1728,1728 -955,0 -1729,-774 -1729,-1728 0,-955 774,-1729 1729,-1729z"/></clipPath><clipPath id="id2"><path d="M4 4l4225 0 0 4225 -4225 0 0 -4225z"/></clipPath><linearGradient gradientUnits="userSpaceOnUse" id="id3" x1="2116.66" x2="2116.66" y1="388.21" y2="3845.09"><stop offset="0" style="stop-opacity:1; stop-color:#3498DB"/><stop offset="1" style="stop-opacity:1; stop-color:#4AB7FF"/></linearGradient></defs><g id="Layer_x0020_1"><rect class="fil0" height="4233" width="4233"/><polygon class="fil1" points="4,4 4229,4 4229,4229 4,4229 "/><g style="clip-path:url(#id0)"><g id="_544557096"><path class="fil0 str0" d="M-21325 -2508c0,323 0,828 0,2721 0,1894 -1207,4244 -1920,5177" id="1"/><path class="fil0 str0" d="M-20895 -2508c0,323 0,1665 0,3330 0,1665 -854,3635 -1439,4568"/><path class="fil0 str0" d="M-20895 -2508c0,323 0,1665 0,3330 0,1665 854,3635 1440,4568"/><path class="fil0 str0" d="M-20464 -2508c0,323 0,828 0,2721 0,1894 1207,4244 1920,5177"/><path class="fil0 str0" d="M-21934 4664c88,-88 411,-313 1039,-313"/><path class="fil0 str0" d="M-19856 4664c-88,-88 -410,-313 -1039,-313"/><line class="fil0 str0" x1="-21645" x2="-20144" y1="4037" y2="4037"/><line class="fil0 str0" x1="-21645" x2="-21423" y1="4037" y2="4413"/><line class="fil0 str0" x1="-21255" x2="-21112" y1="4037" y2="4361"/><line class="fil0 str0" x1="-20895" x2="-20895" y1="3624" y2="4351"/><line class="fil0 str0" x1="-20144" x2="-20366" y1="4037" y2="4413"/><line class="fil0 str0" x1="-20534" x2="-20677" y1="4037" y2="4361"/><line class="fil0 str0" x1="-21483" x2="-20895" y1="3624" y2="4037"/><line class="fil0 str0" x1="-20306" x2="-20895" y1="3624" y2="4037"/><path class="fil0 str0" d="M-23245 5376l1073 -399c7,-3 11,-10 10,-18 -1,-8 -8,-14 -16,-14l-689 0c-8,0 -14,-5 -16,-12 -2,-8 2,-16 9,-19l947 -403c7,-3 11,-11 9,-18 -1,-8 -8,-13 -16,-13l-661 0c-7,0 -14,-6 -15,-13 -2,-8 2,-15 9,-18l888 -410c7,-3 11,-10 9,-18 -1,-8 -8,-13 -15,-13l-624 0c-7,0 -14,-5 -15,-13 -2,-7 2,-15 9,-18l834 -360c5,-2 9,-7 9,-14 1,-6 -2,-12 -8,-15l-531 -309c-5,-3 -8,-8 -8,-14 0,-6 4,-12 9,-14l748 -370c7,-3 10,-10 9,-18 -2,-7 -8,-12 -16,-12l-544 0c-8,0 -14,-5 -16,-12 -2,-7 1,-15 7,-18l701 -424c7,-4 10,-11 8,-18 -2,-7 -9,-12 -16,-12l-512 0c-8,0 -14,-5 -16,-12 -2,-7 1,-14 7,-18l623 -381c6,-4 9,-11 7,-18 -2,-7 -8,-12 -16,-12l-489 0c-7,0 -13,-4 -15,-10 -3,-6 -2,-12 3,-17l180 -193c6,-6 6,-16 0,-22l-101 -108c-3,-4 -4,-8 -4,-13 1,-5 3,-9 7,-12l528 -349c6,-4 8,-11 6,-18 -2,-7 -8,-12 -15,-12l-411 0c-7,0 -13,-4 -16,-10 -2,-7 0,-14 5,-18l453 -377c5,-4 7,-11 5,-18 -3,-6 -9,-10 -15,-10l-378 0c-6,0 -12,-4 -15,-10 -2,-6 -1,-13 3,-18l408 -425c5,-5 6,-12 3,-18 -2,-6 -8,-10 -15,-10l-355 0c-7,0 -13,-3 -15,-9 -3,-7 -2,-13 3,-18l380 -407c4,-5 6,-11 3,-18 -3,-6 -8,-9 -15,-9l-356 0c-7,0 -13,-4 -15,-10 -3,-6 -2,-13 3,-17l380 -408c4,-4 6,-11 3,-17 -3,-6 -8,-10 -15,-10l-354 0c-7,0 -12,-4 -15,-10 -3,-6 -1,-13 4,-17l374 -368c5,-5 6,-12 4,-18 -3,-6 -9,-10 -15,-10l-355 0c-7,0 -12,-4 -15,-10 -3,-6 -2,-12 3,-17l382 -427c4,-5 6,-11 3,-17 -3,-6 -8,-10 -15,-10l-357 0c-6,0 -12,-3 -14,-10 -3,-6 -2,-12 3,-17l378 -393c5,-4 6,-11 3,-17 -2,-6 -8,-10 -15,-10l-357 0c-6,0 -12,-4 -15,-9 -2,-6 -1,-13 3,-18l407 -465"/><circle class="fil2" cx="2117" cy="2117" r="1846"/><path class="fil3" d="M2117 388c954,0 1728,774 1728,1729 0,954 -774,1728 -1728,1728 -955,0 -1729,-774 -1729,-1728 0,-955 774,-1729 1729,-1729z"/></g><g style="clip-path:url(#id1)"><g><g><g><rect class="fil2" height="1207" width="201" x="1496" y="2852"/><rect class="fil2" height="1006" width="101" x="1733" y="3053"/><rect class="fil2" height="2032" transform="matrix(-0.593947 0.529584 -0 0.593947 1459.57 2852.17)" width="339"/><rect class="fil2" height="2032" transform="matrix(0.296965 0.220317 -0 0.494955 1127.38 2847.31)" width="339"/><rect class="fil2" height="1094" width="220" x="1872" y="2965"/><rect class="fil2" height="1207" width="201" x="757" y="2847"/><rect class="fil2" height="1006" width="101" x="993" y="3176"/><rect class="fil2" height="2032" transform="matrix(-0.593947 0.529584 -0 0.593947 720.402 2974.54)" width="339"/><rect class="fil2" height="2032" transform="matrix(0.296965 0.220317 -0 0.494955 388.214 2969.68)" width="339"/><rect class="fil2" height="681" width="1703" x="390" y="3168"/></g><g><rect class="fil2" height="1207" width="201" x="3249" y="2852"/><rect class="fil2" height="1006" width="101" x="3485" y="3053"/><rect class="fil2" height="2032" transform="matrix(-0.593947 0.529584 -0 0.593947 3212.14 2852.17)" width="339"/><rect class="fil2" height="2032" transform="matrix(0.296965 0.220317 -0 0.494955 2879.95 2847.31)" width="339"/><rect class="fil2" height="1094" width="220" x="3625" y="2965"/><rect class="fil2" height="1207" width="201" x="2510" y="2847"/><rect class="fil2" height="1006" width="101" x="2746" y="3176"/><rect class="fil2" height="2032" transform="matrix(-0.593947 0.529584 -0 0.593947 2472.97 2974.54)" width="339"/><rect class="fil2" height="2032" transform="matrix(0.296965 0.220317 -0 0.494955 2140.78 2969.68)" width="339"/><rect class="fil2" height="1361" width="1881" x="1964" y="3161"/></g></g><rect class="fil2" height="731" width="4337" x="-52" y="3845"/><path class="fil4" d="M1932 998c-25,0 -48,12 -64,29 1,-6 1,-12 1,-18 0,-88 -71,-159 -159,-159 -76,0 -139,52 -156,123 -10,-4 -21,-6 -33,-6 -56,0 -101,45 -101,101 0,5 1,11 1,16l596 0c0,-48 -38,-86 -85,-86z"/><path class="fil4" d="M1053 2244c25,0 48,11 64,29 -1,-6 -1,-12 -1,-18 0,-88 71,-159 159,-159 76,0 139,52 156,123 10,-4 21,-6 33,-6 56,0 101,45 101,101 0,5 -1,10 -1,16l-596 0c0,-48 38,-86 85,-86z"/><g><circle class="fil5" cx="2638" cy="1609" r="296"/><path class="fil6" d="M2638 1344c146,0 265,119 265,265 0,147 -119,266 -265,266 -147,0 -266,-119 -266,-266 0,-146 119,-265 266,-265z"/><circle class="fil7" cx="2638" cy="1609" r="232"/></g><path class="fil4" d="M3038 1462c162,0 294,131 297,293 8,-2 17,-3 27,-3 84,0 152,68 152,152 0,16 -3,31 -7,45l-1103 0c0,-59 48,-107 107,-107 12,0 23,1 33,5 6,-105 93,-188 199,-188 5,0 10,0 15,0 41,-115 150,-197 280,-197z"/><g><path class="fil8" d="M1590 3553l1053 0c37,0 66,30 66,66l0 223 -1185 0 0 -223c0,-36 30,-66 66,-66z"/><g><path class="fil9" d="M1775 2282c-94,-27 -69,-86 -54,-101 -1,-34 20,-47 44,-53 1,-5 11,-21 11,-21 0,0 11,11 17,22 82,24 106,-26 104,-54 -2,-27 -28,-50 -73,-50 -44,0 -59,32 -67,59 -2,-2 -6,-4 -11,-26 0,0 -31,10 -44,20 -13,10 -7,30 -5,46 -7,-6 -17,-21 -17,-32 -61,-24 -62,-90 -56,-141 -36,-92 43,-112 157,-130 20,27 113,63 148,-11 -32,-8 -89,-13 -81,32 -25,0 -44,0 -67,-21 4,-22 14,-38 36,-44 22,-7 44,-19 57,-32 87,-162 395,-135 498,-15 3,2 6,4 9,7 59,61 103,921 129,1076 65,335 115,851 -363,851 -479,0 -412,-393 -370,-555 2,-4 2,-8 3,-11 -1,-6 -1,-10 -1,-12 -1,-4 -1,-9 -2,-13 2,1 3,2 4,3 41,-103 184,19 184,83 0,7 -3,15 -7,22 -1,4 -3,7 -5,11 -4,8 -10,17 -15,26 -27,59 84,141 130,22 40,-101 -270,-681 -132,-966 -74,18 -133,25 -161,8z"/><path class="fil10" d="M1806 2764c16,-147 19,-247 155,-460 70,-110 340,-595 68,-639 90,-52 170,17 180,87 40,259 -168,455 -138,782l11 135 -139 80c-41,10 -94,12 -137,15z"/><path class="fil11" d="M2619 2798c-25,11 -75,19 -109,15 -71,-15 -224,-93 -224,-93 -7,-180 -19,-466 5,-617 29,-191 56,-460 -205,-460 592,-36 306,775 533,1155z"/><path class="fil10" d="M2552 2370c-4,3 -9,7 -15,11 -17,13 -42,30 -75,42 -31,12 -68,19 -110,14 19,-177 78,-613 -36,-743 6,4 13,8 19,12 0,0 0,0 1,0 49,36 99,106 116,216 9,58 51,410 100,448z"/><path class="fil11" d="M2556 2162c0,0 -47,32 -75,24 -27,-158 0,-372 -145,-480 16,10 31,20 45,31 24,19 45,40 59,61 86,128 59,270 116,364z"/><path class="fil10" d="M2393 1680c5,8 -4,49 -12,57l0 0c-70,-55 -172,-100 -257,-105 139,3 173,55 269,48z"/><path class="fil10" d="M2089 1642c298,-22 215,372 202,461 -14,89 1,296 2,426l-124 -55c-5,-143 11,-286 42,-366 32,-80 63,-266 31,-366 -27,-84 -118,-104 -153,-100z"/><path class="fil11" d="M2242 1742c32,100 1,286 -31,366 -31,80 -47,223 -42,366l-98 60c-9,-98 -10,-232 59,-387 69,-156 94,-297 79,-395 -10,-70 -79,-112 -140,-102 0,0 0,0 0,0 -1,0 -1,0 -1,1 -13,2 -27,7 -39,14l-1 -1c23,-15 49,-22 76,-22 16,0 32,2 48,8 40,14 75,45 90,92z"/><path class="fil11" d="M2052 1665c33,3 140,42 105,238 -23,106 -61,188 -196,401 -136,213 -139,313 -155,460l-137 -151 79 -138c35,-97 72,-139 216,-299 144,-161 236,-364 88,-511z"/><path class="fil10" d="M2104 1724c1,15 -2,28 -6,33 -10,14 -26,6 -35,5 17,-41 10,-95 6,-111 0,-1 0,-1 0,-1 2,2 4,4 6,6 20,21 28,47 29,68z"/><path class="fil11" d="M2069 1651c4,16 11,70 -6,111 -10,-8 -26,-9 -56,-11 5,-49 31,-75 61,-100 0,0 0,-1 1,0z"/><path class="fil12" d="M1951 2766c-1,4 3,5 -1,8 11,72 7,191 -34,303 -14,-7 -31,-2 -42,-3l0 -1c29,-70 40,-214 -13,-313 31,-3 63,-6 82,-11l8 17z"/><path class="fil11" d="M1848 3058c-7,-1 -17,1 -23,3 -6,2 -13,7 -17,12 -3,3 -7,14 -10,15 -8,4 -11,-11 -21,-15 31,-273 -109,-466 -143,-510 -35,-45 -65,-72 -39,-98 129,-126 298,393 253,593z"/><path class="fil10" d="M1903 3080c-6,-2 -15,-1 -21,1 -5,2 -12,6 -16,9 -3,3 -7,13 -10,14 -8,3 -10,-11 -19,-15 50,-250 -63,-438 -91,-481 -28,-43 -54,-71 -28,-93 128,-105 243,385 185,565z"/><path class="fil13" d="M1913 3090c0,0 47,-115 47,-272 0,-157 -25,-205 -64,-224 -39,-19 -44,54 -16,165 29,110 11,282 2,322 -8,40 31,9 31,9z"/><path class="fil14" d="M2018 2795c161,105 -111,276 -167,367 43,-123 62,-431 167,-367z"/><path class="fil13" d="M2157 2939c26,35 58,86 -49,95 -108,10 -199,93 -199,93 0,0 131,-315 248,-188z"/><path class="fil13" d="M1936 3179c0,0 91,-11 91,51 0,62 -53,47 -76,77 -61,80 214,40 105,-116 -46,-65 -146,-27 -146,-27l26 15z"/><path class="fil14" d="M2010 3396c45,18 108,-26 114,-91 7,-65 -34,-164 -118,-177 -83,-13 -96,36 -96,36 0,0 59,-31 104,9 45,39 56,86 17,132 -39,46 -62,74 -21,91z"/><path class="fil14" d="M2211 3153c-19,27 -91,-45 -164,-42 -74,4 -130,45 -126,24 39,-222 378,-104 290,18z"/><path class="fil13" d="M2096 3310c-24,-23 49,-139 -92,-161 -141,-23 -56,-38 -1,-44 307,-34 183,292 93,205z"/><path class="fil4" d="M1810 3212c-15,-8 -36,-98 -33,-139 3,-40 130,-33 171,24 40,57 17,85 -2,108 -19,23 -136,7 -136,7z"/></g></g></g></g><g style="clip-path:url(#id2)"><path class="fil0 str1" d="M2117 388c954,0 1728,774 1728,1729 0,954 -774,1728 -1728,1728 -955,0 -1729,-774 -1729,-1728 0,-955 774,-1729 1729,-1729z"/></g></g><polygon class="fil0" points="4,4 4229,4 4229,4229 4,4229 "/></g></svg>