<svg xmlns="http://www.w3.org/2000/svg" xmlns:xlink="http://www.w3.org/1999/xlink" width="411.644" height="409.52" viewBox="0 0 411.644 409.52">
  <defs>
    <linearGradient id="linear-gradient" x1="0.171" y1="0.877" x2="0.81" y2="0.112" gradientUnits="objectBoundingBox">
      <stop offset="0" stop-color="#52afff"/>
      <stop offset="1" stop-color="#fdacf4"/>
    </linearGradient>
  </defs>
  <path id="Intersection_3" data-name="Intersection 3" d="M-3186.7,193.614c60.41-177.51,310.874-187,384.181-14.227a121.569,121.569,0,0,1,5.43,14.227c34.617,98.241-16.29,213.419-113.354,253.393a201.743,201.743,0,0,1-81.654,17.509C-3123.515,464.516-3234.074,332.105-3186.7,193.614ZM-3038.049,392.8c27.83,66.4,67.2,66.4,95.029,0,.677-2.032,1.356-3.387,2.035-5.42a74.017,74.017,0,0,0,21.042,5.42c-6.109,15.583-13.576,30.489-23.757,44.039a185.455,185.455,0,0,0,117.426-96.207h-25.792a81.916,81.916,0,0,0,.678-12.873c0-2.033-.678-4.065-.678-6.1a5.111,5.111,0,0,1-.679-2.71h34.618c14.254-40.651,12.9-85.368-1.358-125.341h-44.119c1.357-6.776,2.036-14.228.678-21v-.677h33.26c-24.436-44.716-65.161-77.237-114.033-90.11a193.139,193.139,0,0,1,23.757,45.394,57.824,57.824,0,0,0-21.042,6.1c-22.4-60.3-60.41-81.3-92.312-18.293a75.686,75.686,0,0,0-20.362-5.42h-1.357a169.3,169.3,0,0,1,16.968-27.779,183.779,183.779,0,0,0-115.389,90.11h19a58.246,58.246,0,0,0,0,21.681h-29.187a180.95,180.95,0,0,0-2.037,125.341h86.2c-3.394-21.68-4.072-44.039-4.072-66.4,7.466,2.71,14.254,3.387,21.72,3.387a493.774,493.774,0,0,0,4.073,63.686h81.451v.678a54.659,54.659,0,0,0,0,21h-76.7A278.5,278.5,0,0,0-3038.049,392.8Zm0,44.039c-21.041-27.778-31.223-62.332-38.011-96.208h-80.772A185.873,185.873,0,0,0-3038.049,436.844Zm71.271-107.048a51.516,51.516,0,0,1,51.586-51.492,51.516,51.516,0,0,1,51.586,51.492,51.516,51.516,0,0,1-51.586,51.491A51.516,51.516,0,0,1-2966.778,329.8Zm23.758,15.583,27.828,27.779,27.151-27.1-9.5-9.485-17.648,17.616-18.327-18.293Zm16.289-16.26,11.539,11.518,11.54-10.841-11.54-12.2Zm36.653.677,9.5,9.485,9.5-9.485-9.5-9.485Zm-68.556,0,9.5,9.485,9.5-9.485-9.5-9.485Zm16.291-16.261,9.5,10.163,18.327-18.293,17.648,17.616,8.824-10.163-27.151-27.1Zm21.042-46.071v-8.13c0-8.808,0-17.616-.678-25.746h5.43c5.43,0,10.86-1.355,16.291-2.71.677,8.808.677,18.293.677,27.779v10.162A76.583,76.583,0,0,0-2921.3,267.464Zm-202.271-84.69a61.936,61.936,0,0,1,61.768-61.654,61.936,61.936,0,0,1,61.768,61.654,61.936,61.936,0,0,1-61.768,61.654A61.937,61.937,0,0,1-3123.573,182.774Zm76.7,26.423L-3031.94,218l15.612-8.808V155.672l-15.612-8.808-14.933,8.808v16.261l-44.8-25.069-15.611,8.808v54.2l14.933,8.13,15.612-8.808V190.226l14.932,8.808,14.933-8.808Zm88.239-28.456a42.257,42.257,0,0,1,42.084-42.006,42.256,42.256,0,0,1,42.083,42.006,42.256,42.256,0,0,1-42.083,42.006A42.257,42.257,0,0,1-2958.633,180.741Zm42.084,35.231,21.042-29.811-21.042,12.2-21.042-12.2Zm-21.721-34.554,21.721,12.873,21.721-12.873-21.721-35.908Zm-51.585,12.2a58.175,58.175,0,0,0,.679-10.84,54.669,54.669,0,0,0-.679-10.841h20.364a76.53,76.53,0,0,0,.678,21.68Z" transform="translate(3197.871 -54.995)" fill="url(#linear-gradient)"/>
</svg>
