<?xml version="1.0"?>
<svg xmlns="http://www.w3.org/2000/svg" id="Layer_1" data-name="Layer 1" viewBox="0 0 64 64"><title>Dusk Part 4</title><polygon points="63 52 42.17 59 22 51 1 57 1 11 21.97 5 42.83 13 63 6 63 52" style="fill:#faefde;"/><polygon points="42.83 13 21 5.01 21 51 43.17 59 42.83 13" style="fill:#fff7f0;"/><polygon points="42.83 13 43.17 59 63 52 63 6 42.83 13" style="fill:#efd8be;"/><polygon points="42.83 18 20.97 10 5 14.66 5 50.67 21 46 43.17 54 59 48.57 59 12.63 42.83 18" style="fill:#c5e4fa;"/><polygon points="42.83 18 21 10.01 21 46 43.17 54 42.83 18" style="fill:#e3f2ff;"/><path d="M33.59,39.75h-1l-1.16-1a1,1,0,0,1-.28-.4l-.43-1.15a1,1,0,0,1-.06-.34V35.29l-.58-.77h-1a1,1,0,0,1-.27,0l-.65-.19a1,1,0,0,1-.69-.75l-.17-.84a1,1,0,0,1,.27-.89l.46-.46a1,1,0,0,0,.28-.8l-.05-.45a1,1,0,0,1,.7-1.05l.56-.16-1.36-1.36c-.19-.19,0-1,0-1l.39-.58h.58l1.55-.39.19-.77,1-1a1,1,0,0,1,.93-.26l1.67.42.24,0H36.3c.19,0,.19-1.36.39-1.55a7.72,7.72,0,0,0,.58-.77l1.55-.39v2.13c0-.39,1.36-1,1.36-1l1.64-.73.22-.07,1.64-.3a1,1,0,0,1,.69.13l2,1.21a1,1,0,0,0,.51.15h3.3l.19,0,1.69.34a1,1,0,0,1,.73,1.3l-.21.57a1,1,0,0,1-.59.59c-.33.11-.75.32-.75.67,0,.58-.94.16-.94.16a1,1,0,0,0-.8-.61l-.31,0a1,1,0,0,0-1.06.74l-.14.57a1,1,0,0,1-.12.28l-.89,1.42s-1,0-1,.19-.11.83-.16,1.17a.93.93,0,0,1-.13.35,9,9,0,0,1-.68,1c-.19.19-1,.77-1,1s-.39.19-.19.58.39,1.36.19,1.36h-1l-.71-1.6a1,1,0,0,1-.08-.29l0-.35c-.07-.63-1.49,1.47-1.49,1.47l-1,.77-.86-1.37a1,1,0,0,1-.14-.38l-.16-1.15-.77.19-.39,1-1,.69a1,1,0,0,0-.22.2l-.68.85-.39.77-.39,1.16v1s.19,1.16,0,1.36S33.59,39.75,33.59,39.75Z" style="fill:#72caaf;"/><path d="M37.07,39.32s-.15-1.8,0-1.8h1.2l-.54,1.09a.76.76,0,0,1-.14.2Z" style="fill:#72caaf;"/><path d="M45.66,39.67c.66-.28,1.5-.72,1.9-.93a1.09,1.09,0,0,1,.51-.13h2.15a1.1,1.1,0,0,1,.94.52l1.06,1.71a1.1,1.1,0,0,1,0,1.17l-.6.94a1.1,1.1,0,0,1-1.45.37l-.76-.42a1.1,1.1,0,0,0-1.3.19l-.22.22a1.1,1.1,0,0,1-1.16.25l-.54-.2a1.1,1.1,0,0,1-.68-.75L45,41A1.1,1.1,0,0,1,45.66,39.67Z" style="fill:#72caaf;"/><path d="M54.65,42.54,53.59,43.6s-.12.35,0,.47.47,0,.47,0l.59-.47.35-.47V42.07Z" style="fill:#72caaf;"/><path d="M50.07,28.94,49.3,30.1s-.58,1-.77,1-1,.19-.77.39a6.21,6.21,0,0,1,.58,1l.72-.29a1,1,0,0,0,.41-.31l.84-1.08a1,1,0,0,0,.13-1Z" style="fill:#72caaf;"/><path d="M46.91,34.68H48.5a1,1,0,0,1,.61.21l.7.56H47.88C47.69,35.46,46.91,34.68,46.91,34.68Z" style="fill:#72caaf;"/><path d="M30.68,20s-.39,1.55-.19,1.36a7.81,7.81,0,0,1,2.13,0l.39-1Z" style="fill:#72caaf;"/><path d="M18.92,43.17l.37-3.51a1,1,0,0,0-.05-.44l-.62-1.7a1,1,0,0,0-.3-.42l-.72-.6a1,1,0,0,1-.33-.52l-.21-.86a1,1,0,0,1,.11-.75l1-1.61.59-.79-3.31-1.29a1,1,0,0,1-.4-.28l-.85-1a1,1,0,0,0-.41-.28l-.69-.26a1,1,0,0,1-.65-.93V26.07a1,1,0,0,0-.29-.7l-.4-.4a1,1,0,0,0-.21-.16l-.74-.43a1,1,0,0,0-1,0l-.22.14a1,1,0,0,1-1.37-.32v0a1,1,0,0,1,.18-1.27l1.06-1a1,1,0,0,1,.67-.26h2.33a1,1,0,0,1,.45.11l1.23.61c.09,0,1.43-1,1.1-.92s-.68-.77-1-1c-.43-.39,2.16,0,2.16-.35A4,4,0,0,1,16.76,19a26.27,26.27,0,0,0,3.93,0,9.4,9.4,0,0,1,1.94-1.16,1,1,0,0,1,.86,0l1.17.52a1,1,0,0,1,.3.21l.75.75a1,1,0,0,1-.18,1.55l-.33.2a1,1,0,0,0-.31.3,6.16,6.16,0,0,0-.67,1.19v1.18l-.84.11a1,1,0,0,1-1-.58L22,22.37a1,1,0,0,0-.33-.41l-.57.55-.59,1s-.35,1-.23.89c.3-.16.92-.45,1.21-.3a3.12,3.12,0,0,1,.75.88,1,1,0,0,1-.13,1.25l-.49.49a1,1,0,0,1-.29.2l-2,.91.39.79L19.12,30l-1.18-.39L16,30l4.5,1-1,.59,1.9,1.38a1,1,0,0,0,.59.19h.84a1,1,0,0,1,.7.29l.2.2a1,1,0,0,1,.29.7v1.44A1,1,0,0,1,24,36a9.07,9.07,0,0,1-.57,1.86l-1,1a4.93,4.93,0,0,0-.79,1.38,15.17,15.17,0,0,1-.45,1.55,1,1,0,0,1-.53.59c-.28.13-.6.31-.6.42S18.92,43.17,18.92,43.17Z" style="fill:#72caaf;"/><path d="M63.16,5.78a2,2,0,0,0-1.82-.26l-18,6.3a1,1,0,0,1-.67,0L22,4.29a3,3,0,0,0-1.89-.05L1.43,9.83A2,2,0,0,0,0,11.74V55.66a2,2,0,0,0,2.57,1.92l18.08-5.42a1,1,0,0,1,.63,0L42,59.7a3,3,0,0,0,2,0l18.66-6.53A2,2,0,0,0,64,51.29V7.41A2,2,0,0,0,63.16,5.78ZM62,51.29,43.34,57.82a1,1,0,0,1-.67,0L22,50.29a3,3,0,0,0-1.89-.05L2,55.66V11.74l18.65-5.6a1,1,0,0,1,.63,0L42,13.7a3,3,0,0,0,2,0l18-6.3V51.29h0Z" style="fill:#8d6c9f;"/><path d="M59.16,12.33a2,2,0,0,0-1.81-.27L43,16.94,21.65,9.17a2,2,0,0,0-1.24,0l-15,4.36A2,2,0,0,0,4,15.42V49.33a2,2,0,0,0,2.56,1.92L21.28,47A1,1,0,0,0,20.72,45L6,49.33V15.42l15-4.36,21.36,7.77a2,2,0,0,0,1.33,0L58,14V47.84L42.68,53.05a1,1,0,1,0,.64,1.89l15.32-5.21A2,2,0,0,0,60,47.84V14A2,2,0,0,0,59.16,12.33Z" style="fill:#8d6c9f;"/><path d="M25,44.5a1,1,0,0,0-1,1v2a1,1,0,0,0,2,0v-2A1,1,0,0,0,25,44.5Z" style="fill:#8d6c9f;"/><path d="M30,46.5a1,1,0,0,0-1,1v2a1,1,0,0,0,2,0v-2A1,1,0,0,0,30,46.5Z" style="fill:#8d6c9f;"/><path d="M35,48.25a1,1,0,0,0-1,1v2a1,1,0,0,0,2,0v-2A1,1,0,0,0,35,48.25Z" style="fill:#8d6c9f;"/><path d="M40,50a1,1,0,0,0-1,1v2a1,1,0,0,0,2,0V51A1,1,0,0,0,40,50Z" style="fill:#8d6c9f;"/><path d="M43.07,35.52h1a1.12,1.12,0,0,0,.9-.51,2.45,2.45,0,0,0,0-1.89L45,33c.11-.11.31-.28.42-.37l.33-.29a6.28,6.28,0,0,0,.82-1.19,2,2,0,0,0,.26-.71l.08-.52a1,1,0,0,0,.91-.47L48.68,28a2,2,0,0,0,.24-.57L49,26.9l.29,0a1,1,0,0,0,.52.54,2,2,0,0,0,1.78,0,1.24,1.24,0,0,0,.54-.77l.1,0a1.94,1.94,0,0,0,1.21-1.2l.21-.57a2,2,0,0,0-1.47-2.62l-1.69-.34a2,2,0,0,0-.39,0H46.84l-2-1.21a2,2,0,0,0-1.39-.26l-1.65.3a2,2,0,0,0-.45.14l-1.58.7v-.23a1,1,0,0,0-1.24-1L37,20.77a1,1,0,0,0-.59.42,7.29,7.29,0,0,1-.45.62,2,2,0,0,0-.46,1.26h-.84L33,22.65a2,2,0,0,0-1.88.52l-1,1a1,1,0,0,0-.26.46l0,.19L29,25h-.46a1,1,0,0,0-.83.44l-.39.58a1,1,0,0,0-.14.31,1.94,1.94,0,0,0,.26,1.92l.36.36a2,2,0,0,0-.56,1.61l.06.44-.46.46a2,2,0,0,0-.54,1.79l.17.83a2,2,0,0,0,1.4,1.52l.65.19a2,2,0,0,0,.54.08h.52l.08.11v1.23a2,2,0,0,0,.13.7l.43,1.14a2,2,0,0,0,.57.81l1.16,1a1,1,0,0,0,.65.24h1a1,1,0,0,0,.63-.22c.3-.24,1-.83,1.24-1s.55-.55.29-2.14v-.72l.31-.94.31-.62L37,34.3l1-.69h0l0,.08L38.93,35a1,1,0,0,0,1.47.25l1-.77a1,1,0,0,0,.2-.22l.19-.27.39.89A1,1,0,0,0,43.07,35.52ZM40,33l-.25-.4-.16-1.15a1,1,0,0,0-1.23-.83l-.77.19a1,1,0,0,0-.69.6l-.27.68-.78.52a2,2,0,0,0-.45.41l-.68.85a.94.94,0,0,0-.11.18l-.39.77a.89.89,0,0,0-.05.13l-.39,1.16a1,1,0,0,0-.05.32v1a1,1,0,0,0,0,.17,6.12,6.12,0,0,1,.07.67l-.6.49H33L32.11,38l-.43-1.14V35.29a1,1,0,0,0-.2-.6l-.58-.77a1,1,0,0,0-.8-.4h-1l-.63-.17-.17-.82.46-.46a2,2,0,0,0,.57-1.62L29.24,30l.56-.16a1,1,0,0,0,.43-1.67l-1.14-1.14V27h0a1,1,0,0,0,.24,0l1.55-.39a1,1,0,0,0,.73-.73l.13-.51.75-.76,1.67.42a2,2,0,0,0,.48.06H36.3c1,0,1.11-1,1.19-1.61,0-.14,0-.29.06-.4l.27-.35v.82a1,1,0,0,0,1.94.34,5.33,5.33,0,0,1,.82-.44l1.63-.73,1.63-.3,2,1.21a2,2,0,0,0,1,.29h3.3l1.68.31-.17.56a2.44,2.44,0,0,0-1,.61,2,2,0,0,0-1-.44l-.31,0a2,2,0,0,0-2.14,1.49L47,27l-.61,1c-.61.06-1.4.29-1.4,1.14,0,.18-.1.75-.15,1-.31.5-.5.77-.53.81l-.21.18a4,4,0,0,0-.88.91,1.09,1.09,0,0,0-.79-.81C41.78,31,41.23,31.28,40,33Z" style="fill:#8d6c9f;"/><path d="M39.11,37a1,1,0,0,0-.85-.47h-1.2a1,1,0,0,0-.75.33c-.28.3-.41.55-.24,2.55a1,1,0,0,0,1.7.62l.51-.51a1.78,1.78,0,0,0,.33-.46L39.16,38A1,1,0,0,0,39.11,37Z" style="fill:#8d6c9f;"/><path d="M44.07,41.22l.45,1.67a2.1,2.1,0,0,0,1.29,1.42l.54.2a2.08,2.08,0,0,0,.73.13A2.11,2.11,0,0,0,48.57,44l.22-.22a.1.1,0,0,1,.12,0l.76.42a2.1,2.1,0,0,0,2.78-.72l.6-.94a2.11,2.11,0,0,0,0-2.23L52,38.62a2.11,2.11,0,0,0-1.79-1H48.07a2.07,2.07,0,0,0-1,.24c-.42.22-1.22.63-1.83.9A2.11,2.11,0,0,0,44.07,41.22Zm2-.63c.68-.29,1.53-.73,2-1l2.24,0,1.06,1.71a.1.1,0,0,1,0,.1l-.6.94a.1.1,0,0,1-.13,0L49.87,42a2.11,2.11,0,0,0-2.49.36l-.22.22a.1.1,0,0,1-.11,0l-.61-.27L46,40.71A.1.1,0,0,1,46.06,40.59Z" style="fill:#8d6c9f;"/><path d="M53.77,45.12a1.92,1.92,0,0,0,.6-.1,1,1,0,0,0,.31-.17l.59-.47a1,1,0,0,0,.17-.18l.35-.47a1,1,0,0,0,.2-.6V42.07a1,1,0,0,0-1.8-.6l-.31.41-1,1a1,1,0,0,0-.24.39,1.41,1.41,0,0,0,.24,1.49A1.23,1.23,0,0,0,53.77,45.12Z" style="fill:#8d6c9f;"/><path d="M47.44,32.87a1,1,0,0,0,1.27.48l.72-.29a2,2,0,0,0,.83-.62l.84-1.08a2,2,0,0,0,.26-2L51,28.54a1,1,0,0,0-1.75-.16l-.8,1.2c-.1.17-.25.39-.36.54A1.68,1.68,0,0,0,46.8,31,1.06,1.06,0,0,0,47,32.13,6.48,6.48,0,0,1,47.44,32.87Z" style="fill:#8d6c9f;"/><path d="M46,34.3a1,1,0,0,0,.22,1.09c1,1,1.34,1.07,1.68,1.07h1.94a1,1,0,0,0,.63-1.78l-.7-.56a2,2,0,0,0-1.24-.43H46.91A1,1,0,0,0,46,34.3Z" style="fill:#8d6c9f;"/><path d="M30.45,22.36a1.09,1.09,0,0,0,.43-.09,12.78,12.78,0,0,1,1.64.07,1,1,0,0,0,1-.62l.39-1a1,1,0,0,0-.76-1.36L30.85,19a1,1,0,0,0-1.13.74c-.31,1.24-.51,2.05.25,2.48A1,1,0,0,0,30.45,22.36Z" style="fill:#8d6c9f;"/><path d="M27,20.19a2,2,0,0,0-.57-1.64l-.75-.75a2,2,0,0,0-.6-.41l-1.17-.52a2,2,0,0,0-1.72,0,14.34,14.34,0,0,0-2,1.13c-.61,0-2.12,0-3.39-.08a1,1,0,0,0-.94.55,6.47,6.47,0,0,0-.34.81h-.39c-.87,0-1.6,0-1.9.72a1.06,1.06,0,0,0,.05.89h0a2,2,0,0,0-.89-.21H10.06a2,2,0,0,0-1.33.51l-1.06,1a2,2,0,0,0,.9,3.45,2,2,0,0,0,1.51-.25l.22-.14.74.42.4.4v1.85a2,2,0,0,0,1.29,1.87l.69.26.85,1a2,2,0,0,0,.79.56l2.11.82-.85,1.42a2,2,0,0,0-.22,1.51l.21.86A2,2,0,0,0,17,37.26l.72.6.62,1.69-.37,3.51a1,1,0,0,0,1,1.1h.16c.59-.1,1.48-.25,1.85-.8l.19-.09a2,2,0,0,0,1-1.19,14.12,14.12,0,0,0,.49-1.67,6.09,6.09,0,0,1,.51-.85l1-1c.18-.18.39-.38.83-2.35a2,2,0,0,0,0-.44V34.33a2,2,0,0,0-.59-1.41l-.2-.2a2,2,0,0,0-1.41-.58H22l-.73-.53A1,1,0,0,0,20.71,30l-.46-.1.38-.89a1,1,0,0,0,0-.7l1.06-.48a2,2,0,0,0,.59-.41l.5-.5a2,2,0,0,0,.46-2.12l.25,0,.84-.1a1,1,0,0,0,.88-1v-1c.07-.14.23-.4.5-.83l.33-.2A2,2,0,0,0,27,20.19ZM20.83,33.75a2,2,0,0,0,1.17.38h.83l.2.2v1.44a14.5,14.5,0,0,1-.4,1.48l-.88.88a5.31,5.31,0,0,0-1.07,2c0,.1-.13.49-.41,1.35l-.17.08.19-1.77a2,2,0,0,0-.11-.89l-.62-1.7a2,2,0,0,0-.6-.85l-.72-.6L18,34.87,19,33.3l.44-.58Zm3.85-13.58a2,2,0,0,0-.61.6c-.77,1.19-.83,1.45-.83,1.74v.21L22.9,22a2,2,0,0,0-.66-.81,1,1,0,0,0-1.28.1l-.57.55a1,1,0,0,0-.16.2l-.59,1a1,1,0,0,0-.08.17c-.3.83-.54,1.49,0,2a1,1,0,0,0,1.14.13,3.28,3.28,0,0,1,.37-.17c.07.09.17.22.29.41L20.9,26l-2,.91a1,1,0,0,0-.48,1.36l.19.37,0,.11-.31-.1a1,1,0,0,0-.52,0L15.79,29a1,1,0,0,0-.44.22l-.42-.5a2,2,0,0,0-.81-.57l-.69-.25V26.07a2,2,0,0,0-.58-1.41l-.4-.4a2,2,0,0,0-.42-.32l-.74-.43a2,2,0,0,0-2,0L9,23.68l1.06-1h2.33l1.23.61c.89.44,2-.73,2.32-1.1a1.14,1.14,0,0,0,.25-.93,1.41,1.41,0,0,0,.85-.37,1.06,1.06,0,0,0,.33-.75,1,1,0,0,1,0-.18c3.5.16,3.66,0,4-.29l.1-.12c.18-.12.65-.4,1.6-.89l1.17.52L25,20Z" style="fill:#8d6c9f;"/></svg>
