<?xml version="1.0" encoding="utf-8"?>
<!-- Generator: Adobe Illustrator 21.1.0, SVG Export Plug-In . SVG Version: 6.00 Build 0)  -->
<svg version="1.1" id="Capa_1" xmlns="http://www.w3.org/2000/svg" xmlns:xlink="http://www.w3.org/1999/xlink" x="0px" y="0px"
	 viewBox="0 0 1400 980" style="enable-background:new 0 0 1400 980;" xml:space="preserve">
<style type="text/css">
	.st0{fill:#E4BBD6; fill-opacity: 0;}
	.st1{fill:#F2DED4;}
	.st2{fill:#87868A;}
	.st3{fill:#DDBC68;}
	.st4{fill:#B9DAF4;}
	.st5{fill:#AECCB4;}
	.st6{fill:#709330;stroke:#000000;stroke-miterlimit:10;}
</style>
<rect class="st0" width="1400" height="980"/>
<path d="M42.4,852.7c0.9,0,1.8,0,2.6,0c52,0,104,0,156,0c4.2,0,3.7,0.5,3.7-3.7c0-47.8,0-95.5,0-143.3c0-4.3-0.5-3.6,3.7-3.7
	c33.3,0,66.6,0,99.8,0c3.9,0,3.5,0.4,3.5-3.5c0-47,0-93.9,0-140.9c0-1,0-1.9,0-2.9c0-3.3-0.5-3.3,3.5-3.3c14.9,0,29.8,0,44.6,0
	c0.9,0,1.8,0,2.6,0c0.8,0,1.2-0.4,1.2-1.2c0-0.9,0-1.8,0-2.6c0-0.6,0-1.3,0-1.9c0.1-1,0.3-1.3,1.3-1.4c0.6-0.1,1.3-0.1,1.9-0.1
	c3.8,0,7.7,0,11.5,0c0.6,0,1.3,0,1.9,0c1.3-0.1,1.5-0.2,1.5-1.6c0-2.2,0-4.3,0-6.5c0-1.5,0.2-1.7,1.7-1.7c3.8,0,7.5,0,11.3,0
	c2.3,0,2.3,0,2.3-2.2c0-1.9,0-3.8,0-5.8c0-1.6,0.1-1.6,1.6-1.7c3.4,0,6.9,0,10.3,0c1.6,0,3.2,0,4.8,0c1.3,0,1.4-0.2,1.5-1.4
	c0-0.6,0-1.1,0-1.7c0-22.1,0-44.2,0-66.2c0-3.1,0.4-3.2-3.1-3.2c-15.1,0-30.2,0-45.4,0c-2.9,0-3,0.4-3.5-3
	c-1.4-9.9-2.8-19.8-4.3-29.7c-1.4-9.3-2.8-18.6-4.1-28c-1.7-11.5-3.3-23.1-5-34.6c-1.2-8.4-2.5-16.8-3.7-25.1
	c-0.1-0.5-0.2-1.1-0.4-1.6c-3.8-9.5-10.2-16.2-20.5-18.3c-8.8-1.8-16.7,0.6-23.3,6.6c-6.3,5.7-9.4,13-9.9,21.4
	c-0.4,6,0.3,11.8,2.9,17.3c1.8,3.9,4.3,7.3,7.3,10.4c3.9,4.1,8.3,7.5,12.9,10.7c3.8,2.6,7.7,5.2,11.5,7.8c3.6,2.5,7.2,5.1,10.2,8.3
	c3.3,3.4,5.7,7.3,6.3,12.1c0.2,1.3,0.2,2.6,0.1,3.8c0,0.8-0.4,1-1.3,1c-0.7,0-1.2-0.3-1.3-1.1c0-1,0-2.1-0.1-3.1
	c-0.4-3-1.6-5.7-3.4-8.1c-2.3-3-5-5.6-8.1-7.8c-4.8-3.4-9.6-6.6-14.4-9.9c-5.1-3.5-10-7.2-14.3-11.6c-5-5.2-8.7-11.1-10.2-18.2
	c-1.9-9.1-1.3-18,3.2-26.3c4.9-9.1,12.5-14.8,22.7-16.2c10.1-1.4,18.8,1.8,25.7,9.4c0.7,0.8,1.4,1.6,2.1,2.3
	c0.1,0.1,0.3,0.2,0.4,0.1c0.1-0.1,0.2-0.3,0.2-0.4c-0.3-2.3-0.6-4.6-0.9-6.9c-0.7-5-1.4-10-2.2-14.9c-0.9-5.1-0.6-10.2-0.4-15.3
	c0.5-8.8,7.8-15.7,16.7-16.1c0.8,0,1.6,0,2.4,0c14.5,0,29,0,43.4,0c0.8,0,1.6,0,2.4,0c1.8,0,2.3,0.2,2.8-2.3c1-4.6,3.8-8.1,8.3-9.9
	c6-2.5,12.8-0.2,16.3,5.4c1,1.6,1.7,3.3,2,5.1c0.3,1.6,0.4,1.6,2.1,1.7c0.8,0,1.6,0,2.4,0c15,0,29.9,0,44.9,0c2,0,4,0.2,5.9,0.7
	c7.7,2.2,12.5,9.5,12.4,16.4c0,3.1,0.1,6.2,0.1,9.3c0,0.7-0.1,1.4-0.2,2.1c-0.9,5.9-1.8,11.9-2.6,17.8c-0.4,2.4-0.7,4.7-1,7.1
	c0,0.2,0.1,0.4,0.3,0.5c0.1,0,0.3-0.1,0.4-0.2c0.4-0.4,0.7-0.9,1.1-1.3c4.8-6.1,11.1-9.9,18.8-10.9c9.2-1.2,17.4,1.4,24.3,7.8
	c6.7,6.2,10,14.1,10.6,23.2c0.6,9-1.5,17.3-6.8,24.7c-2.9,4-6.3,7.5-10.2,10.5c-4.5,3.4-9.2,6.6-13.8,9.9c-3.1,2.2-6.4,4.3-9.4,6.6
	c-2,1.5-4,3.3-5.7,5.1c-3.5,3.6-5.7,7.9-5.5,13.1c0.1,1.3-0.2,1.5-1.3,1.5c-1,0.1-1.3-0.2-1.4-1.2c-0.3-4.3,0.9-8.2,3.3-11.8
	c1.8-2.8,4.1-5.2,6.7-7.2c3.1-2.4,6.3-4.7,9.5-7c4.2-2.9,8.5-5.7,12.6-8.7c4-2.9,7.8-6.1,11-10c9.3-11.3,10.9-23.9,5.4-37.3
	c-3.5-8.4-10.1-14.1-19.1-16.1c-10.6-2.4-19.6,0.8-26.6,9.1c-2.3,2.8-4.2,5.9-5.2,9.4c-0.8,2.5-1.1,5.1-1.5,7.8
	c-1.4,9.5-2.8,19-4.2,28.5c-1.2,8.3-2.4,16.6-3.6,24.9c-1.2,8.1-2.4,16.3-3.6,24.4c-1,7.1-2.1,14.2-3.1,21.4
	c-0.6,4.3-1.3,8.7-1.9,13c-0.2,1.6-0.3,1.6-2,1.7c-0.7,0-1.4,0-2.2,0c-14.7,0-29.4,0-44.2,0c-4,0-3.5-0.1-3.5,3.6
	c0,21.9,0,43.8,0,65.8c0,3.5-0.2,3.2,3.3,3.2c4,0,8,0,12,0c0.6,0,1.1,0,1.7,0c1.1,0.1,1.2,0.2,1.2,1.3c0,2,0,4,0,6
	c0,2.3,0,2.3,2.4,2.3c3.4,0,6.7,0,10.1,0c0.6,0,1.1,0,1.7,0c0.7,0,1,0.3,1.1,1c0,0.5,0,1,0,1.4c0,1.7,0,3.4,0,5c0,2.2,0,2.2,2.3,2.2
	c0.6,0,1.1,0,1.7,0c3.2,0,6.4,0,9.6,0c0.5,0,1,0,1.4,0c3.1,0,3.1,0,3.1,3c0,0.9,0,1.8,0,2.6c0.1,1.3,0.2,1.4,1.6,1.5
	c0.8,0,1.6,0,2.4,0c14.1,0,28.2,0,42.2,0c5.1,0,4.4-0.4,4.4,4.3c0,47.4,0,94.9,0,142.3c0,4.6-0.4,3.9,4,3.9c33.8,0,67.5,0,101.3,0
	c3.4,0,3.1-0.4,3.1,3c0,48,0,96,0,144c0,0.9,0,1.8,0.1,2.6c0,0.6,0.4,0.9,0.9,0.9c0.9,0,1.8,0,2.6,0c47,0,93.9,0,140.9,0
	c7.9,0,15.8,0,23.8,0c2.7,0,2.7,0,2.7-2.6c0-3.6,0-7.2,0-10.8c0-1.8,0-1.8,1.8-2.1c3.1-0.4,6.2-0.8,9.3-1.2c4.5-0.6,9-1.1,13.5-1.7
	c4.4-0.5,8.7-1.1,13.1-1.7c4.5-0.6,9-1.1,13.6-1.7c4.4-0.6,8.9-1.1,13.3-1.7c5.1-0.6,10.1-1.3,15.2-1.9c1.1-0.1,1.3-0.4,1.3-1.6
	c-0.3-4.8-0.7-9.6-1-14.4c-0.2-2.9-0.5-5.7-0.7-8.6c-0.6-8.1-1.1-16.1-1.6-24.2c-0.6-9.1-1.3-18.2-1.9-27.3
	c-0.5-6.7-0.9-13.4-1.4-20.1c-0.6-8.9-1.3-17.7-1.9-26.6c0-0.3-0.1-0.6-0.1-1c-0.1-0.8-0.5-1.3-1.4-1.3c-0.7,0-1.4,0-2.2,0
	c-14.4,0-28.8,0-43.2,0c-3.3,0-2.9,0.1-2.6-2.8c0.6-5.7,1.2-11.4,1.8-17.2c0.1-1.3,0.1-2.7,0.1-4c-1.1-0.5-2.3-1.1-3.4-1.6
	c-14.2-5.8-23.8-16.1-29.2-30.4c-2.1-5.6-3.3-11.3-3.9-17.3c-1.4-15,1.1-29.5,6-43.6c6.1-17.4,15.6-32.9,27.6-46.8
	c4.7-5.5,9.8-10.6,15.2-15.4c0.4-0.4,0.8-0.7,1.2-1.1c0.4-0.4,0.5-0.8,0-1.2c-0.4-0.4-0.9-0.7-1.3-1.1c-15.6-12.7-28.3-27.9-38-45.6
	c-8.4-15.5-13.9-31.9-16.7-49.3c-1.7-10.7-2.3-21.5-1.7-32.3c1.1-19.5,5.8-38.2,14-55.9c7.8-16.9,18.4-31.8,31.7-44.8
	c2.1-2.1,4.3-4,6.5-6c0.2-0.1,0.4-0.5,0.3-0.6c-0.2-0.2-0.5-0.4-0.7-0.5c-0.7-0.1-1.4,0-2.2,0c-11,0-21.9,0-32.9,0
	c-0.8,0-1.6-0.1-2.3-0.2c0-1.1,1-1.3,1.7-1.8c7.3-6.2,14.7-12.4,22-18.6c0.4-0.4,0.8-0.7,1.3-1.1c1.9-1.6,1.9-1.6-0.5-2.6
	c-4-1.7-8.1-3.4-12.2-5.1c-4.3-1.8-8.6-3.6-12.8-5.3c-0.5-0.2-1-0.4-1.5-0.7c-0.4-0.2-0.4-0.5-0.1-0.7c0.5-0.3,1-0.6,1.4-0.8
	c8.2-4.7,16.4-9.3,24.6-14c0.2-0.1,0.4-0.2,0.6-0.4c2.2-1.3,2.2-1.3,0.1-2.7c-7.9-5.1-15.7-10.1-23.6-15.2c-0.5-0.3-1.1-0.7-1.6-1.1
	c-0.2-0.1-0.2-0.4-0.3-0.6c0.1-0.1,0.3-0.2,0.4-0.2c0.8,0,1.6,0,2.4,0c50.5,0,101,0,151.4,0c4.1,0,8.2-0.1,12.2,0.1
	c9.4,0.3,18.6,2,27.4,5.3c4.9,1.8,9.5,4.3,13.5,7.7c6.7,5.8,10.4,13.1,10.7,22c0.1,3.4,0.2,6.9,0.9,10.3c1.2,6.1,4.6,10.4,10.2,13.1
	c3.5,1.6,7.2,2.6,10.9,3.7c4.5,1.2,8.9,2.5,13.2,4.3c9.5,4,16.5,10.7,21.3,19.9c3.7,7.2,5.9,14.8,7.3,22.7
	c1.7,9.6,2.5,19.3,2.5,29.1c0,0.5,0,1,0,1.4c0.1,1,0.3,1.2,1.4,1.2c2.6,0.1,5.1,0.1,7.6,0.4c13.7,1.9,27.2,12.3,30.1,28.9
	c3.4,19.5-9.5,37.7-28.6,41.2c-1.1,0.2-2.2,0.3-3.3,0.5c-1.6,0.2-1.7,0.3-2,1.8c-0.8,3.8-1.5,7.7-2.5,11.5
	c-6.6,25.6-18.9,48.1-37,67.4c-4.3,4.6-8.8,8.8-13.6,12.8c-0.4,0.3-0.7,0.6-1.1,0.9c-0.5,0.4-0.4,0.8,0,1.2c0.8,0.7,1.5,1.4,2.3,2.1
	c7.2,6.3,13.7,13.2,19.6,20.7c11.2,14.2,19.9,29.7,25.1,47.1c3.4,11.2,5.1,22.6,4.5,34.3c-0.5,10.4-2.9,20.4-8.1,29.5
	c-5.9,10.4-14.5,17.7-25.7,22.1c-2.4,0.9-2.4,0.9-2,3.5c0.9,6.6,1.8,13.1,2.7,19.7c0.1,0.4,0.1,0.8,0.1,1.2c0.1,0.7-0.3,1-1,1
	c-0.7,0-1.4,0-2.2,0c-14.9,0-29.8,0-44.6,0c-0.6,0-1.3,0-1.9,0c-2.6,0-2.6,0-2.7,2.4c-0.2,3.1-0.5,6.2-0.7,9.3
	c-0.6,8.1-1.1,16.1-1.6,24.2c-0.6,9.1-1.3,18.2-1.9,27.3c-0.6,9.1-1.3,18.2-1.9,27.3c-0.6,9.1-1.3,18.2-1.9,27.3
	c-0.1,1.2-0.3,2.4-0.3,3.6c0,1.3,0.1,1.5,1.4,1.7c4,0.7,8,1.3,12.1,1.9c5.6,0.9,11.2,1.7,16.8,2.6c5.7,0.9,11.4,1.8,17,2.7
	c5.6,0.9,11.2,1.8,16.8,2.7c3.6,0.6,7.3,1.1,10.9,1.7c3.3,0.6,3,0.3,3,3.3c0,3,0,5.9,0,8.9c0,0.5,0,1,0,1.4
	c-0.1,1.3-0.3,1.5-1.6,1.6c-0.5,0-1,0-1.4,0c-32.6,0-65.1,0-97.7,0c-0.1,0-0.2,0-0.2,0c-2.8,0-2.8,0-2.8-2.7c0-5-0.1-9.9,0-14.9
	c0.1-4.9-0.6-9.7-1.2-14.5c-1.1-7.4-2.1-14.7-3.1-22.1c-1.1-7.6-2.1-15.2-3.2-22.8c-0.7-5.5-1.4-10.9-2.2-16.4
	c-1.2-8.7-2.3-17.4-4.8-25.9c-0.6-2.2-1.5-4.4-2.4-6.5c-0.9-2.1-2.2-3.9-3.9-5.4c-2.5-2.2-5.4-3-8.7-2.4c-2.2,0.4-3.8,1.6-5.2,3.1
	c-1.6,1.7-2.6,3.8-3.6,5.9c-2,4.6-3.2,9.5-4.3,14.5c-1.9,9-3.1,18.1-4.4,27.2c-1.2,8.4-2.4,16.8-3.6,25.2c-1,7.3-2,14.6-3.1,21.8
	c-0.5,3.9-1.1,7.8-1.6,11.6c-0.2,1-0.2,2-0.9,2.9c-0.3,0.4-0.3,1.1-0.3,1.6c0,6,0,12,0,18c0,0.3,0,0.6,0,1c0,0.8,0.4,1.2,1.2,1.2
	c0.6,0,1.1,0,1.7,0c17,0,34.1,0,51.1,0c34.4,0,68.8-0.1,103.2-0.1c88.7,0,177.4,0.1,266.1,0.1c1.1,0,2.2,0,3.3,0c0,1,0,1.9,0,2.9
	c-1,0-1.9-0.1-2.9-0.1c-431.5,0-863,0-1294.6,0c-1,0-1.9,0-2.9,0.1C42.4,854.6,42.4,853.6,42.4,852.7z"/>
<path class="st1" d="M794,401.1c-0.1,6.2,0.4,12.3,1.1,18.4c1.4,11,3.9,21.7,7.7,32.1c8.2,22.8,21.1,42.6,38.9,59.2
	c11.2,10.4,23.7,19,37.5,25.6c18.6,9,38.3,13.8,58.9,14.8c7.8,0.4,15.7,0,23.5-1c9.9-1.2,19.5-3.3,29-6.4
	c23.8-7.8,44.4-20.7,61.7-38.7c13.8-14.4,24.3-30.9,31.5-49.4c3.8-9.6,6.5-19.5,8.2-29.8c0.5-3,0.5-3.1,3.5-3.2
	c2.8-0.1,5.5-0.7,8.2-1.6c22.1-7.2,29.8-34.7,14.7-52.2c-6-7-13.8-10.7-22.9-11.6c-1.8-0.2-3.7-0.3-5.5,0.2c-1.4,0.4-2.6,0.6-4,0.5
	c-3.4-0.3-6.8-0.7-10.2-1.5c-11-2.8-20.9-7.8-30.1-14.4c-8.4-6.1-15.6-13.5-21-22.4c-6-9.9-10.1-20.5-12.4-31.8
	c-0.7-3.3-0.8-2.9-3.7-2.9c-52.2,0-104.5,0-156.7,0c-1.8,0-3.2,0.5-4.5,1.6c-11.4,9.7-21.1,20.7-29.2,33.2
	C802.2,344.5,794.2,371.6,794,401.1z"/>
<path class="st2" d="M421.4,702.1c34.6,0,69.1,0,103.7,0c3.7,0,3.3,0.4,3.3-3.3c0-47,0-94.1,0-141.1c0-0.6,0-1.3,0-1.9
	c-0.1-1.2-0.2-1.4-1.4-1.5c-0.7-0.1-1.4,0-2.2,0c-69,0-137.9,0-206.9,0c-4,0-3.5-0.1-3.5,3.6c0,47,0,93.9,0,140.9
	c0,3.9-0.4,3.5,3.4,3.5C352.5,702.1,386.9,702.1,421.4,702.1z"/>
<path class="st2" d="M529.8,852.7c34.6,0,69.1,0,103.7,0c3.6,0,3.3,0.3,3.3-3.4c0-47,0-94.1,0-141.1c0-0.6,0-1.3,0-1.9
	c-0.1-1.2-0.2-1.4-1.4-1.5c-0.6,0-1.3,0-1.9,0c-69.1,0-138.2,0-207.3,0c-3.6,0-3.3-0.3-3.3,3.4c0,47,0,94.1,0,141.1
	c0,0.6,0,1.3,0,1.9c0.1,1.2,0.2,1.4,1.4,1.5c0.8,0,1.6,0,2.4,0C461,852.7,495.4,852.7,529.8,852.7z"/>
<path class="st2" d="M313.8,704.8c-34.2,0-68.5,0-102.7,0c-0.9,0-1.8,0-2.6,0.1c-0.5,0-0.9,0.4-0.9,0.9c0,0.9-0.1,1.8-0.1,2.6
	c0,46.9,0,93.7,0,140.6c0,4.2-0.4,3.7,3.7,3.7c68.3,0,136.6,0,204.9,0c4.3,0,4,0.7,4-3.9c0-40.2,0-80.5,0-120.7c0-6.7,0-13.4,0-20.2
	c0-0.7,0.1-1.5-0.1-2.1c-0.1-0.4-0.6-0.8-0.9-0.9c-0.9-0.1-1.8-0.1-2.6-0.1C382.3,704.8,348.1,704.8,313.8,704.8z"/>
<path class="st3" d="M422.4,296.3c-24.8,0-49.6,0-74.4,0c-0.7,0-1.4,0-2.2,0c-1.5,0.1-1.7,0.2-1.5,1.7c0.3,2.7,0.7,5.4,1.1,8.1
	c1.2,8.2,2.4,16.4,3.6,24.7c1.2,8.2,2.3,16.5,3.5,24.7c1.4,9.3,2.8,18.5,4.1,27.7c1.4,9.4,2.7,18.8,4.1,28.2
	c1.6,10.8,3.2,21.7,4.7,32.5c0.2,1.5,0.4,3,0.7,4.5c0.2,1.2,0.3,1.3,1.6,1.3c0.9,0,1.8,0,2.6,0c34.6,0,69.1,0,103.7,0
	c0.7,0,1.4,0,2.2,0c1.6-0.1,1.8-0.2,2-1.7c0.1-0.3,0.1-0.6,0.1-1c0.9-5.9,1.7-11.9,2.6-17.8c1.4-9.5,2.8-19,4.2-28.5
	c1-7,2-13.9,3-20.9c1.2-8.1,2.4-16.3,3.6-24.4c1.4-9.3,2.7-18.7,4-28c1.4-9.3,2.8-18.6,4.1-28c0.5-3.4,0.8-3.2-2.9-3.2
	C472.1,296.3,447.2,296.3,422.4,296.3z"/>
<path class="st4" d="M945.1,622.3c32,0,64,0,96,0c0.9,0,1.8,0,2.6,0c0.8,0,1.2-0.5,1.1-1.3c-0.2-1.7-0.4-3.5-0.6-5.2
	c-0.9-6.7-1.8-13.5-2.7-20.2c-0.9-6.6-1.7-13.2-2.6-19.7c-1-7.8-2.1-15.7-3.1-23.5c-1-7.8-2-15.7-3.1-23.5c-0.4-2.8-0.4-2.7-2.7-1.2
	c-24.1,16.2-50.6,24.9-79.5,26.3c-11.4,0.6-22.7-0.3-33.9-2.4c-21-3.9-40.4-11.8-58.1-23.8c-2.9-2-2.9-2.4-3.3,1.7
	c-0.7,6.8-1.4,13.7-2.1,20.5c-0.7,6.8-1.5,13.7-2.2,20.5c-0.7,6.8-1.4,13.7-2.1,20.5c-1,9.7-2.1,19.4-3.1,29.1
	c-0.2,2.1-0.1,2.2,1.9,2.3c0.8,0,1.6,0,2.4,0C881.6,622.3,913.3,622.3,945.1,622.3z"/>
<path class="st5" d="M944.8,702.4c-18.3,0-36.6,0-55,0c-3.6,0-3.4-0.2-3.2,3.4c0.4,6,0.9,12,1.3,17.9c0.4,6.1,0.8,12.1,1.2,18.2
	c0.6,9.1,1.3,18.2,1.9,27.3c0.2,2.5,0.3,4.9,0.5,7.4c0.6,7.8,1.2,15.6,1.7,23.4c0.4,5.7,0.7,11.3,1.1,17c0.2,2.7,0.4,5.4,0.7,8.1
	c0.2,1.7,0.2,1.7,1.9,1.7c4.6,0,9.1,0,13.7,0c3.5,0,2.9,0.3,3.4-3.1c1-6.2,1.7-12.5,2.6-18.8c1.4-9.7,2.7-19.3,4.1-28.9
	c1.4-9.8,2.9-19.6,4.4-29.4c0.9-5.9,2.3-11.8,4.3-17.4c1.2-3.3,2.6-6.3,4.7-9.1c5.5-7.5,16-6.6,21.1-0.6c1.8,2.2,3.2,4.6,4.3,7.2
	c1.8,4.4,2.9,9,3.8,13.6c2.3,12.2,3.6,24.5,5.3,36.8c0.9,6.3,1.8,12.7,2.6,19c0.7,5.2,1.5,10.4,2.2,15.7c0.5,3.8,1.1,7.6,1.6,11.4
	c0.3,1.8,0.3,1.8,2.1,1.8c5,0,10.1,0,15.1,0c0.3,0,0.6,0,1,0c0.5,0,0.9-0.3,1-0.9c0-0.4,0.1-0.8,0.1-1.2c0.4-5.4,0.8-10.8,1.2-16.3
	c0.6-9,1.3-18,1.9-27c0.6-9.2,1.3-18.3,1.9-27.5c0.5-6.8,1-13.6,1.4-20.3c0.6-9,1.3-18,1.9-27c0.1-2.1,0-2.2-2-2.3
	c-0.6,0-1.3,0-1.9,0C980.9,702.4,962.9,702.4,944.8,702.4z"/>
<path d="M945.6,674.9c34.1,0,68.1,0,102.2,0c1,0,1.9,0,2.9-0.1c0.7,0,1-0.3,0.9-1.1c-0.2-1.7-0.4-3.5-0.6-5.2c-0.6-5-1.3-10-2-15
	c-0.2-1.2-0.4-1.4-1.5-1.5c-0.8-0.1-1.6,0-2.4,0c-66.5,0-132.9,0-199.4,0c-0.6,0-1.3,0-1.9,0c-1.6,0.1-1.7,0.2-1.9,1.8
	c-0.4,4-0.9,7.9-1.3,11.9c-0.3,2.5-0.5,4.9-0.7,7.4c-0.1,1.5,0,1.6,1.5,1.7c1,0,1.9,0,2.9,0C878.1,674.9,911.9,674.9,945.6,674.9z"
	/>
<path class="st4" d="M945.1,648.5c22.6,0,45.1,0,67.7,0c10.9,0,21.8,0,32.6,0c3,0,3.1-0.1,2.6-3.1c-0.8-5.5-1.6-11.1-2.2-16.6
	c-0.4-3.4-0.8-2.8-3.2-2.8c-65,0-129.9,0-194.9,0c-0.6,0-1.3,0-1.9,0c-0.5,0-0.9,0.3-0.9,0.9c-0.1,0.6-0.2,1.1-0.3,1.7
	c-0.4,3.3-0.7,6.7-1.1,10c-0.3,2.9-0.6,5.7-0.9,8.6c-0.1,1,0.1,1.3,1.2,1.4c1,0.1,2.1,0.1,3.1,0.1
	C879.6,648.5,912.4,648.5,945.1,648.5z"/>
<path class="st4" d="M1088.7,620.7c-0.3-3.6-0.4-7.2-0.8-10.7c-1.3-10.1-4-19.9-7.9-29.3c-9.2-22.2-23.5-40.8-41.6-56.4
	c-0.6-0.5-1.1-1.6-2.2-1c-0.9,0.5-0.4,1.5-0.3,2.2c0.8,6,1.6,12,2.4,18.1c1.2,9.2,2.4,18.4,3.6,27.6c1.5,11.5,3.1,23,4.6,34.4
	c1.4,10.4,2.7,20.8,4,31.1c1.5,11.6,3.1,23.1,4.6,34.7c0.4,2.7,0.4,2.7,2.9,1.7c0.4-0.2,0.7-0.3,1.1-0.5
	c11.6-5.2,19.7-13.8,24.5-25.4C1087.2,638.8,1088.5,629.9,1088.7,620.7z"/>
<path class="st4" d="M945.8,698.7c35,0,70,0,105.1,0c0.7,0,1.4,0,2.2,0c1.9,0,2-0.2,1.8-2.1c0-0.2-0.1-0.3-0.1-0.5
	c-0.6-4.5-1.1-9-1.8-13.5c-0.7-4.6,0.2-4.1-4.5-4.1c-68.4,0-136.7,0-205.1,0c-0.7,0-1.4,0-2.2,0c-1.6,0.1-1.8,0.2-2,1.8
	c-0.5,5-1,10-1.5,15c-0.1,1-0.1,2.1-0.2,3.1c1,0.7,2.2,0.4,3.3,0.4C875.7,698.7,910.7,698.7,945.8,698.7z"/>
<path class="st4" d="M802.2,621.8c0.1,1.3,0.2,3.8,0.4,6.3c0.5,6.1,1.8,12,4,17.7c4.9,12.7,13.5,21.9,26.1,27.2
	c0.8,0.3,1.6,0.6,2.5,0.9c0.6,0.2,0.9-0.1,1.1-0.6c0.1-0.5,0.2-1.1,0.2-1.7c0.2-2.2,0.4-4.5,0.7-6.7c0.6-5.5,1.2-11,1.8-16.4
	c0.5-5.2,1.1-10.3,1.6-15.5c0.6-5.4,1.2-10.8,1.7-16.2c0.6-5.2,1.1-10.5,1.6-15.7c0.6-5.2,1.1-10.5,1.7-15.7
	c0.6-5.2,1.1-10.5,1.6-15.7c0.7-6.8,1.5-13.5,2.2-20.3c0.8-7.3,1.6-14.6,2.3-21.9c0.1-0.7-0.1-1.3-0.2-2c-0.6,0.4-1.3,0.6-1.8,1.1
	c-3.4,3.3-6.9,6.5-10.1,9.9c-13.3,14.1-23.7,30.1-30.5,48.4C804.8,596.4,802.3,608.3,802.2,621.8z"/>
<path class="st3" d="M421.9,293.6c24.9,0,49.8,0,74.6,0c0.6,0,1.3,0,1.9,0c2,0,2,0,2.1-2c0-2.3,0-4.6,0-7c0.2-6-4.5-13.2-12.4-14.4
	c-1.3-0.2-2.7-0.3-4.1-0.3c-41.3,0-82.6,0-123.8,0c-0.7,0-1.4,0-2.2,0c-7.8,0.4-13.9,6.4-14.3,14.1c-0.1,2.1-0.1,4.2-0.1,6.2
	c0,3.5-0.3,3.2,3.3,3.2C372,293.6,396.9,293.6,421.9,293.6z"/>
<path class="st3" d="M418.2,488.6c0,11,0,22.1,0,33.1c0,0.7,0,1.4,0,2.2c0,0.7,0.4,1,1.1,1c1.4,0,2.7,0,4.1,0c2.8,0,2.7,0.1,2.7-2.8
	c0-0.1,0-0.2,0-0.2c0-22.1,0-44.3,0-66.4c0-0.6,0-1.3,0-1.9c0-0.7-0.4-1-1.1-1.1c-1.4,0-2.7-0.1-4.1-0.1c-2.7,0-2.7,0-2.7,2.8
	C418.2,466.4,418.2,477.5,418.2,488.6z"/>
<path class="st3" d="M422.1,534.6c6.4,0,12.8,0,19.2,0c0.6,0,1.3,0,1.9,0c0.8,0,1.1-0.4,1.1-1.2c0-1,0-1.9,0-2.9
	c0-3.1,0.2-2.8-2.9-2.8c-12.9,0-25.7,0-38.6,0c-0.6,0-1.1,0-1.7,0c-1,0.1-1.2,0.2-1.2,1.3c0,1.2,0,2.4,0,3.6c0,2,0,2,2,2
	c0.5,0,1,0,1.4,0C409.7,534.6,415.9,534.6,422.1,534.6z"/>
<path class="st3" d="M422.4,267.3c3,0,6.1,0,9.1,0c1.4,0,1.6-0.3,1.3-1.6c-1.3-5.5-6-8.9-10.6-8.9c-4.9,0-9.4,3.7-10.7,8.8
	c-0.3,1.3-0.1,1.6,1.5,1.7C416.1,267.4,419.2,267.3,422.4,267.3z"/>
<path class="st6" d="M610.9,439.7c4.9-3.7,10.3-5.7,16.5-5.4c4.4,0.2,8.7,1.4,12.7,3.3c1.3,0.6,1.4,0.9,0.5,1.9
	c-3.3,3.8-7.1,6.9-11.7,9c-5.8,2.5-11.7,2.4-17.6,0.7c-1.7-0.5-3.3-1.1-5-1.8c-0.8-0.3-1.3-0.2-1.8,0.5c-1.6,2-3.2,4-4.7,6
	c-0.8,1-1.6,2-2.4,3c-0.2,0.2-0.3,0.5-0.4,0.8c0.4,0,0.7,0,1.1-0.1c0.4-0.1,0.7-0.3,1.1-0.5c6.9-3.1,13.8-3.1,20.7-0.3
	c2.8,1.2,5.4,2.7,7.8,4.6c1,0.8,1,1,0,1.8c-5.9,4.5-12.4,7.3-19.9,6.8c-4.5-0.3-8.5-1.9-12.4-4.1c-0.7-0.4-1.4-0.8-2-1.3
	c-2.1-1.4-1.7-1.3-3.3,0.3c-2.7,2.5-5.4,5-8,7.6c-0.5,0.5-0.9,1.1-1.3,1.6l0-0.1c0.7-0.1,1.4-0.2,2.1-0.5c7.6-2.4,14.8-1.3,21.6,2.8
	c2.2,1.4,4.4,2.9,6.2,4.9c0.4,0.4,0.4,0.9-0.1,1.2c-1.4,0.8-2.7,1.6-4.2,2.3c-3.6,1.7-7.3,2.8-11.3,3c-6.3,0.4-11.8-1.8-16.8-5.3
	c-1.2-0.8-2.3-1.8-3.4-2.7c-0.6-0.5-1.1-0.5-1.7-0.1c-3.2,2.3-6.4,4.6-9.5,6.8c-0.2,0.1-0.2,0.4-0.3,0.6c0.2,0,0.4,0.1,0.6,0.1
	c1-0.1,2.1-0.2,3.1-0.4c5-0.7,9.7,0.3,14.1,2.6c4.2,2.2,7.6,5.3,10.5,9c0.8,1,0.8,1.4-0.3,1.8c-6.3,2.6-12.8,3.9-19.6,2
	c-4.4-1.2-8.1-3.7-11.4-6.8c-1.2-1.1-2.2-2.3-3.3-3.5c-0.5-0.6-0.9-0.8-1.6-0.4c-3.7,2-7.5,3.9-11.2,5.9c-0.1,0.1-0.2,0.2-0.3,0.3
	c0.2,0.1,0.3,0.4,0.5,0.4c1.7,0.1,3.5,0.1,5.3,0.2c6.1,0.5,11.1,3.3,15.4,7.5c2.2,2.2,4,4.6,5.5,7.3c0.5,0.9,0.4,1.2-0.4,1.5
	c-7.5,2-14.9,2.3-21.9-1.5c-4.3-2.3-7.6-5.8-10.4-9.8c-1.8-2.6-1.1-2.5-4.3-1.3c-2.9,1.1-5.9,2.1-8.8,3.1c-0.6,0.2-1.2,0.4-1.8,0.7
	c-0.1,0-0.2,0.3-0.2,0.4c0,0.1,0.2,0.3,0.3,0.3c1.2,0.2,2.4,0.3,3.5,0.5c9.3,1.6,15.5,7.1,19.4,15.4c0.7,1.5,1.2,3.1,1.8,4.7
	c0.3,0.9,0.1,1.2-0.8,1.3c-0.5,0.1-1.1,0.1-1.7,0.1c-3.8-0.1-7.5-0.6-11.1-1.7c-5-1.6-8.9-4.6-12-8.8c-1.7-2.3-3.1-4.9-4.1-7.5
	c-0.3-0.7-0.5-1.3-0.8-2c-0.3-0.7-0.7-0.9-1.5-0.7c-2.7,0.7-5.4,1.3-8.2,1.9c-6.3,1.3-12.7,2.3-19.2,2.7c-2.9,0.2-5.7,0.3-8.6,0.5
	c-0.4,0-0.8,0.1-1.2,0c-0.2-0.1-0.5-0.4-0.5-0.7c0-0.2,0.2-0.7,0.4-0.7c0.8-0.2,1.6-0.3,2.4-0.3c11.1-0.3,21.9-2,32.7-4.6
	c0.3-0.1,0.6-0.2,0.9-0.3c1.8-0.5,1.8-0.5,1-2.3c-1.4-3-2.4-6.1-2.9-9.4c-0.8-4.8-0.1-9.4,1.9-13.8c1.8-3.9,4.3-7.3,7.4-10.2
	c1.1-1,1.3-1,1.9,0.2c5.7,10.6,6.1,21.2-1.6,31.2c-0.5,0.7-1,1.4-1.5,2.1l0.1,0l-0.2,0c0.5,0,1,0.1,1.4,0c3.9-1.4,7.8-2.7,11.7-4.1
	c1.5-0.5,1.5-0.7,0.8-2.1c-1.5-2.9-2.6-5.8-3.2-9c-1-4.8-0.7-9.5,1.1-14.1c0.1-0.2,0.2-0.4,0.3-0.7c0.4-1.1,0.3-1.4-0.9-1.6
	c-2.9-0.7-5.2-2.3-7.3-4.4c-0.3-0.3-0.6-0.8-1-1c-0.3-0.2-0.8-0.3-1.1-0.1c-0.7,0.3-1.3,0.7-1.9,1.1c-4.1,2.4-8.3,4.5-12.7,6.2
	c-0.7,0.3-1.5,0.5-2.3,0.6c-0.2,0-0.6-0.3-0.6-0.5c-0.1-0.2,0-0.7,0.2-0.8c0.5-0.3,1.1-0.6,1.7-0.8c4.4-1.7,8.7-3.7,12.7-6.2
	c0.4-0.2,0.8-0.5,1.2-0.7c0.9-0.6,0.9-0.8,0.3-1.7c-0.4-0.5-0.8-1-1.2-1.5c-3.4-4.8-3.2-9.9-0.7-15c0.5-1.1,0.9-1.1,1.8-0.2
	c3.6,3.6,5.5,7.8,4.4,13c-0.1,0.6-0.4,1.6-0.1,1.8c0.7,0.5,1.2-0.4,1.8-0.7c0.1,0,0.1-0.1,0.2-0.1c0.8-0.7,2.1-1.3,2.4-2.2
	c0.4-1.1-1.1-1.8-1.7-2.7c-3.5-4.8-3.5-9.8-1-14.9c0.6-1.2,0.9-1.2,1.7-0.4c3.8,3.7,5.8,8,4.6,13.4c-0.1,0.2-0.1,0.5-0.1,0.7
	c0,0.2,0.1,0.4,0.3,0.6c0,0.1,0.3,0,0.4-0.1c1.3-1.3,2.6-2.6,3.9-3.9c0.4-0.4,0.4-0.8,0-1.3c-0.6-0.6-1.2-1.1-1.7-1.7
	c-4-4.5-4.4-9.6-2.3-15c0.4-1,0.7-1.1,1.6-0.4c3.7,3,6.1,6.7,5.9,11.7c0,0.4,0,0.8,0,1.2c0,0.3,0.4,0.7,0.6,0.3c1-1.2,2-2.5,2.9-3.8
	c0.1-0.2,0-0.7-0.2-0.8c-0.4-0.5-1-0.8-1.4-1.3c-4.6-4.2-5.5-9.3-3.9-15.1c0.3-1.1,0.7-1.2,1.7-0.5c3.7,2.7,6.4,6,6.5,10.9
	c0,0.2,0,0.3,0.1,0.5c0.1,0.3,0.3,0.5,0.4,0.7c0.2-0.1,0.4-0.2,0.5-0.4c0.3-0.5,0.7-1.1,0.9-1.7c0.4-0.9,1.1-1.8,1-2.6
	c-0.1-0.6-1.2-1.1-1.9-1.7c-5.1-3.7-6.5-8.9-5.3-14.9c0.2-1,0.5-1.1,1.3-0.6c3.9,2.1,6.9,5,7.7,9.5c0.1,0.5,0.2,0.9,0.3,1.4
	c0.1,0.2,0.3,0.3,0.4,0.5c0.1-0.1,0.3-0.2,0.3-0.3c0.4-1.1,0.9-2.2,1.3-3.3c0.2-0.5,0-0.9-0.5-1.2c-0.9-0.7-1.8-1.3-2.7-2
	c-4.3-3.7-5.1-8.5-4.1-13.8c0.2-1.2,0.6-1.3,1.6-0.7c3.2,1.8,5.6,4.2,7,7.6c0.2,0.4,0.3,0.9,0.6,1.3c0,0.1,0.5,0,0.5-0.1
	c0.3-1.1,0.6-2.2,0.1-3.5c-0.7-1.7-1.2-3.5-1.3-5.3c-0.4-4.5,1.7-8,4.7-11.1c0.7-0.7,1.2-0.6,1.7,0.3c2.5,5,2.8,9.9-0.5,14.8
	c-0.4,0.5-0.7,1.1-1.2,1.5c-1.5,1.2-1.6,3.1-1.9,4.8c0,0.1,0,0.4,0.1,0.4c0.1,0.1,0.3,0,0.4-0.1c0.5-0.4,1-0.8,1.5-1.2
	c3.1-2.3,6.7-2.9,10.5-2.5c1.2,0.1,1.4,0.5,0.9,1.6c-2.5,5.7-6.8,8.7-13,9c-2.5,0.1-2.5,0.1-3.4,2.4c-0.2,0.4-0.4,0.9-0.5,1.3
	c-0.1,0.3,0,0.6,0.1,0.9c0.2,0,0.5-0.1,0.7-0.2c0.1-0.1,0.3-0.2,0.4-0.3c3.9-2.7,8.1-2.5,12.4-1.4c0.2,0.1,0.4,0.2,0.7,0.3
	c0.5,0.2,0.6,0.6,0.3,1c-2.2,3.2-4.9,5.7-8.8,6.6c-2.4,0.6-4.8,0.3-7.1-0.1c-1.5-0.3-1.5-0.3-2.2,1.1c-0.5,1-1,2-1.5,3
	c-0.1,0.1,0,0.3,0,0.4c0.1,0.1,0.3,0.2,0.4,0.1c0.3-0.1,0.6-0.2,0.9-0.4c4.1-1.9,8.1-1.5,12.1,0.2c1.2,0.5,1.3,0.8,0.5,1.7
	c-4.1,4.6-9,6.5-15.1,4.7c-2.6-0.8-2.6-0.8-4.2,1.4c-0.1,0.2-0.3,0.4-0.4,0.6c-0.2,0.3-0.3,0.7-0.5,1.1c0.4,0,0.8,0.1,1.1,0
	c4.6-1.5,8.7-0.4,12.5,2.1c0.9,0.6,1,0.9,0.1,1.6c-4.5,3.9-10.2,5-15.8,2.3c-2.3-1.1-2.3-1.1-4.1,0.9c-0.5,0.5-1.3,0.9-1.2,1.9
	c0.7,0,1.4,0,2.1-0.1c1.8-0.3,3.5,0.1,5.2,0.6c2.1,0.6,3.9,1.8,5.6,3.2c1,0.9,1.1,1.2-0.2,1.9c-1.6,0.8-3.4,1.5-5,2.1
	c-0.4,0.1-0.8,0.1-1.2,0.2c-0.6,0.2-0.7,0.6-0.5,1.1c0.2,0.5,0.5,1,0.7,1.5c1.7,3.6,2.7,7.3,3,11.3c0.4,4.9-0.9,9.5-3.4,13.8
	c-0.9,1.7-2.1,3.2-3.2,4.8c-0.1,0.2-0.1,0.4-0.1,0.6c0.2,0,0.5,0.1,0.7,0c0.5-0.1,0.9-0.3,1.3-0.5c4-2,8-4.1,12-6.1
	c0.4-0.2,0.7-0.4,1-0.6c0.5-0.3,0.5-0.8,0.3-1.2c-0.3-0.6-0.7-1.1-1-1.6c-2.3-3.9-3.9-8.1-4.3-12.6c-0.6-6.6,1.6-12.4,5.2-17.8
	c0.8-1.1,1.6-2.2,2.5-3.2c0.6-0.7,0.9-0.7,1.5,0.1c2.2,3.1,3.9,6.4,5,10c2.1,7.1,1.1,13.7-2.3,20.1c-0.4,0.7-0.7,1.6-1,2.3
	c1.1,0.2,1.7-0.6,2.5-1.1c3.1-2.1,6.2-4.3,9.2-6.5c1.2-0.9,1.2-1,0.3-2.3c-2-2.8-3.7-5.8-4.8-9.1c-1.5-4.4-1.8-8.9-0.7-13.5
	c1-4.4,3-8.4,5.7-12.1c0.7-0.9,0.9-0.9,1.6-0.1c4.7,5.9,7.8,12.4,7.4,20.2c-0.2,2.9-0.9,5.7-2,8.4c-0.3,0.7-0.6,1.3-0.8,2
	c-0.1,0.2,0.1,0.4,0.1,0.6c0,0,0.3,0,0.4-0.1c0.1-0.1,0.3-0.2,0.4-0.3c3.2-3,6.4-6,9.6-9c0.9-0.9,0.9-1,0-2
	c-2.3-2.5-4.2-5.2-5.7-8.3c-2.6-5.4-3.3-11-1.9-16.8c0.8-3.4,2.1-6.7,3.9-9.7c0.7-1.2,0.9-1.2,1.8-0.3c6,6.2,9.8,13.2,9.1,22.1
	c-0.2,2.1-0.8,4.1-1.2,6.1c-0.1,0.6-0.4,1.2-0.6,1.8c-0.1,0.2,0,0.4,0.1,0.7c0.2-0.1,0.4-0.1,0.6-0.2c0.2-0.2,0.5-0.4,0.7-0.7
	c2.3-2.9,4.7-5.7,6.9-8.6c1-1.3,1-1.3-0.1-2.6c-2.2-2.5-4-5.2-5.4-8.1c-2.4-5.1-3.1-10.4-1.9-15.9c0.8-3.8,2.3-7.3,4.3-10.6
	c0.7-1.1,0.9-1.1,1.8-0.2c4.5,4.7,7.8,10,8.7,16.5c0.3,2.3,0.1,4.6,0,6.9c0,1-0.4,2-0.6,3.1c0,0.2,0.1,0.4,0.1,0.7
	c0.2-0.1,0.4-0.1,0.6-0.3c0.3-0.4,0.6-0.8,0.8-1.2c0.9-1.5,1.8-3,2.7-4.5c1-1.5,1.3-3,1-4.8c-0.6-3.5-0.3-7,0.4-10.5
	c1-4.9,3.4-8.9,6.9-12.4c2.5-2.5,5.4-4.5,8.6-6.1c2.1-1.1,2.3-1,2.6,1.4c0.2,1.3,0.4,2.7,0.4,4.1c0.2,7.6-1.6,14.6-7.2,20.1
	c-2.5,2.5-5.3,4.6-8.5,6.2c-1.2,0.6-2,1.4-2.7,2.6c-1.2,2.1-2.5,4.1-3.7,6.2C611.1,438.3,610.5,438.9,610.9,439.7l0-0.2L610.9,439.7
	z M531.3,460.4c-0.3,0.2-0.6,0.3-0.8,0.5c-0.9,0.7-1.9,1.5-2.8,2.2c-0.2,0.1-0.2,0.4-0.4,0.6c0.3,0.1,0.5,0.3,0.8,0.3
	c2.9-0.2,5.7,0.4,8.2,2c0.1,0,0.1,0.1,0.2,0.1c0.4,0,0.8,0,1.1-0.1c0.4-0.3,0.7-0.7,1-1c0.4-0.5,0.2-0.9-0.4-1
	c-2.2-0.6-4.1-1.6-5.9-3C531.9,460.7,531.6,460.5,531.3,460.4z"/>
<path class="st6" d="M269.5,465.9c-0.2-0.3-0.3-0.7-0.5-1c-3-2.9-6-5.7-9-8.6c-1.1-1-1.1-1-2.4-0.2c-2.9,2-5.9,3.5-9.2,4.6
	c-4.9,1.6-9.7,1.6-14.6,0.2c-4-1.2-7.7-3.2-11-5.8c-1.2-0.9-1.2-1.1-0.1-1.9c5.9-4.3,12.3-7.1,19.8-6.5c3.1,0.2,6.1,1.2,9,2.4
	c0.6,0.2,1.2,0.4,1.8,0.6c0.2-0.9-0.6-1.2-1-1.7c-2-2.5-4-5-6-7.5c-1.3-1.6-1.3-1.6-3.3-0.8c-3.8,1.5-7.7,2.5-11.9,2.6
	c-4.2,0.1-8.1-0.9-11.7-2.9c-3.7-2-6.9-4.6-9.6-7.8c-1-1.1-0.9-1.4,0.5-2.1c3.3-1.5,6.7-2.5,10.3-3c5-0.7,9.7,0.1,14.2,2.3
	c1.3,0.7,2.6,1.5,3.9,2.3c0.2,0.1,0.4,0.1,0.6,0.1c0-0.2,0.1-0.5,0-0.6c-1.6-2.7-3.2-5.4-4.9-8c-0.4-0.6-1.1-1.1-1.8-1.5
	c-2.7-1.5-5.2-3.1-7.5-5.2c-5.3-4.7-8.1-10.6-8.4-17.7c-0.1-3-0.2-5.9,0.5-8.8c0.3-1.1,0.4-1.2,1.5-0.7c9.8,4.8,16.4,11.9,17,23.3
	c0.1,2.4-0.1,4.8-0.3,7.2c-0.1,0.8-0.1,1.6,0.4,2.3c1.4,2.3,2.7,4.5,4.1,6.8c0.2,0.3,0.6,0.5,0.9,0.7l-0.1,0l0,0c0-0.5,0-1-0.1-1.4
	c-1.9-7.7-0.1-14.7,4.4-21.1c1.1-1.6,2.4-3,3.6-4.5c1-1.2,1.4-1.1,2.1,0.2c1.6,2.7,2.8,5.6,3.7,8.6c2.1,7.4,1,14.4-3.2,20.9
	c-1.2,1.9-2.7,3.6-4.1,5.3c-0.5,0.7-0.6,1.2-0.1,1.9c1.6,2,3.1,4,4.7,6c1,1.2,2,2.3,3,3.4c0.2,0.2,0.5,0.2,0.7,0.3
	c0-0.2,0.1-0.5,0-0.7c-0.4-1.6-1-3.2-1.3-4.8c-1.4-6.4-0.1-12.4,3.1-18c1.5-2.6,3.4-5.1,5.6-7.2c0.8-0.8,1-0.7,1.6,0.3
	c5.8,10.1,6.7,20.2,0.2,30.1c-1.1,1.7-2.5,3.3-3.8,4.9c-0.7,0.9-0.8,1.1,0,1.8c3.3,3.1,6.6,6.2,10,9.3c0.1,0.1,0.4,0.1,0.6,0.2
	c0-0.2,0.1-0.4,0.1-0.6c-0.1-0.4-0.3-0.7-0.5-1.1c-3.9-8.8-2.9-17.3,2.1-25.4c0.9-1.5,2-2.9,3.1-4.3c0.3-0.5,0.8-0.5,1.2,0
	c0.3,0.3,0.5,0.6,0.7,1c3.2,4.6,5.3,9.6,5.8,15.3c0.4,4.4-0.6,8.6-2.5,12.5c-1.1,2.2-2.5,4.3-3.8,6.4c-0.6,1-0.7,1.2,0.2,1.8
	c3.7,2.7,7.4,5.3,11.2,7.9c0.2,0.1,0.5,0,0.8,0c0-0.2,0-0.5-0.1-0.7c-0.7-1.4-1.5-2.8-2.2-4.3c-2.5-5.6-2.9-11.4-1.2-17.3
	c1.1-3.7,2.8-7.1,5.1-10.3c0.6-0.8,0.9-0.8,1.5-0.1c5.2,6.2,8.4,13.2,7.6,21.5c-0.4,4.3-2,8.2-4.1,11.9c-1.5,2.8-1.6,2.8,1.2,4.3
	c3.6,1.9,7.3,3.7,10.9,5.5c0.6,0.3,1.2,0.5,1.8,0.7c0.1,0,0.2,0,0.2,0c0.1-0.1,0.2-0.3,0.1-0.4c-0.3-0.5-0.7-1.1-1.1-1.6
	c-2.2-3-4-6.2-4.9-9.8c-1.3-4.9-1-9.8,0.6-14.6c0.8-2.4,2-4.7,3.1-7c0.6-1.2,0.9-1.1,1.8-0.3c0.2,0.2,0.5,0.4,0.7,0.7
	c0.5,0.5,1,0.7,1.7,0.3c2.8-1.6,5.7-2,8.8-1.5c0.2,0,0.5,0.1,0.7,0c0.4-0.1,0.5-0.3,0.3-0.7c-0.2-0.3-0.5-0.6-0.8-0.9
	c-0.7-0.7-1.4-1.8-2.3-2c-0.7-0.2-1.7,0.6-2.6,0.9c-5.8,2.6-10.8,1.3-15.4-2.4c-0.8-0.7-0.8-1.1,0.1-1.7c3.6-2.4,7.6-3.3,11.9-2.2
	c0.5,0.1,0.9,0.3,1.4,0.3c0.1,0,0.4-0.4,0.3-0.5c-0.7-1.1-1.4-2.1-2.2-3.1c-0.5-0.6-1-0.2-1.5,0c-2.2,0.8-4.5,1.2-6.8,1
	c-4.1-0.4-7.2-2.5-9.7-5.6c-0.4-0.5-0.3-1,0.5-1.3c3.8-1.7,7.6-2.3,11.6-0.6c0.5,0.2,1,0.5,1.5,0.7c0.1,0,0.3,0,0.4-0.1
	c0.1-0.1,0.1-0.3,0-0.4c-0.2-0.5-0.5-1-0.8-1.5c-0.5-0.9-0.9-2.2-1.6-2.5c-0.8-0.4-2,0.2-3,0.3c-5.8,0.7-10.2-1.1-14-6.4
	c-0.6-0.9-0.5-1.2,0.5-1.5c4.2-1.4,8.3-1.4,12.2,1c0.3,0.2,0.7,0.4,1,0.6c0.1,0.1,0.3,0.1,0.4,0.1c0.1-0.1,0.2-0.3,0.2-0.4
	c-0.4-1.2-0.8-2.4-1.3-3.6c-0.2-0.6-0.8-0.6-1.4-0.7c-1.6-0.1-3.2-0.1-4.8-0.4c-4.9-1-7.8-4.4-9.6-8.8c-0.3-0.8-0.2-1.1,0.6-1.1
	c4.3-0.3,8.3,0,11.7,3.1c0.1,0.1,0.2,0.2,0.4,0.3c0.2,0.1,0.5,0.2,0.6,0.1c0.1-0.1,0.2-0.4,0.2-0.7c-0.2-1.6-0.7-3-1.8-4.3
	c-2.7-3-4-6.5-3.5-10.6c0.2-2,0.8-3.9,1.8-5.7c0.6-1.1,0.9-1.1,1.8-0.2c4.3,4.4,5.7,9.5,3.6,15.4c-0.4,1.1-1,2.2-0.6,3.5
	c0.1,0.3,0.2,0.6,0.4,0.9c0.1,0.1,0.5,0.1,0.5,0.1c0.2-0.5,0.4-1,0.6-1.5c1.4-3.5,4-5.9,7.3-7.6c0.6-0.3,0.9,0,1,0.5
	c1.2,5.6,0.3,10.5-4.2,14.4c-0.3,0.3-0.6,0.5-0.9,0.8c-2.4,1.8-2.4,1.8-1.3,4.6c0.1,0.3,0.2,0.6,0.4,0.9c0.1,0.2,0.3,0.4,0.5,0.4
	c0.1,0,0.3-0.2,0.4-0.4c0.1-0.2,0.1-0.5,0.1-0.7c0.8-4.9,3.8-8,7.9-10.2c0.8-0.4,1.2-0.2,1.3,0.7c0.9,5.8,0.2,10.8-5.6,15
	c-2.1,1.5-2.1,1.5-0.8,3.9c0.3,0.6,0.7,1.3,1.1,1.9c0.1,0.2,0.4,0.3,0.5,0.4c0.1-0.2,0.3-0.4,0.3-0.6c0.1-0.5,0.1-1.1,0.2-1.7
	c0.6-4.5,3.2-7.6,6.8-10c0.9-0.6,1.1-0.5,1.5,0.7c1.7,5.8,0.7,10.9-3.9,15.1c-1.9,1.8-1.9,1.8-0.4,3.9c0.2,0.3,0.4,0.5,0.6,0.8
	c0.5,0.5,1,1,1.5,1.5c0.8-0.6,0.3-1.5,0.3-2.2c-0.1-4.9,2.3-8.5,6-11.4c0.7-0.6,1.2-0.4,1.5,0.4c2,5.3,1.8,10.7-2.6,15.4
	c-0.6,0.6-1.2,1.3-1.7,2c0.6,0.7,1.1,1.6,1.8,2.2c1,0.9,1.6,2.2,3,2.5c-0.1-1.2-0.3-2.4-0.3-3.5c-0.1-1.9,0.2-3.7,0.9-5.4
	c0.9-2.2,2.2-4.1,4-5.7c1-0.9,1.3-0.9,1.8,0.2c2.5,5.3,2.5,10.5-1.2,15.4c-0.3,0.4-0.7,0.8-1.1,1.3c-0.7,0.9-0.7,1.1,0,1.8
	c1.1,0.9,2.3,1.8,3.4,2.6c0.3,0.2,0.7,0.1,0.7-0.3c0-0.6-0.2-1.1-0.3-1.6c-1.1-5.3,0.9-9.6,4.6-13.2c0.7-0.6,1.1-0.6,1.5,0.3
	c2.6,5.2,2.9,10.3-0.8,15.4c-0.5,0.7-1,1.4-1.5,2.1c0.7,0.6,1.4,1.2,2.2,1.7c4,2.4,8.2,4.4,12.5,6.1c0.6,0.2,1.2,0.4,1.7,0.8
	c0.2,0.1,0.2,0.7,0.1,1c-0.1,0.2-0.5,0.5-0.7,0.4c-0.5-0.1-1.1-0.3-1.6-0.5c-4.7-1.8-9.2-4-13.6-6.6c-0.5-0.3-1.1-0.7-1.7-0.9
	c-0.2-0.1-0.7-0.1-0.9,0c-0.7,0.7-1.3,1.4-1.9,2.1c-0.2,0.2-0.1,0.6,0,0.9c0.2,0.4,0.4,0.8,0.7,1.3c4,6.7,4.6,13.8,2.3,21.2
	c-0.6,1.8-1.4,3.6-2.1,5.4c-0.4,1-0.3,1.3,0.7,1.5c3.7,0.8,7.3,1.7,11,2.4c5.7,1.2,11.5,1.8,17.3,2.3c2.4,0.2,4.8,0.2,7.2,0.4
	c0.6,0,1.4-0.1,1.5,0.8c0.1,0.6-0.4,0.9-1.7,0.8c-4.4-0.3-8.8-0.5-13.1-0.9c-7.6-0.7-15-2.2-22.4-4c-1.5-0.4-1.6-0.7-2.4,1.3
	c-0.9,2.6-2.1,5-3.6,7.3c-4.3,6.8-10.6,10.5-18.5,11.5c-2.3,0.3-4.6,0.4-6.9,0.4c-1.2,0-1.5-0.4-1.2-1.5
	c3.4-10.3,9.5-17.7,20.6-19.9c1.4-0.3,2.8-0.4,4.3-0.6c0.1,0,0.3-0.2,0.3-0.3c0-0.1-0.1-0.3-0.2-0.4c-0.4-0.2-0.9-0.4-1.3-0.5
	c-3.4-1.2-6.8-2.4-10.2-3.6c-1.9-0.7-2-0.7-3.1,0.9c-1.5,2.3-3.3,4.5-5.4,6.4c-4.8,4.6-10.5,6.9-17.1,7c-3.3,0.1-6.5-0.4-9.7-1.3
	c-1.4-0.4-1.6-0.7-0.9-1.8c4.2-7,9.7-12.5,18.1-14.2c1.8-0.4,3.6-0.4,5.5-0.5c0.8-0.1,1.6,0,2.4-0.1c0.1,0,0.4-0.2,0.4-0.2
	c0-0.2-0.2-0.4-0.3-0.5c0-0.1-0.1-0.1-0.2-0.1c-3.5-1.9-7.1-3.7-10.6-5.6c-1.1-0.6-1.1-0.6-2,0.3c-1.7,1.8-3.4,3.6-5.3,5.2
	c-4.9,4.1-10.6,6.2-17.1,5.8c-4-0.2-7.9-1.1-11.6-2.7c-1.4-0.6-1.5-0.8-0.6-1.9c4.3-5.4,9.4-9.6,16.3-11.2c3.6-0.9,7.3-0.7,11-0.1
	c0.3,0,0.6,0.1,0.9,0.1c0.1,0,0.2-0.2,0.3-0.3c0,0,0-0.2-0.1-0.2c-0.2-0.2-0.5-0.4-0.7-0.6c-2.9-2.1-5.9-4.2-8.8-6.2
	c-1.2-0.8-1.2-0.9-2.4,0.1c-2.1,1.8-4.4,3.4-6.9,4.7c-6.8,3.6-13.8,3.9-20.9,1.3c-2.5-0.9-4.8-2.2-7.1-3.4c-1-0.5-1-0.9-0.2-1.6
	c7.6-7.1,16.3-10.5,26.8-7.7C267.6,465.4,268.6,465.6,269.5,465.9L269.5,465.9L269.5,465.9z M329.5,496L329.5,496L329.5,496
	c-0.2-0.3-0.3-0.7-0.5-1c-0.5-0.8-1.2-1.5-1.7-2.3c-4-5.8-5.9-12.2-4.6-19.3c0.1-0.4,0.1-0.8,0.1-1.2c0-0.2-0.1-0.6-0.2-0.6
	c-1-0.2-2-0.4-3-0.6c-0.1,0-0.3,0.4-0.3,0.6c0,0.7,0.1,1.4,0.1,2.1c0,1,0.1,2.1,0,3.1c-0.2,4.6-1.7,8.9-3.8,13
	c-0.7,1.3-0.6,1.5,0.7,1.9c4,1.4,8,2.8,12,4.2C328.7,496.2,329.1,496,329.5,496z M330.6,462.6c0.1,0,0.2,0,0.2,0
	c0.2-0.1,0.4-0.2,0.6-0.3c-0.1-0.2-0.1-0.5-0.3-0.6c-0.8-0.7-1.6-1.3-2.4-1.9c-1.2-0.9-1.2-0.9-2.5-0.1c-2.7,1.8-5.5,3.1-8.9,3
	c-1.1,0-1.2,0.3-0.7,1.3c0.4,0.9,0.8,1.9,1.3,2.8c0.4,0.9,0.7,1,1.5,0.2c0.4-0.4,0.8-0.8,1.2-1.1c1.4-1.2,3-2.1,4.7-2.8
	c1.8-0.7,1.8-0.8,4.9-0.6C330.5,462.6,330.6,462.6,330.6,462.6z"/>
<path d="M926.8,413.4c-13.8-0.4-25.2-6.1-34-17.2c-4-5.1-6.8-10.8-8.6-17c-0.2-0.8-0.4-1.6-0.4-2.3c0-0.8,0.5-1.4,1.3-1.5
	c0.8-0.2,1.5,0.1,1.9,0.8c0.3,0.5,0.5,1.2,0.6,1.8c2.2,7.2,5.6,13.8,10.8,19.3c6.4,6.8,14.3,10.9,23.6,12.2
	c12.5,1.7,23.3-2.3,32.6-10.5c2-1.7,3.6-3.8,5.4-5.7c0.4-0.5,0.8-1,1.3-1.4c0.7-0.7,1.5-0.7,2.2-0.2c0.8,0.6,1,1.4,0.6,2.3
	c-0.2,0.4-0.5,0.8-0.8,1.2c-6.8,8.6-15.4,14.6-26.1,17.2C933.9,412.9,930.5,413.3,926.8,413.4z"/>
<path d="M933.7,335.7c1.1,0,1.7,0.4,2,1.1c0.3,0.8,0.1,1.7-0.7,2.1c-0.8,0.4-1.6,0.8-2.4,1.1c-8.9,3.7-17.9,7.3-26.8,10.9
	c-3,1.2-2.4,1.3-0.4,3c7.1,5.9,14.3,11.9,21.4,17.8c0.9,0.7,1.7,1.4,2.5,2.2c0.7,0.6,0.7,1.7,0.3,2.4c-0.4,0.6-1.6,0.9-2.4,0.4
	c-0.5-0.3-0.9-0.7-1.3-1c-8.8-7.3-17.5-14.7-26.4-21.9c-2.1-1.7-2.3-3.5,0.7-4.6c10.6-4.2,21.2-8.6,31.8-12.9
	C932.6,336,933.3,335.8,933.7,335.7z"/>
<path d="M864.5,357.4c-0.1,4.3-3.1,8.3-8.3,8.5c-4.7,0.2-8.6-3.9-8.5-8.5c0.2-5.1,4.1-8.3,8.4-8.3
	C861.1,349,864.5,353.1,864.5,357.4z"/>
<path d="M1012.5,359.5c0.2,4.9-4,8.4-8.2,8.5c-5.2,0.1-8.6-4.3-8.5-8.4c0.1-4.7,3.7-8.4,8.4-8.4
	C1008.9,351.2,1012.5,354.8,1012.5,359.5z"/>
<path d="M1003.3,330.4c13.5,0.6,23.5,6.7,29.5,19c0.4,0.9,0.7,1.9,0.8,2.9c0.1,0.7-0.3,1.3-1,1.4c-0.7,0.2-1.5,0.2-2-0.5
	c-0.3-0.5-0.5-1-0.8-1.5c-4.3-9.5-11.5-15.3-21.7-17.3c-4.6-0.9-9.2-0.6-13.7,0.9c-0.7,0.2-1.4,0.5-2.1,0.5
	c-0.8,0.1-1.4-0.3-1.7-1.1c-0.3-0.7,0-1.7,0.7-2.1c0.5-0.3,1.2-0.5,1.8-0.7C996.4,330.9,999.7,330.3,1003.3,330.4z"/>
<path d="M856.2,323.2c11.2,0,19,3.4,25.5,10c0.4,0.5,0.9,0.9,1.2,1.5c0.6,0.9,0.4,1.8-0.3,2.4c-0.7,0.6-1.6,0.7-2.4,0
	c-0.5-0.4-0.9-0.9-1.3-1.4c-10.3-10.7-27-11.7-38.4-2.9c-0.5,0.4-1,0.8-1.5,1.1c-0.8,0.5-1.6,0.3-2.2-0.3c-0.5-0.6-0.7-1.6-0.1-2.2
	c0.5-0.6,1.1-1.1,1.8-1.6C844.3,325.4,850.8,323.1,856.2,323.2z"/>
<path d="M1111.4,389.8c0.3,6.9-4,14.1-10.9,16.9c-1.4,0.6-1.5,0.5-2-1c-0.1-0.3-0.2-0.6-0.3-0.9c-0.1-0.6-0.1-1.1,0.6-1.3
	c0.4-0.1,0.7-0.3,1.1-0.5c10-5.1,10.5-18.3,2.2-24.5c-1.9-1.4-2-1.1-0.7-3.4c0.5-1,0.8-1,1.7-0.4c5,3.3,7.8,7.8,8.4,13.8
	C1111.4,389,1111.4,389.6,1111.4,389.8z"/>
<path d="M430.4,627c0,10.7,0,21.4,0,32.2c0,3,0,2.8-2.7,2.8c-1.8,0-3.5,0-5.3,0c-0.8,0-1.2-0.3-1.2-1.1c0-0.7,0-1.4,0-2.2
	c0-14.5,0-29,0-43.4c0-3.2,0.2-3-3-3c-3.7,0-7.4,0-11,0c-0.6,0-1.1,0-1.7,0c-0.6,0-0.9-0.4-0.9-0.9c0-1.6,0-3.2,0-4.8
	c0-0.7,0.5-0.8,1.1-0.9c2.5-0.4,5-0.9,7.5-1.3c5-0.8,7.9-3.9,9.3-8.6c0.2-0.5,0.4-1.1,0.5-1.6c0.5-2.3,0.8-1.9,2.6-1.9
	c1.2,0,2.4,0,3.6,0c0.7,0,1,0.4,1,1c0,0.7,0,1.4,0,2.2C430.4,605.9,430.4,616.4,430.4,627z"/>
<path d="M509.2,794.1c1.4,0.1,2.7,0.1,4.1,0.2c0.9,1.2,0.4,2.6,0.9,3.9c0.2,0.7,0.3,1.4,0.5,2.1c1.1,4.5,4,7.4,8.5,8.5
	c3.9,1,7.8,1,11.6-0.3c9.1-3,11-11.7,8.2-18.6c-0.9-2.1-2.4-3.5-4.4-4.6c-3.4-1.7-7-2.2-10.7-2.3c-1,0-2.1,0-3.1,0
	c-0.7,0-1.1-0.3-1.1-1c0-1.8,0-3.7,0-5.5c0-0.9,0.3-1.1,1.3-1c2.3,0.3,4.6,0.2,6.9-0.2c2.3-0.3,4.5-1.1,6.4-2.6
	c4.7-3.6,5.3-13.5-1-17.2c-1.8-1.1-3.7-1.8-5.8-2.1c-3.1-0.5-6.1-0.1-8.9,1.1c-4.7,2-6.7,6-7.2,10.8c-0.4,3.9-0.6,3-3.6,3.1
	c-1.4,0-2.7,0-4.1,0c-1.1,0-1.3-0.2-1.3-1.3c0.1-1.4,0.2-2.9,0.4-4.3c0.4-2.5,1.1-4.8,2.3-7c2.9-5.8,7.7-9,14-10.1
	c5.2-0.9,10.4-0.6,15.4,1c4.8,1.4,8.7,4.2,10.7,8.9c2,4.6,2.2,9.5,0.7,14.3c-0.9,3-2.8,5.4-5.5,7.1c-0.5,0.3-1.1,0.6-1.6,1
	c-0.3,0.2-0.3,0.6,0.1,0.7c0.4,0.2,0.7,0.3,1.1,0.5c4.7,2,7.7,5.5,8.8,10.4c1.7,7.5,0.4,14.4-4.8,20.4c-2.6,3-6,5-9.9,6.1
	c-5.6,1.6-11.3,1.8-17.1,0.7c-6.8-1.3-11.5-5.2-14.3-11.5c-1.4-3.1-2-6.4-2.3-9.8c-0.1-1.1,0.2-1.4,1.4-1.4
	C506.9,794.1,508,794.2,509.2,794.1C509.2,794.1,509.2,794.1,509.2,794.1z"/>
<path d="M313.7,815.6c-7,0-13.9,0-20.9,0c-0.6,0-1.1,0-1.7,0c-1.2-0.1-1.5-0.3-1.3-1.4c0.4-2.7,0.7-5.4,1.4-8
	c1-4.2,2.8-8.2,5.8-11.4c2.5-2.7,5.4-4.8,8.5-6.6c3.9-2.3,7.8-4.4,11.6-6.8c2.4-1.5,4.7-3,6.8-4.9c4.4-3.9,5.7-8.8,4-14.4
	c-1.6-5.1-5.3-7.8-10.5-8.6c-2.6-0.4-5.1-0.2-7.6,0.5c-4.1,1.2-6.8,4.1-8.2,8.1c-0.5,1.7-0.7,3.4-1.1,5.1c-0.1,0.6-0.1,1.3-0.2,1.9
	c-0.1,0.7-0.5,1.1-1.3,1.1c-2.2,0-4.3,0-6.5,0c-0.6,0-1.1-0.3-1.1-1c0.1-6.6,1.5-12.7,6.1-17.7c2.9-3.2,6.7-4.9,10.9-5.7
	c4.6-0.9,9.2-0.8,13.8,0.2c8.3,1.8,13.1,7.2,15.1,15c2.2,8.6-0.3,16-7.5,21.5c-3.3,2.5-6.9,4.6-10.5,6.7c-2.9,1.7-5.9,3.3-8.8,5
	c-2.8,1.7-5.4,3.6-7.6,6.2c-1.4,1.7-2.5,3.5-3.2,5.6c-0.3,0.9-0.1,1.2,0.8,1.3c0.7,0.1,1.4,0,2.2,0c10.6,0,21.3,0,31.9,0
	c3.2,0,3-0.1,3,3c0,1.3,0,2.6,0,3.8c-0.1,1.2-0.2,1.3-1.5,1.4c-0.6,0-1.1,0-1.7,0C327.6,815.6,320.7,815.6,313.7,815.6z"/>
<path d="M453.2,356.4c-0.1,0.2-0.2,0.5-0.5,0.8c-0.5,0.4-1,0.8-1.5,1.2c-4.7,3.6-9.4,7.2-14.1,10.8c-1.7,1.3-1.7,1.3-1.1,3.3
	c1.8,6,3.7,11.9,5.5,17.9c0.1,0.5,0.3,0.9,0.4,1.4c0.3,1.2,0.3,1.3-0.7,2c-1,0.7-1.1,0.7-2.1-0.1c-4.4-3.4-8.8-6.9-13.3-10.3
	c-0.8-0.6-1.6-1.3-2.5-1.9c-1.2-0.9-1.2-0.9-2.5,0.1c-4.9,3.7-9.7,7.5-14.6,11.3c-0.4,0.3-0.7,0.6-1.1,0.9c-0.9,0.6-2.3,0.2-2.8-0.8
	c-0.1-0.3,0-0.8,0.1-1.1c0.6-2,1.2-4,1.8-6c1.4-4.6,2.8-9.2,4.2-13.7c0.4-1.2,0.1-1.9-0.9-2.6c-4.7-3.6-9.4-7.2-14.1-10.8
	c-0.5-0.4-1-0.8-1.5-1.2c-0.6-0.4-1.1-0.9-0.8-1.8c0.4-1.2,0.6-1.4,1.8-1.5c1-0.1,2.1,0,3.1,0c5.2,0,10.4,0,15.6,0
	c2.2,0,2.2,0,2.8-2.1c1.8-5.7,3.5-11.5,5.3-17.2c0.2-0.6,0.4-1.2,0.6-1.8c0.4-1.3,0.9-1.5,2.1-1.4c0.6,0.1,1.1,0.4,1.3,0.9
	c0.2,0.7,0.4,1.4,0.6,2.1c1.7,5.7,3.5,11.3,5.2,17c0.2,0.5,0.4,1.1,0.5,1.6c0.2,0.6,0.6,0.9,1.2,0.9c0.7,0,1.4,0,2.2,0
	c5.3,0,10.6,0,15.8,0c0.6,0,1.3,0,1.9,0C452.5,354.4,453.1,355,453.2,356.4z"/>
<path d="M405.9,356.9c-2.3,0-4.6,0-7,0c-0.6,0-1.1,0-1.7,0.1c-0.2,0-0.5,0.2-0.5,0.4c0,0.2,0.1,0.4,0.3,0.6c0.4,0.3,0.8,0.6,1.1,0.9
	c3.9,3,7.8,5.9,11.6,8.9c2.1,1.6,2.2,2,1.5,4.5c-1.4,4.7-2.9,9.3-4.3,14c-0.2,0.8-0.4,1.7-0.5,2.5c1.1,0.2,1.6-0.8,2.3-1.3
	c3.8-2.8,7.5-5.7,11.2-8.6c0.9-0.7,1.9-1.2,3.1-0.8c0.6,0.2,1.1,0.7,1.6,1.1c3.6,2.8,7.2,5.6,10.8,8.4c0.5,0.4,1,0.8,1.5,1.2
	c0.2,0.1,0.5,0.1,0.8,0.2c0-0.2,0.1-0.5,0.1-0.7c-0.1-0.5-0.3-1.1-0.4-1.6c-1.4-4.7-2.9-9.3-4.3-14c-0.9-2.8-0.8-3.1,1.5-4.9
	c3.7-2.9,7.5-5.7,11.2-8.6c0.4-0.3,0.9-0.7,1.3-1c0.2-0.1,0.4-0.5,0.3-0.6c-0.2-0.2-0.5-0.4-0.7-0.5c-0.6-0.1-1.3,0-1.9,0
	c-4.6,0-9.3,0-13.9,0c-2.4,0-2.8-0.3-3.4-2.5c-1.2-3.8-2.3-7.6-3.5-11.5c-0.5-1.5-0.9-3.1-1.4-4.6c-0.1-0.2-0.3-0.4-0.5-0.4
	c-0.2,0-0.4,0.2-0.5,0.4c-0.2,0.6-0.4,1.2-0.6,1.8c-1.4,4.7-2.8,9.3-4.3,14c-0.8,2.5-1,2.7-3.7,2.7
	C410.7,356.9,408.3,356.9,405.9,356.9z"/>
</svg>
